{
.appVersion = "865";
date = "2016-03-11 05:41:28 +0000";
designer = Pablo;
familyName = Rin;
fontMaster = (
{
alignmentZones = (
"{1000, 16}",
"{951, 16}",
"{700, 16}",
"{530, 16}",
"{0, -16}",
"{-400, 16}"
);
ascender = 1000;
capHeight = 700;
descender = -400;
guideLines = (
{
position = "{419, -78}";
},
{
position = "{161, 626}";
},
{
position = "{-57, 951}";
},
{
position = "{-509, -400}";
},
{
position = "{-273, 1016}";
}
);
id = "BE599D47-15C2-4DC8-BE97-05FFE6CA3179";
italicAngle = 16;
xHeight = 530;
}
);
glyphs = (
{
glyphname = A;
lastChange = "2016-03-23 19:29:39 +0000";
layers = (
{
background = {
paths = (
{
closed = 1;
nodes = (
"399 339 OFFCURVE",
"351 282 OFFCURVE",
"285 282 CURVE SMOOTH",
"242 282 OFFCURVE",
"217 305 OFFCURVE",
"196 374 CURVE",
"48 332 OFFCURVE",
"-28 199 OFFCURVE",
"-28 75 CURVE SMOOTH",
"-28 -56 OFFCURVE",
"59 -118 OFFCURVE",
"160 -118 CURVE SMOOTH",
"237 -118 OFFCURVE",
"315 -82 OFFCURVE",
"392 33 CURVE SMOOTH",
"543 258 OFFCURVE",
"682 600 OFFCURVE",
"768 720 CURVE SMOOTH",
"788 748 OFFCURVE",
"810 763 OFFCURVE",
"826 763 CURVE SMOOTH",
"840 763 OFFCURVE",
"850 752 OFFCURVE",
"850 731 CURVE SMOOTH",
"850 722 OFFCURVE",
"848 718 OFFCURVE",
"846 711 CURVE SMOOTH",
"806 571 OFFCURVE",
"626 211 OFFCURVE",
"626 11 CURVE SMOOTH",
"626 -118 OFFCURVE",
"706 -177 OFFCURVE",
"816 -177 CURVE SMOOTH",
"914 -177 OFFCURVE",
"1052 -130 OFFCURVE",
"1141 -43 CURVE",
"1082 -19 OFFCURVE",
"1061 33 OFFCURVE",
"1061 101 CURVE SMOOTH",
"1061 293 OFFCURVE",
"1232 612 OFFCURVE",
"1232 781 CURVE SMOOTH",
"1232 920 OFFCURVE",
"1119 967 OFFCURVE",
"997 967 CURVE SMOOTH",
"798 967 OFFCURVE",
"694 862 OFFCURVE",
"524 558 CURVE SMOOTH"
);
},
{
closed = 1;
nodes = (
"451 294 LINE",
"845 294 LINE",
"867 400 LINE",
"473 400 LINE"
);
}
);
};
layerId = "BE599D47-15C2-4DC8-BE97-05FFE6CA3179";
paths = (
{
closed = 1;
nodes = (
"399 339 OFFCURVE",
"351 282 OFFCURVE",
"285 282 CURVE SMOOTH",
"242 282 OFFCURVE",
"217 305 OFFCURVE",
"196 374 CURVE",
"48 332 OFFCURVE",
"-28 199 OFFCURVE",
"-28 75 CURVE SMOOTH",
"-28 -56 OFFCURVE",
"59 -118 OFFCURVE",
"160 -118 CURVE SMOOTH",
"237 -118 OFFCURVE",
"315 -82 OFFCURVE",
"414 66 CURVE SMOOTH",
"543 258 OFFCURVE",
"668 580 OFFCURVE",
"758 707 CURVE SMOOTH",
"788 748 OFFCURVE",
"810 763 OFFCURVE",
"826 763 CURVE SMOOTH",
"840 763 OFFCURVE",
"850 752 OFFCURVE",
"850 731 CURVE SMOOTH",
"850 632 OFFCURVE",
"626 245 OFFCURVE",
"626 18 CURVE SMOOTH",
"626 -118 OFFCURVE",
"706 -177 OFFCURVE",
"816 -177 CURVE SMOOTH",
"917 -177 OFFCURVE",
"1062 -130 OFFCURVE",
"1151 -43 CURVE",
"1092 -19 OFFCURVE",
"1071 33 OFFCURVE",
"1071 101 CURVE SMOOTH",
"1061 293 OFFCURVE",
"1232 612 OFFCURVE",
"1242 781 CURVE SMOOTH",
"1242 920 OFFCURVE",
"1124 967 OFFCURVE",
"997 967 CURVE SMOOTH",
"798 967 OFFCURVE",
"694 862 OFFCURVE",
"524 558 CURVE SMOOTH"
);
},
{
closed = 1;
nodes = (
"451 294 LINE",
"845 294 LINE",
"867 400 LINE",
"473 400 LINE"
);
}
);
width = 1201;
},
{
associatedMasterId = "BE599D47-15C2-4DC8-BE97-05FFE6CA3179";
layerId = "C9EDA137-8E21-4DC9-938E-1F347CE9F6B7";
name = "Regular Italic Mar 21 16, 16:25";
paths = (
{
closed = 1;
nodes = (
"381 263 OFFCURVE",
"313 263 CURVE SMOOTH",
"277 263 OFFCURVE",
"254 284 OFFCURVE",
"235 348 CURVE",
"124 316 OFFCURVE",
"63 197 OFFCURVE",
"63 93 CURVE SMOOTH",
"63 -15 OFFCURVE",
"130 -78 OFFCURVE",
"218 -78 CURVE SMOOTH",
"293 -78 OFFCURVE",
"384 -33 OFFCURVE",
"461 80 CURVE SMOOTH",
"600 282 OFFCURVE",
"738 654 OFFCURVE",
"816 766 CURVE SMOOTH",
"834 792 OFFCURVE",
"854 805 OFFCURVE",
"869 805 CURVE SMOOTH",
"882 805 OFFCURVE",
"891 795 OFFCURVE",
"891 776 CURVE SMOOTH",
"891 771 OFFCURVE",
"890 764 OFFCURVE",
"888 757 CURVE SMOOTH",
"858 631 OFFCURVE",
"682 273 OFFCURVE",
"682 94 CURVE SMOOTH",
"682 -22 OFFCURVE",
"740 -78 OFFCURVE",
"854 -78 CURVE SMOOTH",
"982 -78 OFFCURVE",
"1067 -20 OFFCURVE",
"1112 104 CURVE",
"1084 123 OFFCURVE",
"1070 151 OFFCURVE",
"1070 188 CURVE SMOOTH",
"1070 403 OFFCURVE",
"1208 635 OFFCURVE",
"1208 806 CURVE SMOOTH",
"1208 921 OFFCURVE",
"1138 966 OFFCURVE",
"1008 966 CURVE SMOOTH",
"810 966 OFFCURVE",
"745 892 OFFCURVE",
"622 674 CURVE SMOOTH",
"456 380 OFFCURVE"
);
},
{
closed = 1;
nodes = (
"512 342 LINE",
"876 342 LINE",
"896 440 LINE",
"532 440 LINE"
);
}
);
width = 1200;
},
{
associatedMasterId = "BE599D47-15C2-4DC8-BE97-05FFE6CA3179";
background = {
paths = (
{
closed = 1;
nodes = (
"331 263 OFFCURVE",
"263 263 CURVE SMOOTH",
"227 263 OFFCURVE",
"204 284 OFFCURVE",
"185 348 CURVE",
"74 316 OFFCURVE",
"13 197 OFFCURVE",
"13 93 CURVE SMOOTH",
"13 -15 OFFCURVE",
"80 -78 OFFCURVE",
"168 -78 CURVE SMOOTH",
"243 -78 OFFCURVE",
"334 -33 OFFCURVE",
"411 80 CURVE SMOOTH",
"550 282 OFFCURVE",
"688 654 OFFCURVE",
"766 766 CURVE SMOOTH",
"784 792 OFFCURVE",
"804 805 OFFCURVE",
"819 805 CURVE SMOOTH",
"832 805 OFFCURVE",
"841 795 OFFCURVE",
"841 776 CURVE SMOOTH",
"841 771 OFFCURVE",
"840 764 OFFCURVE",
"838 757 CURVE SMOOTH",
"808 631 OFFCURVE",
"632 273 OFFCURVE",
"632 94 CURVE SMOOTH",
"632 -22 OFFCURVE",
"690 -78 OFFCURVE",
"804 -78 CURVE SMOOTH",
"932 -78 OFFCURVE",
"1017 -20 OFFCURVE",
"1062 104 CURVE",
"1034 123 OFFCURVE",
"1020 151 OFFCURVE",
"1020 188 CURVE SMOOTH",
"1020 403 OFFCURVE",
"1158 635 OFFCURVE",
"1158 806 CURVE SMOOTH",
"1158 921 OFFCURVE",
"1088 966 OFFCURVE",
"958 966 CURVE SMOOTH",
"760 966 OFFCURVE",
"695 892 OFFCURVE",
"572 674 CURVE SMOOTH",
"406 380 OFFCURVE"
);
},
{
closed = 1;
nodes = (
"462 342 LINE",
"826 342 LINE",
"846 440 LINE",
"482 440 LINE"
);
}
);
};
layerId = "B08B1EAB-39A5-4E98-BCD0-1A5A424085ED";
name = "Regular Italic Mar 21 16, 16:33";
paths = (
{
closed = 1;
nodes = (
"404 357 OFFCURVE",
"347 303 OFFCURVE",
"275 303 CURVE SMOOTH",
"239 303 OFFCURVE",
"216 324 OFFCURVE",
"197 388 CURVE",
"60 352 OFFCURVE",
"-16 217 OFFCURVE",
"-16 99 CURVE SMOOTH",
"-16 -6 OFFCURVE",
"53 -78 OFFCURVE",
"160 -78 CURVE SMOOTH",
"229 -78 OFFCURVE",
"312 -26 OFFCURVE",
"383 80 CURVE SMOOTH",
"524 287 OFFCURVE",
"659 624 OFFCURVE",
"737 736 CURVE SMOOTH",
"755 762 OFFCURVE",
"775 775 OFFCURVE",
"790 775 CURVE SMOOTH",
"803 775 OFFCURVE",
"812 765 OFFCURVE",
"812 746 CURVE SMOOTH",
"812 741 OFFCURVE",
"811 734 OFFCURVE",
"809 727 CURVE SMOOTH",
"772 598 OFFCURVE",
"605 274 OFFCURVE",
"605 80 CURVE SMOOTH",
"605 -36 OFFCURVE",
"673 -92 OFFCURVE",
"787 -92 CURVE SMOOTH",
"915 -92 OFFCURVE",
"1038 1 OFFCURVE",
"1093 125 CURVE",
"1044 127 OFFCURVE",
"1021 167 OFFCURVE",
"1021 204 CURVE SMOOTH",
"1021 424 OFFCURVE",
"1161 631 OFFCURVE",
"1161 806 CURVE SMOOTH",
"1161 921 OFFCURVE",
"1052 972 OFFCURVE",
"939 966 CURVE SMOOTH",
"755 956 OFFCURVE",
"666 869 OFFCURVE",
"538 630 CURVE SMOOTH"
);
},
{
closed = 1;
nodes = (
"444 342 LINE",
"808 342 LINE",
"828 440 LINE",
"464 440 LINE"
);
}
);
width = 1123;
},
{
associatedMasterId = "BE599D47-15C2-4DC8-BE97-05FFE6CA3179";
background = {
paths = (
{
closed = 1;
nodes = (
"389 315 OFFCURVE",
"339 252 OFFCURVE",
"261 252 CURVE SMOOTH",
"222 252 OFFCURVE",
"197 275 OFFCURVE",
"176 344 CURVE",
"28 305 OFFCURVE",
"-54 159 OFFCURVE",
"-54 31 CURVE SMOOTH",
"-54 -82 OFFCURVE",
"21 -160 OFFCURVE",
"136 -160 CURVE SMOOTH",
"211 -160 OFFCURVE",
"301 -104 OFFCURVE",
"378 11 CURVE SMOOTH",
"529 236 OFFCURVE",
"674 600 OFFCURVE",
"760 720 CURVE SMOOTH",
"780 748 OFFCURVE",
"802 763 OFFCURVE",
"818 763 CURVE SMOOTH",
"832 763 OFFCURVE",
"842 752 OFFCURVE",
"842 731 CURVE SMOOTH",
"842 726 OFFCURVE",
"840 718 OFFCURVE",
"838 711 CURVE SMOOTH",
"798 571 OFFCURVE",
"618 221 OFFCURVE",
"618 11 CURVE SMOOTH",
"618 -115 OFFCURVE",
"691 -175 OFFCURVE",
"814 -175 CURVE SMOOTH",
"953 -175 OFFCURVE",
"1086 -75 OFFCURVE",
"1146 59 CURVE",
"1093 62 OFFCURVE",
"1068 105 OFFCURVE",
"1068 145 CURVE SMOOTH",
"1068 383 OFFCURVE",
"1219 606 OFFCURVE",
"1219 796 CURVE SMOOTH",
"1219 920 OFFCURVE",
"1101 976 OFFCURVE",
"979 969 CURVE SMOOTH",
"780 958 OFFCURVE",
"683 864 OFFCURVE",
"545 606 CURVE SMOOTH"
);
},
{
closed = 1;
nodes = (
"443 294 LINE",
"837 294 LINE",
"859 400 LINE",
"465 400 LINE"
);
}
);
};
layerId = "ED4CB725-F771-40F8-992C-E9E2F6B440AC";
name = "Regular Italic Mar 21 16, 16:37";
paths = (
{
closed = 1;
nodes = (
"389 315 OFFCURVE",
"339 252 OFFCURVE",
"261 252 CURVE SMOOTH",
"222 252 OFFCURVE",
"197 275 OFFCURVE",
"176 344 CURVE",
"28 305 OFFCURVE",
"-54 159 OFFCURVE",
"-54 31 CURVE SMOOTH",
"-54 -82 OFFCURVE",
"21 -160 OFFCURVE",
"136 -160 CURVE SMOOTH",
"211 -160 OFFCURVE",
"301 -104 OFFCURVE",
"378 11 CURVE SMOOTH",
"529 236 OFFCURVE",
"674 600 OFFCURVE",
"760 720 CURVE SMOOTH",
"780 748 OFFCURVE",
"802 763 OFFCURVE",
"818 763 CURVE SMOOTH",
"832 763 OFFCURVE",
"842 752 OFFCURVE",
"842 731 CURVE SMOOTH",
"842 726 OFFCURVE",
"840 718 OFFCURVE",
"838 711 CURVE SMOOTH",
"798 571 OFFCURVE",
"618 221 OFFCURVE",
"618 11 CURVE SMOOTH",
"618 -115 OFFCURVE",
"691 -175 OFFCURVE",
"814 -175 CURVE SMOOTH",
"953 -175 OFFCURVE",
"1078 -75 OFFCURVE",
"1138 59 CURVE",
"1085 62 OFFCURVE",
"1060 105 OFFCURVE",
"1060 145 CURVE SMOOTH",
"1060 383 OFFCURVE",
"1211 606 OFFCURVE",
"1211 796 CURVE SMOOTH",
"1211 920 OFFCURVE",
"1111 967 OFFCURVE",
"989 967 CURVE SMOOTH",
"790 967 OFFCURVE",
"683 864 OFFCURVE",
"545 606 CURVE SMOOTH"
);
},
{
closed = 1;
nodes = (
"443 294 LINE",
"837 294 LINE",
"859 400 LINE",
"465 400 LINE"
);
}
);
width = 1185;
},
{
associatedMasterId = "BE599D47-15C2-4DC8-BE97-05FFE6CA3179";
background = {
paths = (
{
closed = 1;
nodes = (
"389 315 OFFCURVE",
"339 252 OFFCURVE",
"261 252 CURVE SMOOTH",
"222 252 OFFCURVE",
"197 275 OFFCURVE",
"176 344 CURVE",
"28 305 OFFCURVE",
"-54 159 OFFCURVE",
"-54 31 CURVE SMOOTH",
"-54 -82 OFFCURVE",
"21 -160 OFFCURVE",
"136 -160 CURVE SMOOTH",
"211 -160 OFFCURVE",
"301 -104 OFFCURVE",
"378 11 CURVE SMOOTH",
"529 236 OFFCURVE",
"674 600 OFFCURVE",
"760 720 CURVE SMOOTH",
"780 748 OFFCURVE",
"802 763 OFFCURVE",
"818 763 CURVE SMOOTH",
"832 763 OFFCURVE",
"842 752 OFFCURVE",
"842 731 CURVE SMOOTH",
"842 726 OFFCURVE",
"840 718 OFFCURVE",
"838 711 CURVE SMOOTH",
"798 571 OFFCURVE",
"618 221 OFFCURVE",
"618 11 CURVE SMOOTH",
"618 -115 OFFCURVE",
"691 -175 OFFCURVE",
"814 -175 CURVE SMOOTH",
"953 -175 OFFCURVE",
"1086 -75 OFFCURVE",
"1146 59 CURVE",
"1093 62 OFFCURVE",
"1068 105 OFFCURVE",
"1068 145 CURVE SMOOTH",
"1068 383 OFFCURVE",
"1219 606 OFFCURVE",
"1219 796 CURVE SMOOTH",
"1219 920 OFFCURVE",
"1101 976 OFFCURVE",
"979 969 CURVE SMOOTH",
"780 958 OFFCURVE",
"683 864 OFFCURVE",
"545 606 CURVE SMOOTH"
);
},
{
closed = 1;
nodes = (
"443 294 LINE",
"837 294 LINE",
"859 400 LINE",
"465 400 LINE"
);
}
);
};
layerId = "A58D0220-B90C-4ECE-909D-896D11EEC863";
name = "Regular Italic Mar 21 16, 16:38";
paths = (
{
closed = 1;
nodes = (
"389 315 OFFCURVE",
"339 252 OFFCURVE",
"261 252 CURVE SMOOTH",
"222 252 OFFCURVE",
"197 275 OFFCURVE",
"176 344 CURVE",
"28 305 OFFCURVE",
"-54 159 OFFCURVE",
"-54 31 CURVE SMOOTH",
"-54 -82 OFFCURVE",
"21 -160 OFFCURVE",
"136 -160 CURVE SMOOTH",
"211 -160 OFFCURVE",
"301 -104 OFFCURVE",
"378 11 CURVE SMOOTH",
"529 236 OFFCURVE",
"674 600 OFFCURVE",
"760 720 CURVE SMOOTH",
"780 748 OFFCURVE",
"802 763 OFFCURVE",
"818 763 CURVE SMOOTH",
"832 763 OFFCURVE",
"842 752 OFFCURVE",
"842 731 CURVE SMOOTH",
"842 726 OFFCURVE",
"840 718 OFFCURVE",
"838 711 CURVE SMOOTH",
"798 571 OFFCURVE",
"618 221 OFFCURVE",
"618 11 CURVE SMOOTH",
"618 -115 OFFCURVE",
"691 -175 OFFCURVE",
"814 -175 CURVE SMOOTH",
"948 -175 OFFCURVE",
"1068 -91 OFFCURVE",
"1125 21 CURVE",
"1081 36 OFFCURVE",
"1064 87 OFFCURVE",
"1064 145 CURVE SMOOTH",
"1064 383 OFFCURVE",
"1216 606 OFFCURVE",
"1216 796 CURVE SMOOTH",
"1216 920 OFFCURVE",
"1111 967 OFFCURVE",
"989 967 CURVE SMOOTH",
"790 967 OFFCURVE",
"683 864 OFFCURVE",
"545 606 CURVE SMOOTH"
);
},
{
closed = 1;
nodes = (
"443 294 LINE",
"837 294 LINE",
"859 400 LINE",
"465 400 LINE"
);
}
);
width = 1185;
},
{
associatedMasterId = "BE599D47-15C2-4DC8-BE97-05FFE6CA3179";
background = {
paths = (
{
closed = 1;
nodes = (
"397 315 OFFCURVE",
"347 252 OFFCURVE",
"269 252 CURVE SMOOTH",
"230 252 OFFCURVE",
"205 275 OFFCURVE",
"184 344 CURVE",
"36 305 OFFCURVE",
"-46 159 OFFCURVE",
"-46 31 CURVE SMOOTH",
"-46 -82 OFFCURVE",
"29 -160 OFFCURVE",
"144 -160 CURVE SMOOTH",
"219 -160 OFFCURVE",
"309 -104 OFFCURVE",
"386 11 CURVE SMOOTH",
"537 236 OFFCURVE",
"682 600 OFFCURVE",
"768 720 CURVE SMOOTH",
"788 748 OFFCURVE",
"810 763 OFFCURVE",
"826 763 CURVE SMOOTH",
"840 763 OFFCURVE",
"850 752 OFFCURVE",
"850 731 CURVE SMOOTH",
"850 726 OFFCURVE",
"848 718 OFFCURVE",
"846 711 CURVE SMOOTH",
"806 571 OFFCURVE",
"626 221 OFFCURVE",
"626 11 CURVE SMOOTH",
"626 -115 OFFCURVE",
"699 -175 OFFCURVE",
"822 -175 CURVE SMOOTH",
"961 -175 OFFCURVE",
"1094 -75 OFFCURVE",
"1154 59 CURVE",
"1101 62 OFFCURVE",
"1076 105 OFFCURVE",
"1076 145 CURVE SMOOTH",
"1076 383 OFFCURVE",
"1227 606 OFFCURVE",
"1227 796 CURVE SMOOTH",
"1227 920 OFFCURVE",
"1109 976 OFFCURVE",
"987 969 CURVE SMOOTH",
"788 958 OFFCURVE",
"691 864 OFFCURVE",
"553 606 CURVE SMOOTH"
);
},
{
closed = 1;
nodes = (
"451 294 LINE",
"845 294 LINE",
"867 400 LINE",
"473 400 LINE"
);
}
);
};
layerId = "ED1C1A2C-D36E-4687-86A7-91CA76D1B82D";
name = "Regular Italic Mar 21 16, 16:58";
paths = (
{
closed = 1;
nodes = (
"389 315 OFFCURVE",
"339 252 OFFCURVE",
"261 252 CURVE SMOOTH",
"222 252 OFFCURVE",
"197 275 OFFCURVE",
"176 344 CURVE",
"28 305 OFFCURVE",
"-54 159 OFFCURVE",
"-54 31 CURVE SMOOTH",
"-54 -82 OFFCURVE",
"21 -160 OFFCURVE",
"136 -160 CURVE SMOOTH",
"211 -160 OFFCURVE",
"309 -104 OFFCURVE",
"386 11 CURVE SMOOTH",
"537 236 OFFCURVE",
"682 600 OFFCURVE",
"768 720 CURVE SMOOTH",
"788 748 OFFCURVE",
"810 763 OFFCURVE",
"826 763 CURVE SMOOTH",
"840 763 OFFCURVE",
"850 752 OFFCURVE",
"850 731 CURVE SMOOTH",
"850 726 OFFCURVE",
"848 718 OFFCURVE",
"846 711 CURVE SMOOTH",
"806 571 OFFCURVE",
"626 221 OFFCURVE",
"626 11 CURVE SMOOTH",
"626 -118 OFFCURVE",
"706 -177 OFFCURVE",
"803 -177 CURVE SMOOTH",
"914 -177 OFFCURVE",
"1052 -130 OFFCURVE",
"1141 -43 CURVE",
"1082 -19 OFFCURVE",
"1061 33 OFFCURVE",
"1061 101 CURVE SMOOTH",
"1061 293 OFFCURVE",
"1232 612 OFFCURVE",
"1232 796 CURVE SMOOTH",
"1232 920 OFFCURVE",
"1119 967 OFFCURVE",
"997 967 CURVE SMOOTH",
"798 967 OFFCURVE",
"683 864 OFFCURVE",
"545 606 CURVE SMOOTH"
);
},
{
closed = 1;
nodes = (
"451 294 LINE",
"845 294 LINE",
"867 400 LINE",
"473 400 LINE"
);
}
);
width = 1191;
},
{
associatedMasterId = "BE599D47-15C2-4DC8-BE97-05FFE6CA3179";
background = {
paths = (
{
closed = 1;
nodes = (
"389 315 OFFCURVE",
"339 252 OFFCURVE",
"261 252 CURVE SMOOTH",
"222 252 OFFCURVE",
"197 275 OFFCURVE",
"176 344 CURVE",
"28 305 OFFCURVE",
"-48 181 OFFCURVE",
"-48 53 CURVE SMOOTH",
"-48 -60 OFFCURVE",
"27 -128 OFFCURVE",
"142 -128 CURVE SMOOTH",
"217 -128 OFFCURVE",
"315 -82 OFFCURVE",
"392 33 CURVE SMOOTH",
"543 258 OFFCURVE",
"682 600 OFFCURVE",
"768 720 CURVE SMOOTH",
"788 748 OFFCURVE",
"810 763 OFFCURVE",
"826 763 CURVE SMOOTH",
"840 763 OFFCURVE",
"850 752 OFFCURVE",
"850 731 CURVE SMOOTH",
"850 726 OFFCURVE",
"848 718 OFFCURVE",
"846 711 CURVE SMOOTH",
"806 571 OFFCURVE",
"626 221 OFFCURVE",
"626 11 CURVE SMOOTH",
"626 -118 OFFCURVE",
"706 -177 OFFCURVE",
"803 -177 CURVE SMOOTH",
"914 -177 OFFCURVE",
"1052 -130 OFFCURVE",
"1141 -43 CURVE",
"1082 -19 OFFCURVE",
"1061 33 OFFCURVE",
"1061 101 CURVE SMOOTH",
"1061 293 OFFCURVE",
"1232 612 OFFCURVE",
"1232 796 CURVE SMOOTH",
"1232 920 OFFCURVE",
"1119 967 OFFCURVE",
"997 967 CURVE SMOOTH",
"798 967 OFFCURVE",
"683 864 OFFCURVE",
"545 606 CURVE SMOOTH"
);
},
{
closed = 1;
nodes = (
"451 294 LINE",
"845 294 LINE",
"867 400 LINE",
"473 400 LINE"
);
}
);
};
layerId = "825CBB8B-278A-4601-A63C-89E1EFD5B21F";
name = "Regular Italic Mar 21 16, 17:03";
paths = (
{
closed = 1;
nodes = (
"389 315 OFFCURVE",
"339 252 OFFCURVE",
"261 252 CURVE SMOOTH",
"222 252 OFFCURVE",
"197 275 OFFCURVE",
"176 344 CURVE",
"28 305 OFFCURVE",
"-48 181 OFFCURVE",
"-48 53 CURVE SMOOTH",
"-48 -60 OFFCURVE",
"27 -128 OFFCURVE",
"142 -128 CURVE SMOOTH",
"217 -128 OFFCURVE",
"315 -82 OFFCURVE",
"392 33 CURVE SMOOTH",
"543 258 OFFCURVE",
"682 600 OFFCURVE",
"768 720 CURVE SMOOTH",
"788 748 OFFCURVE",
"810 763 OFFCURVE",
"826 763 CURVE SMOOTH",
"840 763 OFFCURVE",
"850 752 OFFCURVE",
"850 731 CURVE SMOOTH",
"850 726 OFFCURVE",
"848 718 OFFCURVE",
"846 711 CURVE SMOOTH",
"806 571 OFFCURVE",
"626 221 OFFCURVE",
"626 11 CURVE SMOOTH",
"626 -118 OFFCURVE",
"706 -177 OFFCURVE",
"803 -177 CURVE SMOOTH",
"914 -177 OFFCURVE",
"1052 -130 OFFCURVE",
"1141 -43 CURVE",
"1082 -19 OFFCURVE",
"1061 33 OFFCURVE",
"1061 101 CURVE SMOOTH",
"1061 293 OFFCURVE",
"1232 612 OFFCURVE",
"1232 796 CURVE SMOOTH",
"1232 920 OFFCURVE",
"1119 967 OFFCURVE",
"997 967 CURVE SMOOTH",
"798 967 OFFCURVE",
"683 864 OFFCURVE",
"545 606 CURVE SMOOTH"
);
},
{
closed = 1;
nodes = (
"451 294 LINE",
"845 294 LINE",
"867 400 LINE",
"473 400 LINE"
);
}
);
width = 1191;
},
{
associatedMasterId = "BE599D47-15C2-4DC8-BE97-05FFE6CA3179";
background = {
paths = (
{
closed = 1;
nodes = (
"399 339 OFFCURVE",
"351 282 OFFCURVE",
"285 282 CURVE SMOOTH",
"242 282 OFFCURVE",
"217 305 OFFCURVE",
"196 374 CURVE",
"48 332 OFFCURVE",
"-28 199 OFFCURVE",
"-28 75 CURVE SMOOTH",
"-28 -56 OFFCURVE",
"59 -118 OFFCURVE",
"160 -118 CURVE SMOOTH",
"237 -118 OFFCURVE",
"315 -82 OFFCURVE",
"392 33 CURVE SMOOTH",
"543 258 OFFCURVE",
"682 600 OFFCURVE",
"768 720 CURVE SMOOTH",
"788 748 OFFCURVE",
"810 763 OFFCURVE",
"826 763 CURVE SMOOTH",
"840 763 OFFCURVE",
"850 752 OFFCURVE",
"850 731 CURVE SMOOTH",
"850 722 OFFCURVE",
"848 718 OFFCURVE",
"846 711 CURVE SMOOTH",
"806 571 OFFCURVE",
"626 211 OFFCURVE",
"626 11 CURVE SMOOTH",
"626 -118 OFFCURVE",
"706 -177 OFFCURVE",
"816 -177 CURVE SMOOTH",
"914 -177 OFFCURVE",
"1052 -130 OFFCURVE",
"1141 -43 CURVE",
"1082 -19 OFFCURVE",
"1061 33 OFFCURVE",
"1061 101 CURVE SMOOTH",
"1061 293 OFFCURVE",
"1232 612 OFFCURVE",
"1232 781 CURVE SMOOTH",
"1232 920 OFFCURVE",
"1119 967 OFFCURVE",
"997 967 CURVE SMOOTH",
"798 967 OFFCURVE",
"694 862 OFFCURVE",
"524 558 CURVE SMOOTH"
);
},
{
closed = 1;
nodes = (
"451 294 LINE",
"845 294 LINE",
"867 400 LINE",
"473 400 LINE"
);
}
);
};
layerId = "45418B2A-6C68-4698-A4FC-38193EDE3AD4";
name = "Regular Italic Mar 23 16, 16:29";
paths = (
{
closed = 1;
nodes = (
"399 339 OFFCURVE",
"351 282 OFFCURVE",
"285 282 CURVE SMOOTH",
"242 282 OFFCURVE",
"217 305 OFFCURVE",
"196 374 CURVE",
"48 332 OFFCURVE",
"-28 199 OFFCURVE",
"-28 75 CURVE SMOOTH",
"-28 -56 OFFCURVE",
"59 -118 OFFCURVE",
"160 -118 CURVE SMOOTH",
"237 -118 OFFCURVE",
"315 -82 OFFCURVE",
"414 66 CURVE SMOOTH",
"543 258 OFFCURVE",
"668 580 OFFCURVE",
"758 707 CURVE SMOOTH",
"788 748 OFFCURVE",
"810 763 OFFCURVE",
"826 763 CURVE SMOOTH",
"840 763 OFFCURVE",
"850 752 OFFCURVE",
"850 731 CURVE SMOOTH",
"850 632 OFFCURVE",
"626 245 OFFCURVE",
"626 18 CURVE SMOOTH",
"626 -118 OFFCURVE",
"706 -177 OFFCURVE",
"816 -177 CURVE SMOOTH",
"914 -177 OFFCURVE",
"1052 -130 OFFCURVE",
"1141 -43 CURVE",
"1082 -19 OFFCURVE",
"1061 33 OFFCURVE",
"1061 101 CURVE SMOOTH",
"1061 293 OFFCURVE",
"1232 612 OFFCURVE",
"1232 781 CURVE SMOOTH",
"1232 920 OFFCURVE",
"1119 967 OFFCURVE",
"997 967 CURVE SMOOTH",
"798 967 OFFCURVE",
"694 862 OFFCURVE",
"524 558 CURVE SMOOTH"
);
},
{
closed = 1;
nodes = (
"451 294 LINE",
"845 294 LINE",
"867 400 LINE",
"473 400 LINE"
);
}
);
width = 1191;
}
);
unicode = 0041;
},
{
glyphname = E;
lastChange = "2016-03-24 01:12:47 +0000";
layers = (
{
background = {
paths = (
{
closed = 1;
nodes = (
"9 -40 OFFCURVE",
"174 -84 OFFCURVE",
"454 -84 CURVE SMOOTH",
"695 -84 OFFCURVE",
"826 -63 OFFCURVE",
"826 144 CURVE SMOOTH",
"826 178 OFFCURVE",
"819 212 OFFCURVE",
"800 241 CURVE",
"762 203 OFFCURVE",
"626 162 OFFCURVE",
"504 162 CURVE SMOOTH",
"447 162 OFFCURVE",
"401 168 OFFCURVE",
"372 178 CURVE SMOOTH",
"354 184 OFFCURVE",
"348 196 OFFCURVE",
"348 209 CURVE SMOOTH",
"348 213 OFFCURVE",
"348 217 OFFCURVE",
"349 221 CURVE SMOOTH",
"385.027 383.462 OFFCURVE",
"479.275 549.621 OFFCURVE",
"535.945 687.752 CURVE",
"553.769 686.58 OFFCURVE",
"573.086 686 OFFCURVE",
"594 686 CURVE SMOOTH",
"836 686 OFFCURVE",
"981 717 OFFCURVE",
"981 886 CURVE SMOOTH",
"981 920 OFFCURVE",
"979 954 OFFCURVE",
"962 985 CURVE",
"860 952 OFFCURVE",
"778 942 OFFCURVE",
"705 942 CURVE SMOOTH",
"605 942 OFFCURVE",
"521 970 OFFCURVE",
"421 967 CURVE SMOOTH",
"238 961 OFFCURVE",
"134 952 OFFCURVE",
"91 748 CURVE",
"99 748 OFFCURVE",
"106 749 OFFCURVE",
"113 749 CURVE SMOOTH",
"151 749 OFFCURVE",
"179 740 OFFCURVE",
"179 705 CURVE SMOOTH",
"179 506 OFFCURVE",
"9 283 OFFCURVE",
"9 110 CURVE SMOOTH"
);
},
{
closed = 1;
nodes = (
"230 340 OFFCURVE",
"280 333 OFFCURVE",
"454 333 CURVE SMOOTH",
"669 333 OFFCURVE",
"798 352 OFFCURVE",
"798 502 CURVE SMOOTH",
"798 532 OFFCURVE",
"796 562 OFFCURVE",
"781 590 CURVE",
"674 567 OFFCURVE",
"587 552 OFFCURVE",
"346 552 CURVE SMOOTH",
"262 552 OFFCURVE",
"230 511 OFFCURVE",
"230 439 CURVE SMOOTH"
);
}
);
};
layerId = "BE599D47-15C2-4DC8-BE97-05FFE6CA3179";
paths = (
{
closed = 1;
nodes = (
"225 340 OFFCURVE",
"275 333 OFFCURVE",
"430 333 CURVE SMOOTH",
"668 333 OFFCURVE",
"796 351 OFFCURVE",
"801 486 CURVE SMOOTH",
"802 515 OFFCURVE",
"798 543 OFFCURVE",
"784 577 CURVE",
"676 554 OFFCURVE",
"591 539 OFFCURVE",
"350 539 CURVE SMOOTH",
"265 539 OFFCURVE",
"232 503 OFFCURVE",
"229 435 CURVE SMOOTH"
);
},
{
closed = 1;
nodes = (
"-6 -36 OFFCURVE",
"141 -79 OFFCURVE",
"424 -79 CURVE SMOOTH",
"628 -79 OFFCURVE",
"796 -57 OFFCURVE",
"796 147 CURVE SMOOTH",
"796 179 OFFCURVE",
"792 212 OFFCURVE",
"774 241 CURVE",
"734 205 OFFCURVE",
"608 166 OFFCURVE",
"487 166 CURVE SMOOTH",
"437 166 OFFCURVE",
"391 172 OFFCURVE",
"368 180 CURVE SMOOTH",
"345 188 OFFCURVE",
"339 200 OFFCURVE",
"339 213 CURVE SMOOTH",
"339 277 OFFCURVE",
"494 595 OFFCURVE",
"544 688 CURVE",
"562 687 OFFCURVE",
"581 686 OFFCURVE",
"602 686 CURVE SMOOTH",
"844 686 OFFCURVE",
"1003 719 OFFCURVE",
"1003 880 CURVE SMOOTH",
"1003 914 OFFCURVE",
"996 949 OFFCURVE",
"981 985 CURVE",
"877 952 OFFCURVE",
"785 942 OFFCURVE",
"711 942 CURVE SMOOTH",
"596 942 OFFCURVE",
"462 967 OFFCURVE",
"331 967 CURVE SMOOTH",
"232 967 OFFCURVE",
"150 952 OFFCURVE",
"101 748 CURVE",
"170 748 OFFCURVE",
"187 738 OFFCURVE",
"187 684 CURVE SMOOTH",
"187 506 OFFCURVE",
"0 262 OFFCURVE",
"-3 105 CURVE SMOOTH"
);
}
);
width = 861;
},
{
associatedMasterId = "BE599D47-15C2-4DC8-BE97-05FFE6CA3179";
background = {
paths = (
{
closed = 1;
nodes = (
"203 -78 OFFCURVE",
"287 -38 OFFCURVE",
"344 10 CURVE",
"337 33 OFFCURVE",
"333 57 OFFCURVE",
"333 90 CURVE SMOOTH",
"333 366 OFFCURVE",
"590 699 OFFCURVE",
"581 870 CURVE SMOOTH",
"577 948 OFFCURVE",
"526 967 OFFCURVE",
"451 967 CURVE SMOOTH",
"360 967 OFFCURVE",
"258 939 OFFCURVE",
"165 882 CURVE",
"189 838 OFFCURVE",
"194 793 OFFCURVE",
"194 755 CURVE SMOOTH",
"194 482 OFFCURVE",
"-8 286 OFFCURVE",
"-10 62 CURVE SMOOTH",
"-11 -29 OFFCURVE",
"48 -78 OFFCURVE",
"128 -78 CURVE SMOOTH"
);
},
{
closed = 1;
nodes = (
"554 -80 OFFCURVE",
"775 -19 OFFCURVE",
"775 105 CURVE SMOOTH",
"775 147 OFFCURVE",
"761 192 OFFCURVE",
"750 211 CURVE",
"698 159 OFFCURVE",
"559 163 OFFCURVE",
"460 163 CURVE SMOOTH",
"388 163 OFFCURVE",
"332 175 OFFCURVE",
"332 252 CURVE",
"6 171 LINE",
"6 -4 OFFCURVE",
"152 -80 OFFCURVE",
"350 -80 CURVE SMOOTH"
);
}
);
};
layerId = "62449B94-6233-40A0-A075-5FB10F0E59DB";
name = "Regular Italic Mar 23 16, 21:36";
paths = (
{
closed = 1;
nodes = (
"7 -39 OFFCURVE",
"172 -84 OFFCURVE",
"454 -84 CURVE SMOOTH",
"695 -84 OFFCURVE",
"826 -63 OFFCURVE",
"826 144 CURVE SMOOTH",
"826 178 OFFCURVE",
"819 212 OFFCURVE",
"800 241 CURVE",
"762 203 OFFCURVE",
"626 162 OFFCURVE",
"504 162 CURVE SMOOTH",
"447 162 OFFCURVE",
"401 168 OFFCURVE",
"372 178 CURVE SMOOTH",
"349 186 OFFCURVE",
"345 203 OFFCURVE",
"349 221 CURVE SMOOTH",
"385.027 383.462 OFFCURVE",
"479.275 549.621 OFFCURVE",
"535.945 687.752 CURVE",
"553.769 686.58 OFFCURVE",
"573.086 686 OFFCURVE",
"594 686 CURVE SMOOTH",
"836 686 OFFCURVE",
"981 707 OFFCURVE",
"981 876 CURVE SMOOTH",
"981 910 OFFCURVE",
"979 944 OFFCURVE",
"962 975 CURVE",
"886 953 OFFCURVE",
"843 946 OFFCURVE",
"721 946 CURVE SMOOTH",
"664.88 946 OFFCURVE",
"533 966 OFFCURVE",
"455 967 CURVE SMOOTH",
"451 967 LINE SMOOTH",
"360 967 OFFCURVE",
"258 939 OFFCURVE",
"165 882 CURVE",
"189 838 OFFCURVE",
"194 793 OFFCURVE",
"194 755 CURVE SMOOTH",
"194 482 OFFCURVE",
"11 286 OFFCURVE",
"9 163 CURVE SMOOTH"
);
},
{
closed = 1;
nodes = (
"228 340 OFFCURVE",
"276 333 OFFCURVE",
"454 333 CURVE SMOOTH",
"669 333 OFFCURVE",
"798 352 OFFCURVE",
"798 502 CURVE SMOOTH",
"798 532 OFFCURVE",
"796 562 OFFCURVE",
"781 590 CURVE",
"674 567 OFFCURVE",
"587 552 OFFCURVE",
"346 552 CURVE SMOOTH",
"264 552 OFFCURVE",
"231 513 OFFCURVE",
"230 445 CURVE SMOOTH"
);
}
);
width = 901;
},
{
associatedMasterId = "BE599D47-15C2-4DC8-BE97-05FFE6CA3179";
background = {
paths = (
{
closed = 1;
nodes = (
"7 -39 OFFCURVE",
"172 -84 OFFCURVE",
"454 -84 CURVE SMOOTH",
"695 -84 OFFCURVE",
"826 -63 OFFCURVE",
"826 144 CURVE SMOOTH",
"826 178 OFFCURVE",
"819 212 OFFCURVE",
"800 241 CURVE",
"762 203 OFFCURVE",
"626 162 OFFCURVE",
"504 162 CURVE SMOOTH",
"447 162 OFFCURVE",
"401 168 OFFCURVE",
"372 178 CURVE SMOOTH",
"349 186 OFFCURVE",
"345 203 OFFCURVE",
"349 221 CURVE SMOOTH",
"385.027 383.462 OFFCURVE",
"479.275 549.621 OFFCURVE",
"535.945 687.752 CURVE",
"553.769 686.58 OFFCURVE",
"573.086 686 OFFCURVE",
"594 686 CURVE SMOOTH",
"836 686 OFFCURVE",
"981 707 OFFCURVE",
"981 876 CURVE SMOOTH",
"981 910 OFFCURVE",
"979 944 OFFCURVE",
"962 975 CURVE",
"886 953 OFFCURVE",
"843 946 OFFCURVE",
"721 946 CURVE SMOOTH",
"664.88 946 OFFCURVE",
"533 966 OFFCURVE",
"455 967 CURVE SMOOTH",
"451 967 LINE SMOOTH",
"360 967 OFFCURVE",
"258 939 OFFCURVE",
"165 882 CURVE",
"189 838 OFFCURVE",
"194 793 OFFCURVE",
"194 755 CURVE SMOOTH",
"194 482 OFFCURVE",
"11 286 OFFCURVE",
"9 163 CURVE SMOOTH"
);
},
{
closed = 1;
nodes = (
"228 340 OFFCURVE",
"276 333 OFFCURVE",
"454 333 CURVE SMOOTH",
"669 333 OFFCURVE",
"798 352 OFFCURVE",
"798 502 CURVE SMOOTH",
"798 532 OFFCURVE",
"796 562 OFFCURVE",
"781 590 CURVE",
"674 567 OFFCURVE",
"587 552 OFFCURVE",
"346 552 CURVE SMOOTH",
"264 552 OFFCURVE",
"231 513 OFFCURVE",
"230 445 CURVE SMOOTH"
);
}
);
};
layerId = "4C8E2084-5746-4CA2-BF8F-39A6E5FC7649";
name = "Regular Italic Mar 23 16, 21:41";
paths = (
{
closed = 1;
nodes = (
"9 -40 OFFCURVE",
"174 -84 OFFCURVE",
"454 -84 CURVE SMOOTH",
"695 -84 OFFCURVE",
"826 -63 OFFCURVE",
"826 144 CURVE SMOOTH",
"826 178 OFFCURVE",
"819 212 OFFCURVE",
"800 241 CURVE",
"762 203 OFFCURVE",
"626 162 OFFCURVE",
"504 162 CURVE SMOOTH",
"447 162 OFFCURVE",
"401 168 OFFCURVE",
"372 178 CURVE SMOOTH",
"354 184 OFFCURVE",
"348 196 OFFCURVE",
"348 209 CURVE SMOOTH",
"348 213 OFFCURVE",
"348 217 OFFCURVE",
"349 221 CURVE SMOOTH",
"385.027 383.462 OFFCURVE",
"479.275 549.621 OFFCURVE",
"535.945 687.752 CURVE",
"553.769 686.58 OFFCURVE",
"573.086 686 OFFCURVE",
"594 686 CURVE SMOOTH",
"836 686 OFFCURVE",
"981 717 OFFCURVE",
"981 886 CURVE SMOOTH",
"981 920 OFFCURVE",
"979 954 OFFCURVE",
"962 985 CURVE",
"860 952 OFFCURVE",
"778 942 OFFCURVE",
"705 942 CURVE SMOOTH",
"605 942 OFFCURVE",
"521 970 OFFCURVE",
"421 967 CURVE SMOOTH",
"238 961 OFFCURVE",
"134 952 OFFCURVE",
"91 748 CURVE",
"99 748 OFFCURVE",
"106 749 OFFCURVE",
"113 749 CURVE SMOOTH",
"151 749 OFFCURVE",
"179 740 OFFCURVE",
"179 705 CURVE SMOOTH",
"179 506 OFFCURVE",
"9 283 OFFCURVE",
"9 110 CURVE SMOOTH"
);
},
{
closed = 1;
nodes = (
"230 340 OFFCURVE",
"280 333 OFFCURVE",
"454 333 CURVE SMOOTH",
"669 333 OFFCURVE",
"798 352 OFFCURVE",
"798 502 CURVE SMOOTH",
"798 532 OFFCURVE",
"796 562 OFFCURVE",
"781 590 CURVE",
"674 567 OFFCURVE",
"587 552 OFFCURVE",
"346 552 CURVE SMOOTH",
"262 552 OFFCURVE",
"230 511 OFFCURVE",
"230 439 CURVE SMOOTH"
);
}
);
width = 901;
}
);
unicode = 0045;
},
{
glyphname = F;
lastChange = "2016-03-24 01:20:57 +0000";
layers = (
{
background = {
paths = (
{
closed = 1;
nodes = (
"225 340 OFFCURVE",
"275 333 OFFCURVE",
"430 333 CURVE SMOOTH",
"668 333 OFFCURVE",
"796 351 OFFCURVE",
"801 486 CURVE SMOOTH",
"802 515 OFFCURVE",
"798 543 OFFCURVE",
"784 577 CURVE",
"676 554 OFFCURVE",
"591 539 OFFCURVE",
"350 539 CURVE SMOOTH",
"265 539 OFFCURVE",
"232 503 OFFCURVE",
"229 435 CURVE SMOOTH"
);
},
{
closed = 1;
nodes = (
"-6 -36 OFFCURVE",
"141 -79 OFFCURVE",
"424 -79 CURVE SMOOTH",
"628 -79 OFFCURVE",
"796 -57 OFFCURVE",
"796 147 CURVE SMOOTH",
"796 179 OFFCURVE",
"792 212 OFFCURVE",
"774 241 CURVE",
"734 205 OFFCURVE",
"608 166 OFFCURVE",
"487 166 CURVE SMOOTH",
"437 166 OFFCURVE",
"391 172 OFFCURVE",
"368 180 CURVE SMOOTH",
"345 188 OFFCURVE",
"339 200 OFFCURVE",
"339 213 CURVE SMOOTH",
"339 277 OFFCURVE",
"494 595 OFFCURVE",
"544 688 CURVE",
"562 687 OFFCURVE",
"581 686 OFFCURVE",
"602 686 CURVE SMOOTH",
"844 686 OFFCURVE",
"1003 719 OFFCURVE",
"1003 880 CURVE SMOOTH",
"1003 914 OFFCURVE",
"996 949 OFFCURVE",
"981 985 CURVE",
"877 952 OFFCURVE",
"785 942 OFFCURVE",
"711 942 CURVE SMOOTH",
"596 942 OFFCURVE",
"462 967 OFFCURVE",
"331 967 CURVE SMOOTH",
"232 967 OFFCURVE",
"150 952 OFFCURVE",
"101 748 CURVE",
"170 748 OFFCURVE",
"187 738 OFFCURVE",
"187 684 CURVE SMOOTH",
"187 506 OFFCURVE",
"0 262 OFFCURVE",
"-3 105 CURVE SMOOTH"
);
}
);
};
layerId = "BE599D47-15C2-4DC8-BE97-05FFE6CA3179";
paths = (
{
closed = 1;
nodes = (
"-10 -29 OFFCURVE",
"48 -78 OFFCURVE",
"141 -78 CURVE SMOOTH",
"221 -78 OFFCURVE",
"299 -41 OFFCURVE",
"355 10 CURVE",
"336 44 OFFCURVE",
"325 80 OFFCURVE",
"325 128 CURVE SMOOTH",
"325 303 OFFCURVE",
"471 570 OFFCURVE",
"542 688 CURVE",
"601 686 LINE SMOOTH",
"818 679 OFFCURVE",
"945 707 OFFCURVE",
"945 869 CURVE SMOOTH",
"945 910 OFFCURVE",
"937 943 OFFCURVE",
"922 975 CURVE",
"857 953 OFFCURVE",
"797 943 OFFCURVE",
"735 943 CURVE SMOOTH",
"641 943 OFFCURVE",
"439 967 OFFCURVE",
"345 967 CURVE SMOOTH",
"203 967 OFFCURVE",
"143 916 OFFCURVE",
"104 751 CURVE",
"170 744 OFFCURVE",
"188 736 OFFCURVE",
"188 683 CURVE SMOOTH",
"188 505 OFFCURVE",
"-10 246 OFFCURVE",
"-10 68 CURVE SMOOTH"
);
},
{
closed = 1;
nodes = (
"229 339 OFFCURVE",
"281 333 OFFCURVE",
"430 333 CURVE SMOOTH",
"627 333 OFFCURVE",
"731 350 OFFCURVE",
"731 492 CURVE SMOOTH",
"731 518 OFFCURVE",
"727 544 OFFCURVE",
"714 575 CURVE",
"606 552 OFFCURVE",
"552 539 OFFCURVE",
"350 539 CURVE SMOOTH",
"261 539 OFFCURVE",
"229 499 OFFCURVE",
"229 425 CURVE SMOOTH"
);
}
);
width = 751;
}
);
unicode = 0046;
},
{
glyphname = H;
lastChange = "2016-03-24 04:10:22 +0000";
layers = (
{
background = {
paths = (
{
closed = 1;
nodes = (
"203 -78 OFFCURVE",
"287 -38 OFFCURVE",
"344 10 CURVE",
"337 33 OFFCURVE",
"333 57 OFFCURVE",
"333 90 CURVE SMOOTH",
"333 366 OFFCURVE",
"590 699 OFFCURVE",
"581 870 CURVE SMOOTH",
"577 948 OFFCURVE",
"526 967 OFFCURVE",
"451 967 CURVE SMOOTH",
"360 967 OFFCURVE",
"258 939 OFFCURVE",
"165 882 CURVE",
"189 838 OFFCURVE",
"194 793 OFFCURVE",
"194 755 CURVE SMOOTH",
"194 482 OFFCURVE",
"-8 286 OFFCURVE",
"-10 62 CURVE SMOOTH",
"-11 -29 OFFCURVE",
"48 -78 OFFCURVE",
"128 -78 CURVE SMOOTH"
);
},
{
closed = 1;
nodes = (
"753 -78 OFFCURVE",
"837 -38 OFFCURVE",
"894 10 CURVE",
"887 33 OFFCURVE",
"883 57 OFFCURVE",
"883 90 CURVE SMOOTH",
"883 366 OFFCURVE",
"1140 699 OFFCURVE",
"1131 870 CURVE SMOOTH",
"1127 948 OFFCURVE",
"1076 967 OFFCURVE",
"1001 967 CURVE SMOOTH",
"910 967 OFFCURVE",
"808 939 OFFCURVE",
"715 882 CURVE",
"739 838 OFFCURVE",
"744 793 OFFCURVE",
"744 755 CURVE SMOOTH",
"744 482 OFFCURVE",
"542 286 OFFCURVE",
"540 62 CURVE SMOOTH",
"539 -29 OFFCURVE",
"598 -78 OFFCURVE",
"678 -78 CURVE SMOOTH"
);
},
{
closed = 1;
nodes = (
"281 370 LINE",
"779 370 LINE",
"807 504 LINE",
"308 504 LINE"
);
}
);
};
layerId = "BE599D47-15C2-4DC8-BE97-05FFE6CA3179";
paths = (
{
closed = 1;
nodes = (
"281 370 LINE",
"779 370 LINE",
"807 504 LINE",
"308 504 LINE"
);
},
{
closed = 1;
nodes = (
"213 -108 OFFCURVE",
"287 -68 OFFCURVE",
"354 -20 CURVE",
"347 3 OFFCURVE",
"343 27 OFFCURVE",
"343 60 CURVE SMOOTH",
"343 347 OFFCURVE",
"600 692 OFFCURVE",
"591 870 CURVE SMOOTH",
"587 948 OFFCURVE",
"536 967 OFFCURVE",
"461 967 CURVE SMOOTH",
"370 967 OFFCURVE",
"261 939 OFFCURVE",
"165 882 CURVE",
"189 838 OFFCURVE",
"194 793 OFFCURVE",
"194 755 CURVE SMOOTH",
"194 470 OFFCURVE",
"-8 266 OFFCURVE",
"-10 32 CURVE SMOOTH",
"-11 -59 OFFCURVE",
"52 -108 OFFCURVE",
"138 -108 CURVE SMOOTH"
);
},
{
closed = 1;
nodes = (
"748 -108 OFFCURVE",
"822 -68 OFFCURVE",
"889 -20 CURVE",
"882 3 OFFCURVE",
"878 27 OFFCURVE",
"878 60 CURVE SMOOTH",
"878 347 OFFCURVE",
"1135 692 OFFCURVE",
"1126 870 CURVE SMOOTH",
"1122 948 OFFCURVE",
"1071 967 OFFCURVE",
"996 967 CURVE SMOOTH",
"905 967 OFFCURVE",
"796 939 OFFCURVE",
"700 882 CURVE",
"724 838 OFFCURVE",
"729 793 OFFCURVE",
"729 755 CURVE SMOOTH",
"729 470 OFFCURVE",
"528 266 OFFCURVE",
"525 32 CURVE SMOOTH",
"524 -59 OFFCURVE",
"587 -108 OFFCURVE",
"673 -108 CURVE SMOOTH"
);
}
);
width = 990;
},
{
associatedMasterId = "BE599D47-15C2-4DC8-BE97-05FFE6CA3179";
layerId = "D1255F81-47FD-4292-A4D5-2E2F74A5A84D";
name = "Regular Italic Mar 24 16, 01:10";
paths = (
{
closed = 1;
nodes = (
"203 -78 OFFCURVE",
"287 -38 OFFCURVE",
"344 10 CURVE",
"337 33 OFFCURVE",
"333 57 OFFCURVE",
"333 90 CURVE SMOOTH",
"333 366 OFFCURVE",
"590 699 OFFCURVE",
"581 870 CURVE SMOOTH",
"577 948 OFFCURVE",
"526 967 OFFCURVE",
"451 967 CURVE SMOOTH",
"360 967 OFFCURVE",
"258 939 OFFCURVE",
"165 882 CURVE",
"189 838 OFFCURVE",
"194 793 OFFCURVE",
"194 755 CURVE SMOOTH",
"194 482 OFFCURVE",
"-8 286 OFFCURVE",
"-10 62 CURVE SMOOTH",
"-11 -29 OFFCURVE",
"48 -78 OFFCURVE",
"128 -78 CURVE SMOOTH"
);
},
{
closed = 1;
nodes = (
"753 -78 OFFCURVE",
"837 -38 OFFCURVE",
"894 10 CURVE",
"887 33 OFFCURVE",
"883 57 OFFCURVE",
"883 90 CURVE SMOOTH",
"883 366 OFFCURVE",
"1140 699 OFFCURVE",
"1131 870 CURVE SMOOTH",
"1127 948 OFFCURVE",
"1076 967 OFFCURVE",
"1001 967 CURVE SMOOTH",
"910 967 OFFCURVE",
"808 939 OFFCURVE",
"715 882 CURVE",
"739 838 OFFCURVE",
"744 793 OFFCURVE",
"744 755 CURVE SMOOTH",
"744 482 OFFCURVE",
"542 286 OFFCURVE",
"540 62 CURVE SMOOTH",
"539 -29 OFFCURVE",
"598 -78 OFFCURVE",
"678 -78 CURVE SMOOTH"
);
},
{
closed = 1;
nodes = (
"281 370 LINE",
"779 370 LINE",
"807 504 LINE",
"308 504 LINE"
);
}
);
width = 990;
}
);
unicode = 0048;
},
{
glyphname = I;
lastChange = "2016-03-24 04:02:02 +0000";
layers = (
{
layerId = "BE599D47-15C2-4DC8-BE97-05FFE6CA3179";
paths = (
{
closed = 1;
nodes = (
"213 -108 OFFCURVE",
"287 -68 OFFCURVE",
"354 -20 CURVE",
"347 3 OFFCURVE",
"343 27 OFFCURVE",
"343 60 CURVE SMOOTH",
"343 347 OFFCURVE",
"600 692 OFFCURVE",
"591 870 CURVE SMOOTH",
"587 948 OFFCURVE",
"536 967 OFFCURVE",
"461 967 CURVE SMOOTH",
"370 967 OFFCURVE",
"261 939 OFFCURVE",
"165 882 CURVE",
"189 838 OFFCURVE",
"194 793 OFFCURVE",
"194 755 CURVE SMOOTH",
"194 470 OFFCURVE",
"-8 266 OFFCURVE",
"-10 32 CURVE SMOOTH",
"-11 -59 OFFCURVE",
"52 -108 OFFCURVE",
"138 -108 CURVE SMOOTH"
);
}
);
width = 450;
},
{
associatedMasterId = "BE599D47-15C2-4DC8-BE97-05FFE6CA3179";
layerId = "5FAE9B01-1040-49BE-AB96-8A465C40B196";
name = "Regular Italic Mar 24 16, 01:01";
paths = (
{
closed = 1;
nodes = (
"203 -78 OFFCURVE",
"287 -38 OFFCURVE",
"344 10 CURVE",
"337 33 OFFCURVE",
"333 57 OFFCURVE",
"333 90 CURVE SMOOTH",
"333 366 OFFCURVE",
"590 699 OFFCURVE",
"581 870 CURVE SMOOTH",
"577 948 OFFCURVE",
"526 967 OFFCURVE",
"451 967 CURVE SMOOTH",
"360 967 OFFCURVE",
"258 939 OFFCURVE",
"165 882 CURVE",
"189 838 OFFCURVE",
"194 793 OFFCURVE",
"194 755 CURVE SMOOTH",
"194 482 OFFCURVE",
"-8 286 OFFCURVE",
"-10 62 CURVE SMOOTH",
"-11 -29 OFFCURVE",
"48 -78 OFFCURVE",
"128 -78 CURVE SMOOTH"
);
}
);
width = 440;
}
);
unicode = 0049;
},
{
glyphname = J;
lastChange = "2016-03-24 05:35:06 +0000";
layers = (
{
background = {
paths = (
{
closed = 1;
nodes = (
"532 -320 OFFCURVE",
"754 508 OFFCURVE",
"754 870 CURVE SMOOTH",
"754 948 OFFCURVE",
"699 967 OFFCURVE",
"624 967 CURVE SMOOTH",
"545 967 OFFCURVE",
"451 939 OFFCURVE",
"368 882 CURVE",
"392 838 OFFCURVE",
"397 793 OFFCURVE",
"397 755 CURVE SMOOTH",
"397 616 OFFCURVE",
"326 183 OFFCURVE",
"185 10 CURVE SMOOTH",
"138 -49 OFFCURVE",
"72 -74 OFFCURVE",
"2 -74 CURVE SMOOTH",
"-18 -74 OFFCURVE",
"-39 -72 OFFCURVE",
"-60 -68 CURVE",
"-66 -89 OFFCURVE",
"-68 -110 OFFCURVE",
"-68 -131 CURVE SMOOTH",
"-68 -229 OFFCURVE",
"-4 -320 OFFCURVE",
"134 -320 CURVE SMOOTH"
);
}
);
};
layerId = "BE599D47-15C2-4DC8-BE97-05FFE6CA3179";
paths = (
{
closed = 1;
nodes = (
"254 -320 OFFCURVE",
"399 -247 OFFCURVE",
"530 10 CURVE SMOOTH",
"636 219 OFFCURVE",
"754 601 OFFCURVE",
"754 807 CURVE SMOOTH",
"754 948 OFFCURVE",
"699 967 OFFCURVE",
"629 967 CURVE SMOOTH",
"545 967 OFFCURVE",
"451 939 OFFCURVE",
"368 882 CURVE",
"392 838 OFFCURVE",
"397 793 OFFCURVE",
"397 755 CURVE SMOOTH",
"397 616 OFFCURVE",
"326 183 OFFCURVE",
"192 18 CURVE SMOOTH",
"138 -49 OFFCURVE",
"72 -74 OFFCURVE",
"2 -74 CURVE SMOOTH",
"-18 -74 OFFCURVE",
"-39 -72 OFFCURVE",
"-60 -68 CURVE",
"-66 -88 OFFCURVE",
"-72 -111 OFFCURVE",
"-72 -138 CURVE SMOOTH",
"-72 -229 OFFCURVE",
"-4 -320 OFFCURVE",
"132 -320 CURVE SMOOTH"
);
}
);
width = 676;
}
);
unicode = 004A;
},
{
glyphname = L;
lastChange = "2016-03-24 06:09:49 +0000";
layers = (
{
background = {
paths = (
{
closed = 1;
nodes = (
"7 -39 OFFCURVE",
"161 -84 OFFCURVE",
"424 -84 CURVE SMOOTH",
"615 -84 OFFCURVE",
"746 -63 OFFCURVE",
"746 144 CURVE SMOOTH",
"746 178 OFFCURVE",
"739 212 OFFCURVE",
"720 241 CURVE",
"679 203 OFFCURVE",
"581 162 OFFCURVE",
"484 162 CURVE SMOOTH",
"436 162 OFFCURVE",
"397 168 OFFCURVE",
"372 178 CURVE SMOOTH",
"349 186 OFFCURVE",
"345 203 OFFCURVE",
"349 221 CURVE SMOOTH",
"402 460 OFFCURVE",
"581 707 OFFCURVE",
"581 861 CURVE SMOOTH",
"581 947 OFFCURVE",
"529 967 OFFCURVE",
"451 967 CURVE SMOOTH",
"360 967 OFFCURVE",
"258 939 OFFCURVE",
"165 882 CURVE",
"189 838 OFFCURVE",
"194 793 OFFCURVE",
"194 755 CURVE SMOOTH",
"194 482 OFFCURVE",
"11 286 OFFCURVE",
"9 163 CURVE SMOOTH"
);
}
);
};
layerId = "BE599D47-15C2-4DC8-BE97-05FFE6CA3179";
paths = (
{
closed = 1;
nodes = (
"7 -39 OFFCURVE",
"161 -84 OFFCURVE",
"424 -84 CURVE SMOOTH",
"597 -84 OFFCURVE",
"716 -63 OFFCURVE",
"716 140 CURVE SMOOTH",
"716 181 OFFCURVE",
"713 228 OFFCURVE",
"694 257 CURVE",
"653 219 OFFCURVE",
"573 182 OFFCURVE",
"488 182 CURVE SMOOTH",
"440 182 OFFCURVE",
"401 188 OFFCURVE",
"376 198 CURVE SMOOTH",
"353 207 OFFCURVE",
"349 223 OFFCURVE",
"353 241 CURVE SMOOTH",
"405 473 OFFCURVE",
"581 712 OFFCURVE",
"581 861 CURVE SMOOTH",
"581 947 OFFCURVE",
"529 967 OFFCURVE",
"451 967 CURVE SMOOTH",
"360 967 OFFCURVE",
"258 939 OFFCURVE",
"165 882 CURVE",
"189 838 OFFCURVE",
"194 793 OFFCURVE",
"194 755 CURVE SMOOTH",
"194 482 OFFCURVE",
"11 286 OFFCURVE",
"9 163 CURVE SMOOTH"
);
}
);
width = 773;
},
{
associatedMasterId = "BE599D47-15C2-4DC8-BE97-05FFE6CA3179";
layerId = "0CBCE923-702A-441B-A9D4-99FFB1224413";
name = "Regular Italic Mar 24 16, 03:09";
paths = (
{
closed = 1;
nodes = (
"7 -39 OFFCURVE",
"161 -84 OFFCURVE",
"424 -84 CURVE SMOOTH",
"615 -84 OFFCURVE",
"746 -63 OFFCURVE",
"746 144 CURVE SMOOTH",
"746 178 OFFCURVE",
"739 212 OFFCURVE",
"720 241 CURVE",
"679 203 OFFCURVE",
"581 162 OFFCURVE",
"484 162 CURVE SMOOTH",
"436 162 OFFCURVE",
"397 168 OFFCURVE",
"372 178 CURVE SMOOTH",
"349 186 OFFCURVE",
"345 203 OFFCURVE",
"349 221 CURVE SMOOTH",
"402 460 OFFCURVE",
"581 707 OFFCURVE",
"581 861 CURVE SMOOTH",
"581 947 OFFCURVE",
"529 967 OFFCURVE",
"451 967 CURVE SMOOTH",
"360 967 OFFCURVE",
"258 939 OFFCURVE",
"165 882 CURVE",
"189 838 OFFCURVE",
"194 793 OFFCURVE",
"194 755 CURVE SMOOTH",
"194 482 OFFCURVE",
"11 286 OFFCURVE",
"9 163 CURVE SMOOTH"
);
}
);
width = 800;
}
);
unicode = 004C;
},
{
glyphname = O;
lastChange = "2016-03-24 05:08:57 +0000";
layers = (
{
background = {
paths = (
{
closed = 1;
nodes = (
"483 160 OFFCURVE",
"472 185 OFFCURVE",
"472 237 CURVE SMOOTH",
"472 413 OFFCURVE",
"601 722 OFFCURVE",
"685 722 CURVE SMOOTH",
"709 722 OFFCURVE",
"715 697 OFFCURVE",
"715 652 CURVE SMOOTH",
"715 460 OFFCURVE",
"590 160 OFFCURVE",
"507 160 CURVE SMOOTH"
);
},
{
closed = 1;
nodes = (
"64 35 OFFCURVE",
"251 -75 OFFCURVE",
"444 -81 CURVE SMOOTH",
"806 -92 OFFCURVE",
"1081 238 OFFCURVE",
"1094 618 CURVE SMOOTH",
"1103 875 OFFCURVE",
"916 967 OFFCURVE",
"740 973 CURVE SMOOTH",
"372 986 OFFCURVE",
"87 671 OFFCURVE",
"74 317 CURVE SMOOTH"
);
}
);
};
layerId = "BE599D47-15C2-4DC8-BE97-05FFE6CA3179";
paths = (
{
closed = 1;
nodes = (
"483 158 OFFCURVE",
"472 183 OFFCURVE",
"472 235 CURVE SMOOTH",
"472 411 OFFCURVE",
"601 720 OFFCURVE",
"685 720 CURVE SMOOTH",
"709 720 OFFCURVE",
"715 695 OFFCURVE",
"715 650 CURVE SMOOTH",
"715 458 OFFCURVE",
"590 158 OFFCURVE",
"507 158 CURVE SMOOTH"
);
},
{
closed = 1;
nodes = (
"63 22 OFFCURVE",
"265 -83 OFFCURVE",
"465 -83 CURVE SMOOTH",
"816 -83 OFFCURVE",
"1081 243 OFFCURVE",
"1094 616 CURVE SMOOTH",
"1103 884 OFFCURVE",
"900 971 OFFCURVE",
"718 971 CURVE SMOOTH",
"361 971 OFFCURVE",
"87 662 OFFCURVE",
"74 315 CURVE SMOOTH"
);
}
);
width = 1062;
},
{
associatedMasterId = "BE599D47-15C2-4DC8-BE97-05FFE6CA3179";
layerId = "99127A64-36F0-4EBD-BD71-E4CCDD784759";
name = "Regular Italic Mar 24 16, 01:55";
paths = (
{
closed = 1;
nodes = (
"13 -4 OFFCURVE",
"159 -80 OFFCURVE",
"340 -80 CURVE SMOOTH",
"630 -80 OFFCURVE",
"832 117 OFFCURVE",
"832 352 CURVE SMOOTH",
"832 551 OFFCURVE",
"686 627 OFFCURVE",
"505 627 CURVE SMOOTH",
"215 627 OFFCURVE",
"13 430 OFFCURVE",
"13 196 CURVE SMOOTH"
);
},
{
closed = 1;
nodes = (
"335 90 OFFCURVE",
"326 108 OFFCURVE",
"326 145 CURVE SMOOTH",
"326 262 OFFCURVE",
"425 470 OFFCURVE",
"495 470 CURVE SMOOTH",
"515 470 OFFCURVE",
"520 453 OFFCURVE",
"520 424 CURVE SMOOTH",
"520 293 OFFCURVE",
"422 90 OFFCURVE",
"355 90 CURVE SMOOTH"
);
}
);
width = 990;
},
{
associatedMasterId = "BE599D47-15C2-4DC8-BE97-05FFE6CA3179";
layerId = "EE8527E5-F617-4280-93FC-9474E75AD7BC";
name = "Regular Italic Mar 24 16, 02:03";
paths = (
{
closed = 1;
nodes = (
"483 170 OFFCURVE",
"472 195 OFFCURVE",
"472 247 CURVE SMOOTH",
"472 423 OFFCURVE",
"601 732 OFFCURVE",
"685 732 CURVE SMOOTH",
"709 732 OFFCURVE",
"715 707 OFFCURVE",
"715 662 CURVE SMOOTH",
"715 470 OFFCURVE",
"590 170 OFFCURVE",
"507 170 CURVE SMOOTH"
);
},
{
closed = 1;
nodes = (
"79 32 OFFCURVE",
"275 -76 OFFCURVE",
"482 -76 CURVE SMOOTH",
"835 -76 OFFCURVE",
"1085 237 OFFCURVE",
"1085 588 CURVE SMOOTH",
"1085 890 OFFCURVE",
"901 988 OFFCURVE",
"702 988 CURVE SMOOTH",
"350 988 OFFCURVE",
"79 675 OFFCURVE",
"79 329 CURVE SMOOTH"
);
}
);
width = 1062;
},
{
associatedMasterId = "BE599D47-15C2-4DC8-BE97-05FFE6CA3179";
background = {
paths = (
{
closed = 1;
nodes = (
"483 170 OFFCURVE",
"472 195 OFFCURVE",
"472 247 CURVE SMOOTH",
"472 423 OFFCURVE",
"601 732 OFFCURVE",
"685 732 CURVE SMOOTH",
"709 732 OFFCURVE",
"715 707 OFFCURVE",
"715 662 CURVE SMOOTH",
"715 470 OFFCURVE",
"590 170 OFFCURVE",
"507 170 CURVE SMOOTH"
);
},
{
closed = 1;
nodes = (
"70 32 OFFCURVE",
"265 -76 OFFCURVE",
"462 -76 CURVE SMOOTH",
"827 -76 OFFCURVE",
"1050 239 OFFCURVE",
"1085 588 CURVE SMOOTH",
"1115 890 OFFCURVE",
"911 988 OFFCURVE",
"722 988 CURVE SMOOTH",
"359 988 OFFCURVE",
"89 675 OFFCURVE",
"79 329 CURVE SMOOTH"
);
}
);
};
layerId = "65C6D169-50D5-47C4-BE53-1FA551490203";
name = "Regular Italic Mar 24 16, 02:05";
paths = (
{
closed = 1;
nodes = (
"483 170 OFFCURVE",
"472 195 OFFCURVE",
"472 247 CURVE SMOOTH",
"472 423 OFFCURVE",
"601 732 OFFCURVE",
"685 732 CURVE SMOOTH",
"709 732 OFFCURVE",
"715 707 OFFCURVE",
"715 662 CURVE SMOOTH",
"715 470 OFFCURVE",
"590 170 OFFCURVE",
"507 170 CURVE SMOOTH"
);
},
{
closed = 1;
nodes = (
"79 27 OFFCURVE",
"269 -76 OFFCURVE",
"462 -76 CURVE SMOOTH",
"825 -76 OFFCURVE",
"1088 265 OFFCURVE",
"1088 646 CURVE SMOOTH",
"1088 903 OFFCURVE",
"898 988 OFFCURVE",
"722 988 CURVE SMOOTH",
"353 988 OFFCURVE",
"79 664 OFFCURVE",
"79 309 CURVE SMOOTH"
);
}
);
width = 1062;
}
);
unicode = 004F;
},
{
glyphname = Q;
lastChange = "2016-03-24 17:05:33 +0000";
layers = (
{
layerId = "BE599D47-15C2-4DC8-BE97-05FFE6CA3179";
paths = (
{
closed = 1;
nodes = (
"575 -339 OFFCURVE",
"736 -339 CURVE SMOOTH",
"838 -339 OFFCURVE",
"909 -286 OFFCURVE",
"965 -130 CURVE",
"935 -136 OFFCURVE",
"907 -139 OFFCURVE",
"880 -139 CURVE SMOOTH",
"706 -139 OFFCURVE",
"491 -50 OFFCURVE",
"416 -50 CURVE SMOOTH",
"271 -50 OFFCURVE",
"172 -99 OFFCURVE",
"172 -219 CURVE",
"183 -218 OFFCURVE",
"194 -218 OFFCURVE",
"205 -218 CURVE SMOOTH",
"378 -218 OFFCURVE"
);
},
{
closed = 1;
nodes = (
"483 158 OFFCURVE",
"472 183 OFFCURVE",
"472 235 CURVE SMOOTH",
"472 411 OFFCURVE",
"601 720 OFFCURVE",
"685 720 CURVE SMOOTH",
"709 720 OFFCURVE",
"715 695 OFFCURVE",
"715 650 CURVE SMOOTH",
"715 458 OFFCURVE",
"590 158 OFFCURVE",
"507 158 CURVE SMOOTH"
);
},
{
closed = 1;
nodes = (
"63 22 OFFCURVE",
"265 -83 OFFCURVE",
"465 -83 CURVE SMOOTH",
"816 -83 OFFCURVE",
"1081 243 OFFCURVE",
"1094 616 CURVE SMOOTH",
"1103 884 OFFCURVE",
"900 971 OFFCURVE",
"718 971 CURVE SMOOTH",
"361 971 OFFCURVE",
"87 662 OFFCURVE",
"74 315 CURVE SMOOTH"
);
}
);
width = 1062;
}
);
unicode = 0051;
},
{
glyphname = T;
lastChange = "2016-03-24 06:13:37 +0000";
layers = (
{
layerId = "BE599D47-15C2-4DC8-BE97-05FFE6CA3179";
paths = (
{
closed = 1;
nodes = (
"140 -29 OFFCURVE",
"198 -78 OFFCURVE",
"291 -78 CURVE SMOOTH",
"371 -78 OFFCURVE",
"449 -41 OFFCURVE",
"505 10 CURVE",
"486 44 OFFCURVE",
"475 80 OFFCURVE",
"475 128 CURVE SMOOTH",
"475 252 OFFCURVE",
"630 657 OFFCURVE",
"696 764 CURVE",
"627 690 LINE",
"731 686 LINE SMOOTH",
"866 679 OFFCURVE",
"945 707 OFFCURVE",
"945 869 CURVE SMOOTH",
"945 910 OFFCURVE",
"937 943 OFFCURVE",
"922 975 CURVE",
"857 953 OFFCURVE",
"797 943 OFFCURVE",
"735 943 CURVE SMOOTH",
"639 943 OFFCURVE",
"431 967 OFFCURVE",
"335 967 CURVE SMOOTH",
"203 967 OFFCURVE",
"130 883 OFFCURVE",
"81 687 CURVE",
"158 700 OFFCURVE",
"228 725 OFFCURVE",
"431 699 CURVE",
"351 777 LINE",
"350 596 OFFCURVE",
"140 257 OFFCURVE",
"140 68 CURVE SMOOTH"
);
}
);
width = 751;
}
);
unicode = 0054;
},
{
glyphname = a;
lastChange = "2016-03-24 06:19:28 +0000";
layers = (
{
background = {
paths = (
{
closed = 1;
nodes = (
"678 -78 OFFCURVE",
"761 -38 OFFCURVE",
"818 10 CURVE",
"811 33 OFFCURVE",
"807 57 OFFCURVE",
"807 85 CURVE SMOOTH",
"807 255 OFFCURVE",
"938 486 OFFCURVE",
"938 561 CURVE",
"938 614 OFFCURVE",
"872 627 OFFCURVE",
"800 627 CURVE SMOOTH",
"724 627 OFFCURVE",
"657 612 OFFCURVE",
"588 582 CURVE",
"597 557 OFFCURVE",
"602 532 OFFCURVE",
"602 505 CURVE SMOOTH",
"602 344 OFFCURVE",
"456 211 OFFCURVE",
"456 59 CURVE SMOOTH",
"456 -27 OFFCURVE",
"518 -78 OFFCURVE",
"599 -78 CURVE SMOOTH"
);
},
{
closed = 1;
nodes = (
"686 -77 OFFCURVE",
"770 -45 OFFCURVE",
"839 15 CURVE",
"814 44 OFFCURVE",
"807 64 OFFCURVE",
"807 95 CURVE SMOOTH",
"807 246 OFFCURVE",
"921 406 OFFCURVE",
"921 505 CURVE SMOOTH",
"921 576 OFFCURVE",
"851 628 OFFCURVE",
"764 628 CURVE SMOOTH",
"583 628 OFFCURVE",
"362 379 OFFCURVE",
"269 244 CURVE",
"354 84 LINE",
"354 197 OFFCURVE",
"432 350 OFFCURVE",
"483 350 CURVE SMOOTH",
"514 350 OFFCURVE",
"521 330 OFFCURVE",
"521 306 CURVE SMOOTH",
"521 219 OFFCURVE",
"452 113 OFFCURVE",
"452 22 CURVE SMOOTH",
"452 -32 OFFCURVE",
"503 -77 OFFCURVE",
"602 -77 CURVE SMOOTH"
);
},
{
closed = 1;
nodes = (
"225 -78 OFFCURVE",
"308 -38 OFFCURVE",
"365 10 CURVE",
"358 33 OFFCURVE",
"354 57 OFFCURVE",
"354 85 CURVE SMOOTH",
"354 255 OFFCURVE",
"485 486 OFFCURVE",
"485 561 CURVE SMOOTH",
"485 614 OFFCURVE",
"419 627 OFFCURVE",
"347 627 CURVE SMOOTH",
"271 627 OFFCURVE",
"204 612 OFFCURVE",
"135 582 CURVE",
"144 557 OFFCURVE",
"149 532 OFFCURVE",
"149 505 CURVE SMOOTH",
"149 344 OFFCURVE",
"3 211 OFFCURVE",
"3 59 CURVE SMOOTH",
"3 -27 OFFCURVE",
"65 -78 OFFCURVE",
"146 -78 CURVE SMOOTH"
);
}
);
};
layerId = "BE599D47-15C2-4DC8-BE97-05FFE6CA3179";
paths = (
{
closed = 1;
nodes = (
"343 173 OFFCURVE",
"335 182 OFFCURVE",
"335 210 CURVE SMOOTH",
"335 321 OFFCURVE",
"460 496 OFFCURVE",
"535 496 CURVE SMOOTH",
"552 496 OFFCURVE",
"560 487 OFFCURVE",
"560 464 CURVE SMOOTH",
"560 369 OFFCURVE",
"422 173 OFFCURVE",
"357 173 CURVE SMOOTH"
);
},
{
closed = 1;
nodes = (
"917 610 OFFCURVE",
"911 616 OFFCURVE",
"905 618 CURVE",
"856 601 OFFCURVE",
"805 590 OFFCURVE",
"753 590 CURVE SMOOTH",
"660 590 OFFCURVE",
"597 626 OFFCURVE",
"500 626 CURVE SMOOTH",
"231 626 OFFCURVE",
"-1 355 OFFCURVE",
"-1 126 CURVE SMOOTH",
"-1 8 OFFCURVE",
"59 -71 OFFCURVE",
"173 -71 CURVE SMOOTH",
"288 -71 OFFCURVE",
"396 9 OFFCURVE",
"450 116 CURVE",
"454 114 LINE",
"441 70 OFFCURVE",
"435 35 OFFCURVE",
"435 8 CURVE SMOOTH",
"435 -60 OFFCURVE",
"476 -78 OFFCURVE",
"546 -78 CURVE SMOOTH",
"646 -78 OFFCURVE",
"730 -42 OFFCURVE",
"791 18 CURVE",
"768 32 OFFCURVE",
"751 62 OFFCURVE",
"751 123 CURVE SMOOTH",
"751 283 OFFCURVE",
"871 510 OFFCURVE",
"919 605 CURVE"
);
}
);
width = 859;
},
{
associatedMasterId = "BE599D47-15C2-4DC8-BE97-05FFE6CA3179";
background = {
paths = (
{
closed = 1;
nodes = (
"690 -78 OFFCURVE",
"773 -38 OFFCURVE",
"830 10 CURVE",
"823 33 OFFCURVE",
"819 57 OFFCURVE",
"819 85 CURVE SMOOTH",
"819 255 OFFCURVE",
"950 486 OFFCURVE",
"950 561 CURVE",
"950 614 OFFCURVE",
"884 627 OFFCURVE",
"812 627 CURVE SMOOTH",
"736 627 OFFCURVE",
"669 612 OFFCURVE",
"600 582 CURVE",
"609 557 OFFCURVE",
"614 532 OFFCURVE",
"614 505 CURVE SMOOTH",
"614 344 OFFCURVE",
"468 211 OFFCURVE",
"468 59 CURVE SMOOTH",
"468 -27 OFFCURVE",
"530 -78 OFFCURVE",
"611 -78 CURVE SMOOTH"
);
},
{
closed = 1;
nodes = (
"698 -77 OFFCURVE",
"782 -45 OFFCURVE",
"851 15 CURVE",
"826 44 OFFCURVE",
"819 64 OFFCURVE",
"819 95 CURVE SMOOTH",
"819 246 OFFCURVE",
"933 406 OFFCURVE",
"933 505 CURVE SMOOTH",
"933 576 OFFCURVE",
"863 628 OFFCURVE",
"776 628 CURVE SMOOTH",
"595 628 OFFCURVE",
"374 379 OFFCURVE",
"281 244 CURVE",
"366 84 LINE",
"366 197 OFFCURVE",
"444 350 OFFCURVE",
"495 350 CURVE SMOOTH",
"526 350 OFFCURVE",
"533 330 OFFCURVE",
"533 306 CURVE SMOOTH",
"533 219 OFFCURVE",
"464 113 OFFCURVE",
"464 22 CURVE SMOOTH",
"464 -32 OFFCURVE",
"515 -77 OFFCURVE",
"614 -77 CURVE SMOOTH"
);
},
{
closed = 1;
nodes = (
"237 -78 OFFCURVE",
"320 -38 OFFCURVE",
"377 10 CURVE",
"370 33 OFFCURVE",
"366 57 OFFCURVE",
"366 85 CURVE SMOOTH",
"366 255 OFFCURVE",
"497 486 OFFCURVE",
"497 561 CURVE SMOOTH",
"497 614 OFFCURVE",
"431 627 OFFCURVE",
"359 627 CURVE SMOOTH",
"283 627 OFFCURVE",
"216 612 OFFCURVE",
"147 582 CURVE",
"156 557 OFFCURVE",
"161 532 OFFCURVE",
"161 505 CURVE SMOOTH",
"161 344 OFFCURVE",
"15 211 OFFCURVE",
"15 59 CURVE SMOOTH",
"15 -27 OFFCURVE",
"77 -78 OFFCURVE",
"158 -78 CURVE SMOOTH"
);
}
);
};
layerId = "FCB1EC7B-694C-43FA-B1BE-5872646801BD";
name = "Regular Italic Mar 19 16, 22:46";
paths = (
{
closed = 1;
nodes = (
"350 173 OFFCURVE",
"342 182 OFFCURVE",
"342 210 CURVE SMOOTH",
"342 321 OFFCURVE",
"467 496 OFFCURVE",
"542 496 CURVE SMOOTH",
"559 496 OFFCURVE",
"567 487 OFFCURVE",
"567 464 CURVE SMOOTH",
"567 369 OFFCURVE",
"429 173 OFFCURVE",
"364 173 CURVE SMOOTH"
);
},
{
closed = 1;
nodes = (
"927 623 LINE",
"873 603 OFFCURVE",
"817 590 OFFCURVE",
"760 590 CURVE SMOOTH",
"667 590 OFFCURVE",
"604 626 OFFCURVE",
"507 626 CURVE SMOOTH",
"238 626 OFFCURVE",
"6 355 OFFCURVE",
"6 126 CURVE SMOOTH",
"6 8 OFFCURVE",
"66 -71 OFFCURVE",
"180 -71 CURVE SMOOTH",
"295 -71 OFFCURVE",
"403 9 OFFCURVE",
"457 116 CURVE",
"461 114 LINE",
"448 70 OFFCURVE",
"442 35 OFFCURVE",
"442 8 CURVE SMOOTH",
"442 -60 OFFCURVE",
"483 -78 OFFCURVE",
"553 -78 CURVE SMOOTH",
"653 -78 OFFCURVE",
"737 -42 OFFCURVE",
"798 18 CURVE",
"775 32 OFFCURVE",
"758 62 OFFCURVE",
"758 123 CURVE SMOOTH",
"758 292 OFFCURVE",
"892 536 OFFCURVE",
"933 620 CURVE"
);
}
);
width = 884;
}
);
unicode = 0061;
},
{
glyphname = b;
lastChange = "2016-03-24 03:54:30 +0000";
layers = (
{
background = {
paths = (
{
closed = 1;
nodes = (
"635 -78 OFFCURVE",
"867 193 OFFCURVE",
"867 422 CURVE SMOOTH",
"867 540 OFFCURVE",
"807 619 OFFCURVE",
"693 619 CURVE SMOOTH",
"578 619 OFFCURVE",
"470 539 OFFCURVE",
"416 432 CURVE",
"412 434 LINE",
"425 478 OFFCURVE",
"569 695 OFFCURVE",
"569 841 CURVE SMOOTH",
"569 932 OFFCURVE",
"511 964 OFFCURVE",
"424 964 CURVE SMOOTH",
"343 964 OFFCURVE",
"241 936 OFFCURVE",
"156 882 CURVE",
"170 854 OFFCURVE",
"185 811 OFFCURVE",
"185 744 CURVE SMOOTH",
"185 526 OFFCURVE",
"24 299 OFFCURVE",
"24 125 CURVE SMOOTH",
"24 -37 OFFCURVE",
"162 -78 OFFCURVE",
"293 -78 CURVE SMOOTH"
);
},
{
closed = 1;
nodes = (
"314 52 OFFCURVE",
"306 61 OFFCURVE",
"306 84 CURVE SMOOTH",
"306 179 OFFCURVE",
"444 375 OFFCURVE",
"509 375 CURVE SMOOTH",
"523 375 OFFCURVE",
"531 366 OFFCURVE",
"531 338 CURVE SMOOTH",
"531 227 OFFCURVE",
"406 52 OFFCURVE",
"331 52 CURVE SMOOTH"
);
}
);
};
layerId = "BE599D47-15C2-4DC8-BE97-05FFE6CA3179";
paths = (
{
closed = 1;
nodes = (
"635 -78 OFFCURVE",
"867 193 OFFCURVE",
"867 422 CURVE SMOOTH",
"867 540 OFFCURVE",
"807 619 OFFCURVE",
"693 619 CURVE SMOOTH",
"573 619 OFFCURVE",
"460 555 OFFCURVE",
"404 470 CURVE",
"400 472 LINE",
"413 516 OFFCURVE",
"569 709 OFFCURVE",
"569 841 CURVE SMOOTH",
"569 932 OFFCURVE",
"511 964 OFFCURVE",
"424 964 CURVE SMOOTH",
"343 964 OFFCURVE",
"241 936 OFFCURVE",
"156 882 CURVE",
"170 854 OFFCURVE",
"185 811 OFFCURVE",
"185 744 CURVE SMOOTH",
"185 526 OFFCURVE",
"24 299 OFFCURVE",
"24 125 CURVE SMOOTH",
"24 -37 OFFCURVE",
"162 -78 OFFCURVE",
"293 -78 CURVE SMOOTH"
);
},
{
closed = 1;
nodes = (
"338 111 OFFCURVE",
"330 120 OFFCURVE",
"330 143 CURVE SMOOTH",
"330 238 OFFCURVE",
"471 435 OFFCURVE",
"538 435 CURVE SMOOTH",
"552 435 OFFCURVE",
"560 426 OFFCURVE",
"560 398 CURVE SMOOTH",
"560 287 OFFCURVE",
"433 111 OFFCURVE",
"355 111 CURVE SMOOTH"
);
}
);
width = 855;
},
{
associatedMasterId = "BE599D47-15C2-4DC8-BE97-05FFE6CA3179";
background = {
paths = (
{
closed = 1;
nodes = (
"525 375 OFFCURVE",
"533 366 OFFCURVE",
"533 338 CURVE SMOOTH",
"533 227 OFFCURVE",
"408 52 OFFCURVE",
"333 52 CURVE SMOOTH",
"316 52 OFFCURVE",
"308 61 OFFCURVE",
"308 84 CURVE SMOOTH",
"308 179 OFFCURVE",
"446 375 OFFCURVE",
"511 375 CURVE SMOOTH"
);
},
{
closed = 1;
nodes = (
"-49 -62 OFFCURVE",
"-43 -68 OFFCURVE",
"-37 -70 CURVE",
"12 -53 OFFCURVE",
"63 -42 OFFCURVE",
"115 -42 CURVE SMOOTH",
"208 -42 OFFCURVE",
"271 -78 OFFCURVE",
"368 -78 CURVE SMOOTH",
"637 -78 OFFCURVE",
"869 193 OFFCURVE",
"869 422 CURVE SMOOTH",
"869 540 OFFCURVE",
"809 619 OFFCURVE",
"695 619 CURVE SMOOTH",
"580 619 OFFCURVE",
"472 539 OFFCURVE",
"418 432 CURVE",
"414 434 LINE",
"427 478 OFFCURVE",
"433 513 OFFCURVE",
"433 540 CURVE SMOOTH",
"433 608 OFFCURVE",
"392 626 OFFCURVE",
"322 626 CURVE SMOOTH",
"222 626 OFFCURVE",
"138 590 OFFCURVE",
"77 530 CURVE",
"100 516 OFFCURVE",
"117 486 OFFCURVE",
"117 425 CURVE SMOOTH",
"117 265 OFFCURVE",
"-3 38 OFFCURVE",
"-51 -57 CURVE"
);
},
{
closed = 1;
nodes = (
"196 -78 OFFCURVE",
"280 -38 OFFCURVE",
"337 10 CURVE",
"330 33 OFFCURVE",
"326 57 OFFCURVE",
"326 90 CURVE SMOOTH",
"326 366 OFFCURVE",
"583 699 OFFCURVE",
"574 870 CURVE SMOOTH",
"570 948 OFFCURVE",
"519 967 OFFCURVE",
"444 967 CURVE SMOOTH",
"353 967 OFFCURVE",
"251 939 OFFCURVE",
"158 882 CURVE",
"182 838 OFFCURVE",
"187 793 OFFCURVE",
"187 755 CURVE SMOOTH",
"187 482 OFFCURVE",
"-15 286 OFFCURVE",
"-17 62 CURVE SMOOTH",
"-18 -29 OFFCURVE",
"41 -78 OFFCURVE",
"121 -78 CURVE SMOOTH"
);
}
);
};
layerId = "BB70D3BB-DC7C-4243-8F22-54426389B3DE";
name = "Regular Italic Mar 20 16, 10:18";
paths = (
{
closed = 1;
nodes = (
"635 -78 OFFCURVE",
"867 193 OFFCURVE",
"867 422 CURVE SMOOTH",
"867 540 OFFCURVE",
"807 619 OFFCURVE",
"693 619 CURVE SMOOTH",
"578 619 OFFCURVE",
"470 539 OFFCURVE",
"416 432 CURVE",
"412 434 LINE",
"425 478 OFFCURVE",
"569 695 OFFCURVE",
"569 841 CURVE SMOOTH",
"569 932 OFFCURVE",
"511 964 OFFCURVE",
"424 964 CURVE SMOOTH",
"343 964 OFFCURVE",
"241 936 OFFCURVE",
"156 882 CURVE",
"170 854 OFFCURVE",
"185 811 OFFCURVE",
"185 744 CURVE SMOOTH",
"185 526 OFFCURVE",
"24 299 OFFCURVE",
"24 125 CURVE SMOOTH",
"24 -37 OFFCURVE",
"162 -78 OFFCURVE",
"293 -78 CURVE SMOOTH"
);
},
{
closed = 1;
nodes = (
"314 52 OFFCURVE",
"306 61 OFFCURVE",
"306 84 CURVE SMOOTH",
"306 179 OFFCURVE",
"444 375 OFFCURVE",
"509 375 CURVE SMOOTH",
"523 375 OFFCURVE",
"531 366 OFFCURVE",
"531 338 CURVE SMOOTH",
"531 227 OFFCURVE",
"406 52 OFFCURVE",
"331 52 CURVE SMOOTH"
);
}
);
width = 865;
}
);
unicode = 0062;
},
{
glyphname = c;
lastChange = "2016-03-24 06:19:42 +0000";
layers = (
{
background = {
paths = (
{
closed = 1;
nodes = (
"13 -4 OFFCURVE",
"159 -80 OFFCURVE",
"337 -80 CURVE SMOOTH",
"513 -80 OFFCURVE",
"682 -9 OFFCURVE",
"682 135 CURVE SMOOTH",
"682 172 OFFCURVE",
"668 209 OFFCURVE",
"657 228 CURVE",
"605 177 OFFCURVE",
"532 151 OFFCURVE",
"452 150 CURVE SMOOTH",
"395 150 OFFCURVE",
"339 162 OFFCURVE",
"339 253 CURVE SMOOTH",
"339 370 OFFCURVE",
"432 466 OFFCURVE",
"503 466 CURVE SMOOTH",
"527 466 OFFCURVE",
"544 455 OFFCURVE",
"544 421 CURVE SMOOTH",
"544 368 OFFCURVE",
"503 332 OFFCURVE",
"442 298 CURVE",
"479 286 OFFCURVE",
"514 281 OFFCURVE",
"545 281 CURVE SMOOTH",
"684 281 OFFCURVE",
"766 383 OFFCURVE",
"766 470 CURVE SMOOTH",
"766 561 OFFCURVE",
"676 627 OFFCURVE",
"516 627 CURVE SMOOTH",
"239 627 OFFCURVE",
"13 437 OFFCURVE",
"13 193 CURVE SMOOTH"
);
}
);
};
layerId = "BE599D47-15C2-4DC8-BE97-05FFE6CA3179";
paths = (
{
closed = 1;
nodes = (
"13 -4 OFFCURVE",
"159 -80 OFFCURVE",
"337 -80 CURVE SMOOTH",
"513 -80 OFFCURVE",
"682 -9 OFFCURVE",
"682 131 CURVE SMOOTH",
"682 171 OFFCURVE",
"668 206 OFFCURVE",
"657 228 CURVE",
"605 177 OFFCURVE",
"532 151 OFFCURVE",
"452 150 CURVE SMOOTH",
"395 150 OFFCURVE",
"339 162 OFFCURVE",
"339 253 CURVE SMOOTH",
"339 370 OFFCURVE",
"432 466 OFFCURVE",
"503 466 CURVE SMOOTH",
"535 466 OFFCURVE",
"548 447 OFFCURVE",
"548 421 CURVE SMOOTH",
"548 384 OFFCURVE",
"520 331 OFFCURVE",
"480 298 CURVE",
"511 284 OFFCURVE",
"543 277 OFFCURVE",
"574 277 CURVE SMOOTH",
"675 277 OFFCURVE",
"766 348 OFFCURVE",
"766 455 CURVE SMOOTH",
"766 561 OFFCURVE",
"676 627 OFFCURVE",
"516 627 CURVE SMOOTH",
"239 627 OFFCURVE",
"13 437 OFFCURVE",
"13 193 CURVE SMOOTH"
);
}
);
width = 754;
},
{
associatedMasterId = "BE599D47-15C2-4DC8-BE97-05FFE6CA3179";
background = {
paths = (
{
closed = 1;
nodes = (
"513 -80 OFFCURVE",
"682 -9 OFFCURVE",
"682 135 CURVE SMOOTH",
"682 177 OFFCURVE",
"668 222 OFFCURVE",
"657 241 CURVE",
"605 189 OFFCURVE",
"532 163 OFFCURVE",
"467 163 CURVE SMOOTH",
"395 163 OFFCURVE",
"339 175 OFFCURVE",
"339 252 CURVE SMOOTH",
"339 391 OFFCURVE",
"468 527 OFFCURVE",
"637 554 CURVE",
"582 605 OFFCURVE",
"516 627 OFFCURVE",
"448 627 CURVE SMOOTH",
"240 627 OFFCURVE",
"13 438 OFFCURVE",
"13 171 CURVE SMOOTH",
"13 -4 OFFCURVE",
"159 -80 OFFCURVE",
"357 -80 CURVE SMOOTH"
);
},
{
closed = 1;
nodes = (
"622 242 OFFCURVE",
"776 330 OFFCURVE",
"776 466 CURVE SMOOTH",
"776 560 OFFCURVE",
"608 627 OFFCURVE",
"448 627 CURVE SMOOTH",
"380 627 OFFCURVE",
"348 579 OFFCURVE",
"348 515 CURVE SMOOTH",
"348 478 OFFCURVE",
"359 434 OFFCURVE",
"380 392 CURVE",
"436 464 OFFCURVE",
"483 492 OFFCURVE",
"509 492 CURVE SMOOTH",
"524 492 OFFCURVE",
"532 484 OFFCURVE",
"532 469 CURVE SMOOTH",
"532 401 OFFCURVE",
"449 345 OFFCURVE",
"360 345 CURVE SMOOTH",
"338 345 OFFCURVE",
"313 348 OFFCURVE",
"285 353 CURVE",
"313 277 OFFCURVE",
"347 242 OFFCURVE",
"442 242 CURVE SMOOTH"
);
}
);
};
layerId = "1DFD6E45-CE9C-4644-9FFB-E69B3D11A732";
name = "Regular Italic Mar 20 16, 00:12";
paths = (
{
closed = 1;
nodes = (
"13 -4 OFFCURVE",
"159 -80 OFFCURVE",
"337 -80 CURVE SMOOTH",
"513 -80 OFFCURVE",
"682 -9 OFFCURVE",
"682 135 CURVE SMOOTH",
"682 172 OFFCURVE",
"668 209 OFFCURVE",
"657 228 CURVE",
"605 177 OFFCURVE",
"532 151 OFFCURVE",
"452 150 CURVE SMOOTH",
"395 150 OFFCURVE",
"339 162 OFFCURVE",
"339 253 CURVE SMOOTH",
"339 370 OFFCURVE",
"432 466 OFFCURVE",
"503 466 CURVE SMOOTH",
"527 466 OFFCURVE",
"544 455 OFFCURVE",
"544 421 CURVE SMOOTH",
"544 368 OFFCURVE",
"503 332 OFFCURVE",
"442 298 CURVE",
"479 286 OFFCURVE",
"514 281 OFFCURVE",
"545 281 CURVE SMOOTH",
"684 281 OFFCURVE",
"766 383 OFFCURVE",
"766 470 CURVE SMOOTH",
"766 561 OFFCURVE",
"676 627 OFFCURVE",
"516 627 CURVE SMOOTH",
"239 627 OFFCURVE",
"13 437 OFFCURVE",
"13 193 CURVE SMOOTH"
);
}
);
width = 754;
}
);
unicode = 0063;
},
{
glyphname = d;
lastChange = "2016-03-24 06:19:53 +0000";
layers = (
{
background = {
paths = (
{
closed = 1;
nodes = (
"338 173 OFFCURVE",
"330 182 OFFCURVE",
"330 210 CURVE SMOOTH",
"330 321 OFFCURVE",
"455 496 OFFCURVE",
"530 496 CURVE SMOOTH",
"547 496 OFFCURVE",
"555 487 OFFCURVE",
"555 464 CURVE SMOOTH",
"555 369 OFFCURVE",
"417 173 OFFCURVE",
"352 173 CURVE SMOOTH"
);
},
{
closed = 1;
nodes = (
"912 610 OFFCURVE",
"906 616 OFFCURVE",
"900 618 CURVE",
"851 601 OFFCURVE",
"800 590 OFFCURVE",
"748 590 CURVE SMOOTH",
"655 590 OFFCURVE",
"592 626 OFFCURVE",
"495 626 CURVE SMOOTH",
"226 626 OFFCURVE",
"-6 355 OFFCURVE",
"-6 126 CURVE SMOOTH",
"-6 8 OFFCURVE",
"54 -71 OFFCURVE",
"168 -71 CURVE SMOOTH",
"283 -71 OFFCURVE",
"391 9 OFFCURVE",
"445 116 CURVE",
"449 114 LINE",
"436 70 OFFCURVE",
"430 35 OFFCURVE",
"430 8 CURVE SMOOTH",
"430 -60 OFFCURVE",
"471 -78 OFFCURVE",
"541 -78 CURVE SMOOTH",
"641 -78 OFFCURVE",
"725 -42 OFFCURVE",
"786 18 CURVE",
"763 32 OFFCURVE",
"746 62 OFFCURVE",
"746 123 CURVE SMOOTH",
"746 283 OFFCURVE",
"866 510 OFFCURVE",
"914 605 CURVE"
);
},
{
closed = 1;
nodes = (
"611 -78 OFFCURVE",
"694 -38 OFFCURVE",
"751 10 CURVE",
"744 33 OFFCURVE",
"740 57 OFFCURVE",
"740 90 CURVE SMOOTH",
"740 366 OFFCURVE",
"1008 699 OFFCURVE",
"1008 870 CURVE SMOOTH",
"1008 948 OFFCURVE",
"953 967 OFFCURVE",
"878 967 CURVE SMOOTH",
"785 967 OFFCURVE",
"681 939 OFFCURVE",
"586 882 CURVE",
"610 838 OFFCURVE",
"615 793 OFFCURVE",
"615 755 CURVE SMOOTH",
"615 482 OFFCURVE",
"391 286 OFFCURVE",
"391 62 CURVE SMOOTH",
"391 -29 OFFCURVE",
"453 -78 OFFCURVE",
"537 -78 CURVE SMOOTH"
);
}
);
};
layerId = "BE599D47-15C2-4DC8-BE97-05FFE6CA3179";
paths = (
{
closed = 1;
nodes = (
"343 173 OFFCURVE",
"335 182 OFFCURVE",
"335 210 CURVE SMOOTH",
"335 321 OFFCURVE",
"460 496 OFFCURVE",
"535 496 CURVE SMOOTH",
"552 496 OFFCURVE",
"560 487 OFFCURVE",
"560 464 CURVE SMOOTH",
"560 369 OFFCURVE",
"422 173 OFFCURVE",
"357 173 CURVE SMOOTH"
);
},
{
closed = 1;
nodes = (
"751 374 OFFCURVE",
"1013 690 OFFCURVE",
"1013 860 CURVE SMOOTH",
"1013 958 OFFCURVE",
"939 968 OFFCURVE",
"895 968 CURVE SMOOTH",
"771 968 OFFCURVE",
"703 939 OFFCURVE",
"604 882 CURVE",
"644 800 OFFCURVE",
"630 690 OFFCURVE",
"584 544 CURVE",
"753 530 LINE",
"670 592 OFFCURVE",
"597 626 OFFCURVE",
"500 626 CURVE SMOOTH",
"231 626 OFFCURVE",
"-1 355 OFFCURVE",
"-1 126 CURVE SMOOTH",
"-1 8 OFFCURVE",
"59 -71 OFFCURVE",
"173 -71 CURVE SMOOTH",
"288 -71 OFFCURVE",
"396 9 OFFCURVE",
"450 116 CURVE",
"454 114 LINE",
"441 70 OFFCURVE",
"435 35 OFFCURVE",
"435 8 CURVE SMOOTH",
"435 -60 OFFCURVE",
"476 -78 OFFCURVE",
"546 -78 CURVE SMOOTH",
"646 -78 OFFCURVE",
"730 -42 OFFCURVE",
"791 18 CURVE",
"768 32 OFFCURVE",
"751 62 OFFCURVE",
"751 123 CURVE SMOOTH"
);
}
);
width = 864;
}
);
unicode = 0064;
},
{
glyphname = e;
lastChange = "2016-03-24 06:20:06 +0000";
layers = (
{
background = {
paths = (
{
closed = 1;
nodes = (
"511 -80 OFFCURVE",
"680 -9 OFFCURVE",
"680 135 CURVE SMOOTH",
"680 177 OFFCURVE",
"666 222 OFFCURVE",
"655 241 CURVE",
"603 189 OFFCURVE",
"530 163 OFFCURVE",
"465 163 CURVE SMOOTH",
"393 163 OFFCURVE",
"337 175 OFFCURVE",
"337 252 CURVE SMOOTH",
"337 391 OFFCURVE",
"466 527 OFFCURVE",
"635 554 CURVE",
"580 605 OFFCURVE",
"514 627 OFFCURVE",
"446 627 CURVE SMOOTH",
"238 627 OFFCURVE",
"11 438 OFFCURVE",
"11 171 CURVE SMOOTH",
"11 -4 OFFCURVE",
"157 -80 OFFCURVE",
"355 -80 CURVE SMOOTH"
);
},
{
closed = 1;
nodes = (
"620 242 OFFCURVE",
"774 330 OFFCURVE",
"774 466 CURVE SMOOTH",
"774 560 OFFCURVE",
"606 627 OFFCURVE",
"446 627 CURVE SMOOTH",
"378 627 OFFCURVE",
"346 579 OFFCURVE",
"346 515 CURVE SMOOTH",
"346 478 OFFCURVE",
"357 434 OFFCURVE",
"378 392 CURVE",
"434 464 OFFCURVE",
"481 492 OFFCURVE",
"507 492 CURVE SMOOTH",
"522 492 OFFCURVE",
"530 484 OFFCURVE",
"530 469 CURVE SMOOTH",
"530 401 OFFCURVE",
"447 345 OFFCURVE",
"358 345 CURVE SMOOTH",
"336 345 OFFCURVE",
"311 348 OFFCURVE",
"283 353 CURVE",
"311 277 OFFCURVE",
"345 242 OFFCURVE",
"440 242 CURVE SMOOTH"
);
}
);
};
layerId = "BE599D47-15C2-4DC8-BE97-05FFE6CA3179";
paths = (
{
closed = 1;
nodes = (
"11 -4 OFFCURVE",
"157 -80 OFFCURVE",
"355 -80 CURVE SMOOTH",
"511 -80 OFFCURVE",
"680 -9 OFFCURVE",
"680 135 CURVE SMOOTH",
"680 177 OFFCURVE",
"666 222 OFFCURVE",
"655 241 CURVE",
"603 189 OFFCURVE",
"530 163 OFFCURVE",
"465 163 CURVE SMOOTH",
"364 163 OFFCURVE",
"337 188 OFFCURVE",
"338 268 CURVE",
"361 250 OFFCURVE",
"393 242 OFFCURVE",
"440 242 CURVE SMOOTH",
"620 242 OFFCURVE",
"774 330 OFFCURVE",
"774 466 CURVE SMOOTH",
"774 566 OFFCURVE",
"687 629 OFFCURVE",
"509 629 CURVE SMOOTH",
"231 629 OFFCURVE",
"11 436 OFFCURVE",
"11 171 CURVE SMOOTH"
);
},
{
closed = 1;
nodes = (
"380 404 OFFCURVE",
"453 492 OFFCURVE",
"507 492 CURVE SMOOTH",
"522 492 OFFCURVE",
"530 484 OFFCURVE",
"530 469 CURVE SMOOTH",
"530 401 OFFCURVE",
"447 345 OFFCURVE",
"358 345 CURVE SMOOTH",
"356 345 LINE"
);
}
);
width = 752;
},
{
associatedMasterId = "BE599D47-15C2-4DC8-BE97-05FFE6CA3179";
background = {
paths = (
{
closed = 1;
nodes = (
"203 -78 OFFCURVE",
"286 -38 OFFCURVE",
"343 10 CURVE",
"336 33 OFFCURVE",
"332 57 OFFCURVE",
"332 85 CURVE SMOOTH",
"332 255 OFFCURVE",
"463 486 OFFCURVE",
"463 561 CURVE SMOOTH",
"463 614 OFFCURVE",
"397 627 OFFCURVE",
"325 627 CURVE SMOOTH",
"249 627 OFFCURVE",
"182 612 OFFCURVE",
"113 582 CURVE",
"122 557 OFFCURVE",
"127 532 OFFCURVE",
"127 505 CURVE SMOOTH",
"127 344 OFFCURVE",
"-19 211 OFFCURVE",
"-19 59 CURVE SMOOTH",
"-19 -27 OFFCURVE",
"43 -78 OFFCURVE",
"124 -78 CURVE SMOOTH"
);
},
{
closed = 1;
nodes = (
"664 -77 OFFCURVE",
"748 -45 OFFCURVE",
"817 15 CURVE",
"792 44 OFFCURVE",
"785 64 OFFCURVE",
"785 95 CURVE SMOOTH",
"785 246 OFFCURVE",
"899 406 OFFCURVE",
"899 505 CURVE SMOOTH",
"899 576 OFFCURVE",
"829 628 OFFCURVE",
"742 628 CURVE SMOOTH",
"561 628 OFFCURVE",
"340 379 OFFCURVE",
"247 244 CURVE",
"332 84 LINE",
"332 197 OFFCURVE",
"410 350 OFFCURVE",
"461 350 CURVE SMOOTH",
"492 350 OFFCURVE",
"499 330 OFFCURVE",
"499 306 CURVE SMOOTH",
"499 219 OFFCURVE",
"430 113 OFFCURVE",
"430 22 CURVE SMOOTH",
"430 -32 OFFCURVE",
"481 -77 OFFCURVE",
"580 -77 CURVE SMOOTH"
);
}
);
};
layerId = "6D709A6D-6FD5-4CD2-A960-4F89E08C9DF1";
name = "Regular Italic Mar 19 16, 01:13";
paths = (
{
closed = 1;
nodes = (
"416 749 OFFCURVE",
"23 531 OFFCURVE",
"10 184 CURVE SMOOTH",
"4 15 OFFCURVE",
"47 -49 OFFCURVE",
"191 -73 CURVE SMOOTH",
"286 -88 OFFCURVE",
"647 -92 OFFCURVE",
"589 251 CURVE",
"505 134 OFFCURVE",
"385 134 OFFCURVE",
"347 150 CURVE SMOOTH",
"302 166 OFFCURVE",
"285 223 OFFCURVE",
"296 278 CURVE SMOOTH",
"302 442 OFFCURVE",
"443 546 OFFCURVE",
"621 554 CURVE"
);
}
);
width = 630;
},
{
associatedMasterId = "BE599D47-15C2-4DC8-BE97-05FFE6CA3179";
background = {
paths = (
{
closed = 1;
nodes = (
"203 -78 OFFCURVE",
"286 -38 OFFCURVE",
"343 10 CURVE",
"336 33 OFFCURVE",
"332 57 OFFCURVE",
"332 85 CURVE SMOOTH",
"332 255 OFFCURVE",
"463 486 OFFCURVE",
"463 561 CURVE SMOOTH",
"463 614 OFFCURVE",
"397 627 OFFCURVE",
"325 627 CURVE SMOOTH",
"249 627 OFFCURVE",
"182 612 OFFCURVE",
"113 582 CURVE",
"122 557 OFFCURVE",
"127 532 OFFCURVE",
"127 505 CURVE SMOOTH",
"127 344 OFFCURVE",
"-19 211 OFFCURVE",
"-19 59 CURVE SMOOTH",
"-19 -27 OFFCURVE",
"43 -78 OFFCURVE",
"124 -78 CURVE SMOOTH"
);
},
{
closed = 1;
nodes = (
"664 -77 OFFCURVE",
"748 -45 OFFCURVE",
"817 15 CURVE",
"792 44 OFFCURVE",
"785 64 OFFCURVE",
"785 95 CURVE SMOOTH",
"785 246 OFFCURVE",
"899 406 OFFCURVE",
"899 505 CURVE SMOOTH",
"899 576 OFFCURVE",
"829 628 OFFCURVE",
"742 628 CURVE SMOOTH",
"561 628 OFFCURVE",
"340 379 OFFCURVE",
"247 244 CURVE",
"332 84 LINE",
"332 197 OFFCURVE",
"410 350 OFFCURVE",
"461 350 CURVE SMOOTH",
"492 350 OFFCURVE",
"499 330 OFFCURVE",
"499 306 CURVE SMOOTH",
"499 219 OFFCURVE",
"430 113 OFFCURVE",
"430 22 CURVE SMOOTH",
"430 -32 OFFCURVE",
"481 -77 OFFCURVE",
"580 -77 CURVE SMOOTH"
);
}
);
};
layerId = "5A262753-2302-4988-A4A6-048E1416D2EF";
name = "Regular Italic Mar 19 16, 01:22";
paths = (
{
closed = 1;
nodes = (
"286 249 OFFCURVE",
"320 233 OFFCURVE",
"385 233 CURVE SMOOTH",
"557 233 OFFCURVE",
"667 307 OFFCURVE",
"712 429 CURVE SMOOTH",
"757 551 OFFCURVE",
"598 627 OFFCURVE",
"434 627 CURVE SMOOTH",
"326 627 OFFCURVE",
"305 507 OFFCURVE",
"358 392 CURVE",
"462 520 OFFCURVE",
"541 507 OFFCURVE",
"507 446 CURVE SMOOTH",
"459 355 OFFCURVE",
"355 330 OFFCURVE",
"251 330 CURVE"
);
},
{
closed = 1;
nodes = (
"568 605 OFFCURVE",
"502 627 OFFCURVE",
"434 627 CURVE SMOOTH",
"238 627 OFFCURVE",
"20 441 OFFCURVE",
"10 176 CURVE SMOOTH",
"3 -4 OFFCURVE",
"96 -53 OFFCURVE",
"267 -73 CURVE SMOOTH",
"389 -87 OFFCURVE",
"565 -60 OFFCURVE",
"615 99 CURVE SMOOTH",
"630 147 OFFCURVE",
"613 216 OFFCURVE",
"599 241 CURVE",
"547 188 OFFCURVE",
"476 152 OFFCURVE",
"414 153 CURVE SMOOTH",
"345 154 OFFCURVE",
"312 175 OFFCURVE",
"312 246 CURVE SMOOTH",
"312 387 OFFCURVE",
"448 527 OFFCURVE",
"621 554 CURVE"
);
}
);
width = 686;
},
{
associatedMasterId = "BE599D47-15C2-4DC8-BE97-05FFE6CA3179";
background = {
paths = (
{
closed = 1;
nodes = (
"336 270 OFFCURVE",
"370 233 OFFCURVE",
"465 233 CURVE SMOOTH",
"657 233 OFFCURVE",
"755 302 OFFCURVE",
"787 449 CURVE SMOOTH",
"788 455 OFFCURVE",
"789 461 OFFCURVE",
"789 466 CURVE SMOOTH",
"789 560 OFFCURVE",
"626 627 OFFCURVE",
"471 627 CURVE SMOOTH",
"403 627 OFFCURVE",
"371 579 OFFCURVE",
"371 515 CURVE SMOOTH",
"371 478 OFFCURVE",
"382 434 OFFCURVE",
"403 392 CURVE",
"459 464 OFFCURVE",
"506 492 OFFCURVE",
"532 492 CURVE SMOOTH",
"547 492 OFFCURVE",
"555 484 OFFCURVE",
"555 469 CURVE SMOOTH",
"555 462 OFFCURVE",
"553 455 OFFCURVE",
"550 446 CURVE SMOOTH",
"529 392 OFFCURVE",
"481 345 OFFCURVE",
"383 345 CURVE SMOOTH",
"361 345 OFFCURVE",
"336 348 OFFCURVE",
"308 353 CURVE"
);
},
{
closed = 1;
nodes = (
"605 605 OFFCURVE",
"539 627 OFFCURVE",
"471 627 CURVE SMOOTH",
"268 627 OFFCURVE",
"46 438 OFFCURVE",
"46 171 CURVE SMOOTH",
"46 15 OFFCURVE",
"149 -57 OFFCURVE",
"325 -77 CURVE SMOOTH",
"342 -79 OFFCURVE",
"360 -80 OFFCURVE",
"380 -80 CURVE SMOOTH",
"500 -80 OFFCURVE",
"654 -38 OFFCURVE",
"691 99 CURVE SMOOTH",
"694 110 OFFCURVE",
"695 123 OFFCURVE",
"695 135 CURVE SMOOTH",
"695 177 OFFCURVE",
"681 222 OFFCURVE",
"670 241 CURVE",
"621 189 OFFCURVE",
"552 163 OFFCURVE",
"490 163 CURVE SMOOTH",
"418 163 OFFCURVE",
"362 175 OFFCURVE",
"362 252 CURVE SMOOTH",
"362 391 OFFCURVE",
"491 527 OFFCURVE",
"660 554 CURVE"
);
}
);
};
layerId = "C737FBAB-ADF8-43F8-9A06-35B277D18C7B";
name = "Regular Italic Mar 19 16, 01:31";
paths = (
{
closed = 1;
nodes = (
"572 605 OFFCURVE",
"506 627 OFFCURVE",
"438 627 CURVE SMOOTH",
"235 627 OFFCURVE",
"13 438 OFFCURVE",
"13 171 CURVE SMOOTH",
"13 -4 OFFCURVE",
"155 -80 OFFCURVE",
"347 -80 CURVE SMOOTH",
"498 -80 OFFCURVE",
"662 -9 OFFCURVE",
"662 135 CURVE SMOOTH",
"662 177 OFFCURVE",
"648 222 OFFCURVE",
"637 241 CURVE",
"588 189 OFFCURVE",
"519 163 OFFCURVE",
"457 163 CURVE SMOOTH",
"385 163 OFFCURVE",
"329 175 OFFCURVE",
"329 252 CURVE SMOOTH",
"329 391 OFFCURVE",
"458 527 OFFCURVE",
"627 554 CURVE"
);
},
{
closed = 1;
nodes = (
"303 270 OFFCURVE",
"337 233 OFFCURVE",
"432 233 CURVE SMOOTH",
"607 233 OFFCURVE",
"756 324 OFFCURVE",
"756 466 CURVE SMOOTH",
"756 560 OFFCURVE",
"593 627 OFFCURVE",
"438 627 CURVE SMOOTH",
"370 627 OFFCURVE",
"338 579 OFFCURVE",
"338 515 CURVE SMOOTH",
"338 478 OFFCURVE",
"349 434 OFFCURVE",
"370 392 CURVE",
"426 464 OFFCURVE",
"473 492 OFFCURVE",
"499 492 CURVE SMOOTH",
"514 492 OFFCURVE",
"522 484 OFFCURVE",
"522 469 CURVE SMOOTH",
"522 401 OFFCURVE",
"439 345 OFFCURVE",
"350 345 CURVE SMOOTH",
"328 345 OFFCURVE",
"303 348 OFFCURVE",
"275 353 CURVE"
);
}
);
width = 734;
},
{
associatedMasterId = "BE599D47-15C2-4DC8-BE97-05FFE6CA3179";
background = {
paths = (
{
closed = 1;
nodes = (
"310 173 OFFCURVE",
"302 182 OFFCURVE",
"302 210 CURVE SMOOTH",
"302 321 OFFCURVE",
"427 496 OFFCURVE",
"502 496 CURVE SMOOTH",
"519 496 OFFCURVE",
"527 487 OFFCURVE",
"527 464 CURVE SMOOTH",
"527 369 OFFCURVE",
"389 173 OFFCURVE",
"324 173 CURVE SMOOTH"
);
},
{
closed = 1;
nodes = (
"884 610 OFFCURVE",
"878 616 OFFCURVE",
"872 618 CURVE",
"823 601 OFFCURVE",
"772 590 OFFCURVE",
"720 590 CURVE SMOOTH",
"627 590 OFFCURVE",
"564 626 OFFCURVE",
"467 626 CURVE SMOOTH",
"198 626 OFFCURVE",
"-34 355 OFFCURVE",
"-34 126 CURVE SMOOTH",
"-34 8 OFFCURVE",
"26 -71 OFFCURVE",
"140 -71 CURVE SMOOTH",
"255 -71 OFFCURVE",
"363 9 OFFCURVE",
"417 116 CURVE",
"421 114 LINE",
"408 70 OFFCURVE",
"402 35 OFFCURVE",
"402 8 CURVE SMOOTH",
"402 -60 OFFCURVE",
"443 -78 OFFCURVE",
"513 -78 CURVE SMOOTH",
"613 -78 OFFCURVE",
"697 -42 OFFCURVE",
"758 18 CURVE",
"735 32 OFFCURVE",
"718 62 OFFCURVE",
"718 123 CURVE SMOOTH",
"718 283 OFFCURVE",
"838 510 OFFCURVE",
"886 605 CURVE"
);
}
);
};
layerId = "475C2467-10FA-4E26-8AA3-779C16A80F25";
name = "Regular Italic Mar 19 16, 23:32";
paths = (
{
closed = 1;
nodes = (
"498 -80 OFFCURVE",
"662 -9 OFFCURVE",
"662 135 CURVE SMOOTH",
"662 177 OFFCURVE",
"648 222 OFFCURVE",
"637 241 CURVE",
"588 189 OFFCURVE",
"519 163 OFFCURVE",
"457 163 CURVE SMOOTH",
"385 163 OFFCURVE",
"329 175 OFFCURVE",
"329 252 CURVE SMOOTH",
"329 391 OFFCURVE",
"458 527 OFFCURVE",
"627 554 CURVE",
"572 605 OFFCURVE",
"506 627 OFFCURVE",
"438 627 CURVE SMOOTH",
"235 627 OFFCURVE",
"13 438 OFFCURVE",
"13 171 CURVE SMOOTH",
"13 -4 OFFCURVE",
"155 -80 OFFCURVE",
"347 -80 CURVE SMOOTH"
);
},
{
closed = 1;
nodes = (
"607 242 OFFCURVE",
"756 330 OFFCURVE",
"756 466 CURVE SMOOTH",
"756 560 OFFCURVE",
"593 627 OFFCURVE",
"438 627 CURVE SMOOTH",
"370 627 OFFCURVE",
"338 579 OFFCURVE",
"338 515 CURVE SMOOTH",
"338 478 OFFCURVE",
"349 434 OFFCURVE",
"370 392 CURVE",
"426 464 OFFCURVE",
"473 492 OFFCURVE",
"499 492 CURVE SMOOTH",
"514 492 OFFCURVE",
"522 484 OFFCURVE",
"522 469 CURVE SMOOTH",
"522 401 OFFCURVE",
"439 345 OFFCURVE",
"350 345 CURVE SMOOTH",
"328 345 OFFCURVE",
"303 348 OFFCURVE",
"275 353 CURVE",
"303 277 OFFCURVE",
"337 242 OFFCURVE",
"432 242 CURVE SMOOTH"
);
}
);
width = 734;
},
{
associatedMasterId = "BE599D47-15C2-4DC8-BE97-05FFE6CA3179";
background = {
paths = (
{
closed = 1;
nodes = (
"522 -80 OFFCURVE",
"702 -9 OFFCURVE",
"702 135 CURVE SMOOTH",
"702 177 OFFCURVE",
"688 222 OFFCURVE",
"677 241 CURVE",
"620 189 OFFCURVE",
"539 163 OFFCURVE",
"467 163 CURVE SMOOTH",
"395 163 OFFCURVE",
"339 175 OFFCURVE",
"339 252 CURVE SMOOTH",
"339 391 OFFCURVE",
"468 527 OFFCURVE",
"637 554 CURVE",
"582 605 OFFCURVE",
"516 627 OFFCURVE",
"448 627 CURVE SMOOTH",
"231 627 OFFCURVE",
"-7 438 OFFCURVE",
"-7 171 CURVE SMOOTH",
"-7 -4 OFFCURVE",
"148 -80 OFFCURVE",
"357 -80 CURVE SMOOTH"
);
},
{
closed = 1;
nodes = (
"633 242 OFFCURVE",
"796 330 OFFCURVE",
"796 466 CURVE SMOOTH",
"796 560 OFFCURVE",
"618 627 OFFCURVE",
"448 627 CURVE SMOOTH",
"380 627 OFFCURVE",
"348 579 OFFCURVE",
"348 515 CURVE SMOOTH",
"348 478 OFFCURVE",
"359 434 OFFCURVE",
"380 392 CURVE",
"436 464 OFFCURVE",
"483 492 OFFCURVE",
"509 492 CURVE SMOOTH",
"524 492 OFFCURVE",
"532 484 OFFCURVE",
"532 469 CURVE SMOOTH",
"532 401 OFFCURVE",
"449 345 OFFCURVE",
"360 345 CURVE SMOOTH",
"338 345 OFFCURVE",
"313 348 OFFCURVE",
"285 353 CURVE",
"313 277 OFFCURVE",
"347 242 OFFCURVE",
"442 242 CURVE SMOOTH"
);
}
);
};
layerId = "83AF8557-4022-4031-8446-2DF05BFF2BEB";
name = "Regular Italic Mar 23 16, 21:29";
paths = (
{
closed = 1;
nodes = (
"513 -80 OFFCURVE",
"682 -9 OFFCURVE",
"682 135 CURVE SMOOTH",
"682 177 OFFCURVE",
"668 222 OFFCURVE",
"657 241 CURVE",
"605 189 OFFCURVE",
"532 163 OFFCURVE",
"467 163 CURVE SMOOTH",
"395 163 OFFCURVE",
"339 175 OFFCURVE",
"339 252 CURVE SMOOTH",
"339 391 OFFCURVE",
"468 527 OFFCURVE",
"637 554 CURVE",
"582 605 OFFCURVE",
"516 627 OFFCURVE",
"448 627 CURVE SMOOTH",
"240 627 OFFCURVE",
"13 438 OFFCURVE",
"13 171 CURVE SMOOTH",
"13 -4 OFFCURVE",
"159 -80 OFFCURVE",
"357 -80 CURVE SMOOTH"
);
},
{
closed = 1;
nodes = (
"622 242 OFFCURVE",
"776 330 OFFCURVE",
"776 466 CURVE SMOOTH",
"776 560 OFFCURVE",
"608 627 OFFCURVE",
"448 627 CURVE SMOOTH",
"380 627 OFFCURVE",
"348 579 OFFCURVE",
"348 515 CURVE SMOOTH",
"348 478 OFFCURVE",
"359 434 OFFCURVE",
"380 392 CURVE",
"436 464 OFFCURVE",
"483 492 OFFCURVE",
"509 492 CURVE SMOOTH",
"524 492 OFFCURVE",
"532 484 OFFCURVE",
"532 469 CURVE SMOOTH",
"532 401 OFFCURVE",
"449 345 OFFCURVE",
"360 345 CURVE SMOOTH",
"338 345 OFFCURVE",
"313 348 OFFCURVE",
"285 353 CURVE",
"313 277 OFFCURVE",
"347 242 OFFCURVE",
"442 242 CURVE SMOOTH"
);
}
);
width = 754;
}
);
unicode = 0065;
},
{
glyphname = f;
lastChange = "2016-03-24 17:44:38 +0000";
layers = (
{
background = {
paths = (
{
closed = 1;
nodes = (
"-99 -353 OFFCURVE",
"7 -400 OFFCURVE",
"101 -400 CURVE SMOOTH",
"251 -400 OFFCURVE",
"294 -281 OFFCURVE",
"372 -13 CURVE SMOOTH",
"381 18 OFFCURVE",
"516 539 OFFCURVE",
"528 568 CURVE SMOOTH",
"585 705 OFFCURVE",
"653 761 OFFCURVE",
"791 781 CURVE",
"767 886 OFFCURVE",
"707 966 OFFCURVE",
"586 966 CURVE SMOOTH",
"413 966 OFFCURVE",
"275 808 OFFCURVE",
"206 479 CURVE SMOOTH",
"113 34 OFFCURVE",
"-1 -211 OFFCURVE",
"-135 -260 CURVE"
);
},
{
closed = 1;
nodes = (
"598 344 OFFCURVE",
"684 429 OFFCURVE",
"708 649 CURVE",
"653 626 OFFCURVE",
"604 620 OFFCURVE",
"560 620 CURVE SMOOTH",
"469 620 OFFCURVE",
"370 646 OFFCURVE",
"287 646 CURVE SMOOTH",
"113 646 OFFCURVE",
"58 469 OFFCURVE",
"59 351 CURVE",
"98 363 OFFCURVE",
"132 366 OFFCURVE",
"177 366 CURVE SMOOTH",
"298 366 OFFCURVE",
"366 344 OFFCURVE",
"464 344 CURVE SMOOTH"
);
}
);
};
layerId = "BE599D47-15C2-4DC8-BE97-05FFE6CA3179";
paths = (
{
closed = 1;
nodes = (
"-99 -353 OFFCURVE",
"7 -400 OFFCURVE",
"101 -400 CURVE SMOOTH",
"251 -400 OFFCURVE",
"302 -281 OFFCURVE",
"380 -13 CURVE SMOOTH",
"389 18 OFFCURVE",
"524 539 OFFCURVE",
"536 568 CURVE SMOOTH",
"599 737 OFFCURVE",
"683 811 OFFCURVE",
"821 831 CURVE",
"797 936 OFFCURVE",
"737 1016 OFFCURVE",
"616 1016 CURVE SMOOTH",
"443 1016 OFFCURVE",
"280 842 OFFCURVE",
"206 479 CURVE SMOOTH",
"113 34 OFFCURVE",
"-1 -211 OFFCURVE",
"-135 -260 CURVE"
);
},
{
closed = 1;
nodes = (
"598 344 OFFCURVE",
"684 429 OFFCURVE",
"708 649 CURVE",
"653 626 OFFCURVE",
"604 620 OFFCURVE",
"560 620 CURVE SMOOTH",
"469 620 OFFCURVE",
"370 646 OFFCURVE",
"287 646 CURVE SMOOTH",
"113 646 OFFCURVE",
"58 469 OFFCURVE",
"59 351 CURVE",
"98 363 OFFCURVE",
"132 366 OFFCURVE",
"177 366 CURVE SMOOTH",
"298 366 OFFCURVE",
"366 344 OFFCURVE",
"464 344 CURVE SMOOTH"
);
}
);
width = 612;
},
{
associatedMasterId = "BE599D47-15C2-4DC8-BE97-05FFE6CA3179";
background = {
paths = (
{
closed = 1;
nodes = (
"-236 -334 OFFCURVE",
"-171 -414 OFFCURVE",
"-58 -414 CURVE SMOOTH",
"123 -414 OFFCURVE",
"247 -239 OFFCURVE",
"334 -27 CURVE SMOOTH",
"374 70 OFFCURVE",
"508 490 OFFCURVE",
"509 540 CURVE SMOOTH",
"510 609 OFFCURVE",
"433 626 OFFCURVE",
"351 626 CURVE SMOOTH",
"271 626 OFFCURVE",
"200 611 OFFCURVE",
"129 582 CURVE",
"137 556 OFFCURVE",
"142 531 OFFCURVE",
"142 504 CURVE SMOOTH",
"142 343 OFFCURVE",
"98 136 OFFCURVE",
"23 -20 CURVE SMOOTH",
"-27 -124 OFFCURVE",
"-125 -196 OFFCURVE",
"-253 -229 CURVE"
);
}
);
};
layerId = "495F65A2-B75C-469D-B2DE-48D32C1AAD0A";
name = "Regular Italic Mar 24 16, 14:15";
paths = (
{
closed = 1;
nodes = (
"495 603 OFFCURVE",
"489 608 OFFCURVE",
"483 609 CURVE",
"435 590 OFFCURVE",
"385 575 OFFCURVE",
"333 571 CURVE",
"68 94 LINE",
"73 93 LINE",
"64 -66 OFFCURVE",
"-30 -181 OFFCURVE",
"-168 -192 CURVE SMOOTH",
"-259 -199 OFFCURVE",
"-342 -159 OFFCURVE",
"-395 -88 CURVE",
"-463 -110 OFFCURVE",
"-500 -190 OFFCURVE",
"-495 -270 CURVE SMOOTH",
"-486 -409 OFFCURVE",
"-353 -469 OFFCURVE",
"-185 -458 CURVE SMOOTH",
"82 -441 OFFCURVE",
"286 -240 OFFCURVE",
"353 51 CURVE SMOOTH",
"383 182 OFFCURVE",
"403 404 OFFCURVE",
"499 598 CURVE"
);
},
{
closed = 1;
nodes = (
"65 47 OFFCURVE",
"72 42 OFFCURVE",
"78 41 CURVE",
"125 60 OFFCURVE",
"176 75 OFFCURVE",
"228 78 CURVE",
"493 556 LINE",
"489 557 LINE",
"495 717 OFFCURVE",
"589 832 OFFCURVE",
"729 841 CURVE SMOOTH",
"819 847 OFFCURVE",
"903 808 OFFCURVE",
"957 738 CURVE",
"1024 760 OFFCURVE",
"1061 840 OFFCURVE",
"1056 920 CURVE SMOOTH",
"1047 1059 OFFCURVE",
"914 1119 OFFCURVE",
"746 1107 CURVE SMOOTH",
"478 1088 OFFCURVE",
"275 890 OFFCURVE",
"208 599 CURVE SMOOTH",
"178 468 OFFCURVE",
"158 245 OFFCURVE",
"63 52 CURVE"
);
}
);
width = 600;
},
{
associatedMasterId = "BE599D47-15C2-4DC8-BE97-05FFE6CA3179";
layerId = "1CDF54FA-04E8-4629-900F-3EE35D84C614";
name = "Regular Italic Mar 24 16, 14:22";
paths = (
{
closed = 1;
nodes = (
"-166 -320 OFFCURVE",
"-106 -400 OFFCURVE",
"7 -400 CURVE SMOOTH",
"188 -400 OFFCURVE",
"299 -233 OFFCURVE",
"372 -13 CURVE SMOOTH",
"382 17 OFFCURVE",
"516 539 OFFCURVE",
"530 572 CURVE SMOOTH",
"574 675 OFFCURVE",
"666 748 OFFCURVE",
"791 781 CURVE",
"767 886 OFFCURVE",
"707 966 OFFCURVE",
"594 966 CURVE SMOOTH",
"413 966 OFFCURVE",
"299 792 OFFCURVE",
"229 579 CURVE SMOOTH",
"209 518 OFFCURVE",
"100 92 OFFCURVE",
"71 -6 CURVE SMOOTH",
"40 -111 OFFCURVE",
"-65 -182 OFFCURVE",
"-190 -215 CURVE"
);
},
{
closed = 1;
nodes = (
"611 391 OFFCURVE",
"684 441 OFFCURVE",
"708 649 CURVE",
"653 626 OFFCURVE",
"604 620 OFFCURVE",
"560 620 CURVE SMOOTH",
"469 620 OFFCURVE",
"370 646 OFFCURVE",
"287 646 CURVE SMOOTH",
"115 646 OFFCURVE",
"71 516 OFFCURVE",
"72 398 CURVE",
"111 410 OFFCURVE",
"145 413 OFFCURVE",
"190 413 CURVE SMOOTH",
"311 413 OFFCURVE",
"379 391 OFFCURVE",
"477 391 CURVE SMOOTH"
);
}
);
width = 612;
},
{
associatedMasterId = "BE599D47-15C2-4DC8-BE97-05FFE6CA3179";
background = {
paths = (
{
closed = 1;
nodes = (
"-166 -320 OFFCURVE",
"-106 -400 OFFCURVE",
"7 -400 CURVE SMOOTH",
"188 -400 OFFCURVE",
"299 -233 OFFCURVE",
"372 -13 CURVE SMOOTH",
"382 17 OFFCURVE",
"516 539 OFFCURVE",
"530 572 CURVE SMOOTH",
"574 675 OFFCURVE",
"666 748 OFFCURVE",
"791 781 CURVE",
"767 886 OFFCURVE",
"707 966 OFFCURVE",
"594 966 CURVE SMOOTH",
"413 966 OFFCURVE",
"299 792 OFFCURVE",
"229 579 CURVE SMOOTH",
"209 518 OFFCURVE",
"100 92 OFFCURVE",
"71 -6 CURVE SMOOTH",
"40 -111 OFFCURVE",
"-65 -182 OFFCURVE",
"-190 -215 CURVE"
);
},
{
closed = 1;
nodes = (
"611 391 OFFCURVE",
"684 441 OFFCURVE",
"708 649 CURVE",
"653 626 OFFCURVE",
"604 620 OFFCURVE",
"560 620 CURVE SMOOTH",
"469 620 OFFCURVE",
"370 646 OFFCURVE",
"287 646 CURVE SMOOTH",
"115 646 OFFCURVE",
"71 516 OFFCURVE",
"72 398 CURVE",
"111 410 OFFCURVE",
"145 413 OFFCURVE",
"190 413 CURVE SMOOTH",
"311 413 OFFCURVE",
"379 391 OFFCURVE",
"477 391 CURVE SMOOTH"
);
}
);
};
layerId = "AB2B2C62-7946-441D-964A-85D27F92722C";
name = "Regular Italic Mar 24 16, 14:42";
paths = (
{
closed = 1;
nodes = (
"-99 -353 OFFCURVE",
"7 -400 OFFCURVE",
"101 -400 CURVE SMOOTH",
"251 -400 OFFCURVE",
"291 -280 OFFCURVE",
"372 -13 CURVE SMOOTH",
"381 18 OFFCURVE",
"516 539 OFFCURVE",
"528 568 CURVE SMOOTH",
"584 705 OFFCURVE",
"653 761 OFFCURVE",
"791 781 CURVE",
"767 886 OFFCURVE",
"707 966 OFFCURVE",
"586 966 CURVE SMOOTH",
"413 966 OFFCURVE",
"275 808 OFFCURVE",
"206 479 CURVE SMOOTH",
"113 34 OFFCURVE",
"-1 -211 OFFCURVE",
"-135 -260 CURVE"
);
},
{
closed = 1;
nodes = (
"598 344 OFFCURVE",
"684 429 OFFCURVE",
"708 649 CURVE",
"653 626 OFFCURVE",
"604 620 OFFCURVE",
"560 620 CURVE SMOOTH",
"469 620 OFFCURVE",
"370 646 OFFCURVE",
"287 646 CURVE SMOOTH",
"113 646 OFFCURVE",
"58 469 OFFCURVE",
"59 351 CURVE",
"98 363 OFFCURVE",
"132 366 OFFCURVE",
"177 366 CURVE SMOOTH",
"298 366 OFFCURVE",
"366 344 OFFCURVE",
"464 344 CURVE SMOOTH"
);
}
);
width = 612;
}
);
unicode = 0066;
},
{
glyphname = g;
lastChange = "2016-03-24 06:20:26 +0000";
layers = (
{
background = {
paths = (
{
closed = 1;
nodes = (
"343 184 OFFCURVE",
"335 193 OFFCURVE",
"335 221 CURVE SMOOTH",
"335 328 OFFCURVE",
"460 496 OFFCURVE",
"535 496 CURVE SMOOTH",
"552 496 OFFCURVE",
"560 487 OFFCURVE",
"560 464 CURVE SMOOTH",
"560 373 OFFCURVE",
"422 184 OFFCURVE",
"357 184 CURVE SMOOTH"
);
},
{
closed = 1;
nodes = (
"917 610 OFFCURVE",
"911 616 OFFCURVE",
"905 618 CURVE",
"856 601 OFFCURVE",
"805 590 OFFCURVE",
"753 590 CURVE SMOOTH",
"660 590 OFFCURVE",
"597 626 OFFCURVE",
"500 626 CURVE SMOOTH",
"231 626 OFFCURVE",
"-1 354 OFFCURVE",
"-1 154 CURVE SMOOTH",
"-1 36 OFFCURVE",
"59 -43 OFFCURVE",
"173 -43 CURVE SMOOTH",
"290 -43 OFFCURVE",
"400 32 OFFCURVE",
"455 133 CURVE",
"459 131 LINE",
"441 -27 OFFCURVE",
"339 -136 OFFCURVE",
"192 -136 CURVE SMOOTH",
"109 -136 OFFCURVE",
"29 -91 OFFCURVE",
"-20 -17 CURVE",
"-86 -33 OFFCURVE",
"-132 -110 OFFCURVE",
"-132 -192 CURVE SMOOTH",
"-132 -325 OFFCURVE",
"-11 -400 OFFCURVE",
"157 -400 CURVE SMOOTH",
"432 -400 OFFCURVE",
"653 -216 OFFCURVE",
"718 8 CURVE SMOOTH",
"773 199 OFFCURVE",
"811 419 OFFCURVE",
"919 605 CURVE"
);
}
);
};
layerId = "BE599D47-15C2-4DC8-BE97-05FFE6CA3179";
paths = (
{
closed = 1;
nodes = (
"343 184 OFFCURVE",
"335 193 OFFCURVE",
"335 221 CURVE SMOOTH",
"335 328 OFFCURVE",
"460 496 OFFCURVE",
"535 496 CURVE SMOOTH",
"552 496 OFFCURVE",
"560 487 OFFCURVE",
"560 464 CURVE SMOOTH",
"560 373 OFFCURVE",
"422 184 OFFCURVE",
"357 184 CURVE SMOOTH"
);
},
{
closed = 1;
nodes = (
"917 610 OFFCURVE",
"911 616 OFFCURVE",
"905 618 CURVE",
"856 601 OFFCURVE",
"805 590 OFFCURVE",
"753 590 CURVE SMOOTH",
"660 590 OFFCURVE",
"597 626 OFFCURVE",
"500 626 CURVE SMOOTH",
"231 626 OFFCURVE",
"-1 354 OFFCURVE",
"-1 145 CURVE SMOOTH",
"-1 36 OFFCURVE",
"59 -43 OFFCURVE",
"173 -43 CURVE SMOOTH",
"290 -43 OFFCURVE",
"400 32 OFFCURVE",
"455 133 CURVE",
"459 131 LINE",
"441 -27 OFFCURVE",
"339 -136 OFFCURVE",
"199 -136 CURVE SMOOTH",
"109 -136 OFFCURVE",
"29 -91 OFFCURVE",
"-20 -17 CURVE",
"-89 -34 OFFCURVE",
"-132 -111 OFFCURVE",
"-132 -192 CURVE SMOOTH",
"-132 -331 OFFCURVE",
"-4 -400 OFFCURVE",
"164 -400 CURVE SMOOTH",
"432 -400 OFFCURVE",
"650 -216 OFFCURVE",
"736 70 CURVE SMOOTH",
"775 199 OFFCURVE",
"811 419 OFFCURVE",
"919 605 CURVE"
);
}
);
width = 840;
},
{
associatedMasterId = "BE599D47-15C2-4DC8-BE97-05FFE6CA3179";
background = {
paths = (
{
closed = 1;
nodes = (
"343 173 OFFCURVE",
"335 182 OFFCURVE",
"335 210 CURVE SMOOTH",
"335 321 OFFCURVE",
"460 496 OFFCURVE",
"535 496 CURVE SMOOTH",
"552 496 OFFCURVE",
"560 487 OFFCURVE",
"560 464 CURVE SMOOTH",
"560 369 OFFCURVE",
"422 173 OFFCURVE",
"357 173 CURVE SMOOTH"
);
},
{
closed = 1;
nodes = (
"917 610 OFFCURVE",
"911 616 OFFCURVE",
"905 618 CURVE",
"856 601 OFFCURVE",
"805 590 OFFCURVE",
"753 590 CURVE SMOOTH",
"660 590 OFFCURVE",
"597 626 OFFCURVE",
"500 626 CURVE SMOOTH",
"231 626 OFFCURVE",
"-1 355 OFFCURVE",
"-1 126 CURVE SMOOTH",
"-1 8 OFFCURVE",
"59 -71 OFFCURVE",
"173 -71 CURVE SMOOTH",
"288 -71 OFFCURVE",
"396 9 OFFCURVE",
"450 116 CURVE",
"454 114 LINE",
"441 70 OFFCURVE",
"435 35 OFFCURVE",
"435 8 CURVE SMOOTH",
"435 -60 OFFCURVE",
"476 -78 OFFCURVE",
"546 -78 CURVE SMOOTH",
"646 -78 OFFCURVE",
"730 -42 OFFCURVE",
"791 18 CURVE",
"768 32 OFFCURVE",
"751 62 OFFCURVE",
"751 123 CURVE SMOOTH",
"751 283 OFFCURVE",
"871 510 OFFCURVE",
"919 605 CURVE"
);
}
);
};
layerId = "14E9DE77-F38F-423A-8810-9CC3EE493866";
name = "Regular Italic Mar 23 16, 22:51";
paths = (
{
closed = 1;
nodes = (
"343 184 OFFCURVE",
"335 193 OFFCURVE",
"335 221 CURVE SMOOTH",
"335 328 OFFCURVE",
"460 496 OFFCURVE",
"535 496 CURVE SMOOTH",
"552 496 OFFCURVE",
"560 487 OFFCURVE",
"560 464 CURVE SMOOTH",
"560 373 OFFCURVE",
"422 184 OFFCURVE",
"357 184 CURVE SMOOTH"
);
},
{
closed = 1;
nodes = (
"917 610 OFFCURVE",
"911 616 OFFCURVE",
"905 618 CURVE",
"856 601 OFFCURVE",
"805 590 OFFCURVE",
"753 590 CURVE SMOOTH",
"660 590 OFFCURVE",
"597 626 OFFCURVE",
"500 626 CURVE SMOOTH",
"231 626 OFFCURVE",
"-1 349 OFFCURVE",
"-1 146 CURVE SMOOTH",
"-1 28 OFFCURVE",
"59 -51 OFFCURVE",
"173 -51 CURVE SMOOTH",
"290 -51 OFFCURVE",
"400 24 OFFCURVE",
"455 125 CURVE",
"459 123 LINE",
"432 -61 OFFCURVE",
"345 -144 OFFCURVE",
"209 -144 CURVE SMOOTH",
"129 -144 OFFCURVE",
"44 -115 OFFCURVE",
"-20 -25 CURVE",
"-83 -61 OFFCURVE",
"-111 -117 OFFCURVE",
"-111 -178 CURVE SMOOTH",
"-111 -301 OFFCURVE",
"4 -400 OFFCURVE",
"169 -400 CURVE SMOOTH",
"353 -400 OFFCURVE",
"511 -276 OFFCURVE",
"635 -96 CURVE SMOOTH",
"777 109 OFFCURVE",
"892 419 OFFCURVE",
"919 605 CURVE"
);
}
);
width = 859;
},
{
associatedMasterId = "BE599D47-15C2-4DC8-BE97-05FFE6CA3179";
background = {
paths = (
{
closed = 1;
nodes = (
"343 184 OFFCURVE",
"335 193 OFFCURVE",
"335 221 CURVE SMOOTH",
"335 328 OFFCURVE",
"460 496 OFFCURVE",
"535 496 CURVE SMOOTH",
"552 496 OFFCURVE",
"560 487 OFFCURVE",
"560 464 CURVE SMOOTH",
"560 373 OFFCURVE",
"422 184 OFFCURVE",
"357 184 CURVE SMOOTH"
);
},
{
closed = 1;
nodes = (
"917 610 OFFCURVE",
"911 616 OFFCURVE",
"905 618 CURVE",
"856 601 OFFCURVE",
"805 590 OFFCURVE",
"753 590 CURVE SMOOTH",
"660 590 OFFCURVE",
"597 626 OFFCURVE",
"500 626 CURVE SMOOTH",
"231 626 OFFCURVE",
"-1 349 OFFCURVE",
"-1 146 CURVE SMOOTH",
"-1 28 OFFCURVE",
"59 -51 OFFCURVE",
"173 -51 CURVE SMOOTH",
"290 -51 OFFCURVE",
"400 24 OFFCURVE",
"455 125 CURVE",
"459 123 LINE",
"432 -61 OFFCURVE",
"345 -144 OFFCURVE",
"209 -144 CURVE SMOOTH",
"129 -144 OFFCURVE",
"44 -115 OFFCURVE",
"-20 -25 CURVE",
"-83 -61 OFFCURVE",
"-111 -117 OFFCURVE",
"-111 -178 CURVE SMOOTH",
"-111 -301 OFFCURVE",
"4 -400 OFFCURVE",
"169 -400 CURVE SMOOTH",
"353 -400 OFFCURVE",
"511 -276 OFFCURVE",
"635 -96 CURVE SMOOTH",
"777 109 OFFCURVE",
"892 419 OFFCURVE",
"919 605 CURVE"
);
}
);
};
layerId = "66812923-0CD4-409B-86F5-D58409C8D7C3";
name = "Regular Italic Mar 23 16, 23:08";
paths = (
{
closed = 1;
nodes = (
"343 184 OFFCURVE",
"335 193 OFFCURVE",
"335 221 CURVE SMOOTH",
"335 328 OFFCURVE",
"460 496 OFFCURVE",
"535 496 CURVE SMOOTH",
"552 496 OFFCURVE",
"560 487 OFFCURVE",
"560 464 CURVE SMOOTH",
"560 373 OFFCURVE",
"422 184 OFFCURVE",
"357 184 CURVE SMOOTH"
);
},
{
closed = 1;
nodes = (
"917 610 OFFCURVE",
"911 616 OFFCURVE",
"905 618 CURVE",
"856 601 OFFCURVE",
"805 590 OFFCURVE",
"753 590 CURVE SMOOTH",
"660 590 OFFCURVE",
"597 626 OFFCURVE",
"500 626 CURVE SMOOTH",
"231 626 OFFCURVE",
"-1 349 OFFCURVE",
"-1 146 CURVE SMOOTH",
"-1 28 OFFCURVE",
"59 -51 OFFCURVE",
"173 -51 CURVE SMOOTH",
"290 -51 OFFCURVE",
"400 24 OFFCURVE",
"455 125 CURVE",
"459 123 LINE",
"432 -61 OFFCURVE",
"345 -144 OFFCURVE",
"209 -144 CURVE SMOOTH",
"129 -144 OFFCURVE",
"44 -115 OFFCURVE",
"-20 -25 CURVE",
"-83 -61 OFFCURVE",
"-111 -117 OFFCURVE",
"-111 -178 CURVE SMOOTH",
"-111 -321 OFFCURVE",
"36 -401 OFFCURVE",
"203 -401 CURVE SMOOTH",
"468 -401 OFFCURVE",
"646 -212 OFFCURVE",
"718 8 CURVE SMOOTH",
"779 196 OFFCURVE",
"811 419 OFFCURVE",
"919 605 CURVE"
);
}
);
width = 829;
},
{
associatedMasterId = "BE599D47-15C2-4DC8-BE97-05FFE6CA3179";
background = {
paths = (
{
closed = 1;
nodes = (
"343 184 OFFCURVE",
"335 193 OFFCURVE",
"335 221 CURVE SMOOTH",
"335 328 OFFCURVE",
"460 496 OFFCURVE",
"535 496 CURVE SMOOTH",
"552 496 OFFCURVE",
"560 487 OFFCURVE",
"560 464 CURVE SMOOTH",
"560 373 OFFCURVE",
"422 184 OFFCURVE",
"357 184 CURVE SMOOTH"
);
},
{
closed = 1;
nodes = (
"917 610 OFFCURVE",
"911 616 OFFCURVE",
"905 618 CURVE",
"856 601 OFFCURVE",
"805 590 OFFCURVE",
"753 590 CURVE SMOOTH",
"660 590 OFFCURVE",
"597 626 OFFCURVE",
"500 626 CURVE SMOOTH",
"231 626 OFFCURVE",
"-1 349 OFFCURVE",
"-1 146 CURVE SMOOTH",
"-1 28 OFFCURVE",
"59 -51 OFFCURVE",
"173 -51 CURVE SMOOTH",
"290 -51 OFFCURVE",
"400 24 OFFCURVE",
"455 125 CURVE",
"459 123 LINE",
"432 -61 OFFCURVE",
"345 -144 OFFCURVE",
"209 -144 CURVE SMOOTH",
"129 -144 OFFCURVE",
"44 -115 OFFCURVE",
"-20 -25 CURVE",
"-83 -61 OFFCURVE",
"-111 -117 OFFCURVE",
"-111 -178 CURVE SMOOTH",
"-111 -321 OFFCURVE",
"36 -401 OFFCURVE",
"203 -401 CURVE SMOOTH",
"468 -401 OFFCURVE",
"646 -212 OFFCURVE",
"718 8 CURVE SMOOTH",
"779 196 OFFCURVE",
"811 419 OFFCURVE",
"919 605 CURVE"
);
}
);
};
layerId = "BC2C6A20-5A6B-4CB2-8A67-B6AA62179CAB";
name = "Regular Italic Mar 24 16, 00:42";
paths = (
{
closed = 1;
nodes = (
"343 184 OFFCURVE",
"335 193 OFFCURVE",
"335 221 CURVE SMOOTH",
"335 328 OFFCURVE",
"460 496 OFFCURVE",
"535 496 CURVE SMOOTH",
"552 496 OFFCURVE",
"560 487 OFFCURVE",
"560 464 CURVE SMOOTH",
"560 373 OFFCURVE",
"422 184 OFFCURVE",
"357 184 CURVE SMOOTH"
);
},
{
closed = 1;
nodes = (
"917 610 OFFCURVE",
"911 616 OFFCURVE",
"905 618 CURVE",
"856 601 OFFCURVE",
"805 590 OFFCURVE",
"753 590 CURVE SMOOTH",
"660 590 OFFCURVE",
"597 626 OFFCURVE",
"500 626 CURVE SMOOTH",
"231 626 OFFCURVE",
"-1 349 OFFCURVE",
"-1 146 CURVE SMOOTH",
"-1 28 OFFCURVE",
"59 -51 OFFCURVE",
"173 -51 CURVE SMOOTH",
"290 -51 OFFCURVE",
"400 24 OFFCURVE",
"455 125 CURVE",
"459 123 LINE",
"436 -48 OFFCURVE",
"329 -155 OFFCURVE",
"192 -155 CURVE SMOOTH",
"103 -155 OFFCURVE",
"28 -123 OFFCURVE",
"-20 -25 CURVE",
"-83 -61 OFFCURVE",
"-111 -117 OFFCURVE",
"-111 -178 CURVE SMOOTH",
"-111 -321 OFFCURVE",
"36 -401 OFFCURVE",
"203 -401 CURVE SMOOTH",
"468 -401 OFFCURVE",
"646 -212 OFFCURVE",
"718 8 CURVE SMOOTH",
"779 196 OFFCURVE",
"811 419 OFFCURVE",
"919 605 CURVE"
);
}
);
width = 829;
},
{
associatedMasterId = "BE599D47-15C2-4DC8-BE97-05FFE6CA3179";
background = {
paths = (
{
closed = 1;
nodes = (
"343 184 OFFCURVE",
"335 193 OFFCURVE",
"335 221 CURVE SMOOTH",
"335 328 OFFCURVE",
"460 496 OFFCURVE",
"535 496 CURVE SMOOTH",
"552 496 OFFCURVE",
"560 487 OFFCURVE",
"560 464 CURVE SMOOTH",
"560 373 OFFCURVE",
"422 184 OFFCURVE",
"357 184 CURVE SMOOTH"
);
},
{
closed = 1;
nodes = (
"917 610 OFFCURVE",
"911 616 OFFCURVE",
"905 618 CURVE",
"856 601 OFFCURVE",
"805 590 OFFCURVE",
"753 590 CURVE SMOOTH",
"660 590 OFFCURVE",
"597 626 OFFCURVE",
"500 626 CURVE SMOOTH",
"231 626 OFFCURVE",
"-1 349 OFFCURVE",
"-1 146 CURVE SMOOTH",
"-1 28 OFFCURVE",
"59 -51 OFFCURVE",
"173 -51 CURVE SMOOTH",
"290 -51 OFFCURVE",
"400 24 OFFCURVE",
"455 125 CURVE",
"459 123 LINE",
"436 -48 OFFCURVE",
"329 -155 OFFCURVE",
"192 -155 CURVE SMOOTH",
"103 -155 OFFCURVE",
"28 -123 OFFCURVE",
"-20 -25 CURVE",
"-83 -61 OFFCURVE",
"-111 -117 OFFCURVE",
"-111 -178 CURVE SMOOTH",
"-111 -321 OFFCURVE",
"36 -401 OFFCURVE",
"203 -401 CURVE SMOOTH",
"468 -401 OFFCURVE",
"646 -212 OFFCURVE",
"718 8 CURVE SMOOTH",
"779 196 OFFCURVE",
"811 419 OFFCURVE",
"919 605 CURVE"
);
}
);
};
layerId = "E072FAA1-54B9-4B8D-8080-F67B5AC4A769";
name = "Regular Italic Mar 24 16, 00:43";
paths = (
{
closed = 1;
nodes = (
"343 184 OFFCURVE",
"335 193 OFFCURVE",
"335 221 CURVE SMOOTH",
"335 328 OFFCURVE",
"460 496 OFFCURVE",
"535 496 CURVE SMOOTH",
"552 496 OFFCURVE",
"560 487 OFFCURVE",
"560 464 CURVE SMOOTH",
"560 373 OFFCURVE",
"422 184 OFFCURVE",
"357 184 CURVE SMOOTH"
);
},
{
closed = 1;
nodes = (
"917 610 OFFCURVE",
"911 616 OFFCURVE",
"905 618 CURVE",
"856 601 OFFCURVE",
"805 590 OFFCURVE",
"753 590 CURVE SMOOTH",
"660 590 OFFCURVE",
"597 626 OFFCURVE",
"500 626 CURVE SMOOTH",
"231 626 OFFCURVE",
"-1 349 OFFCURVE",
"-1 146 CURVE SMOOTH",
"-1 28 OFFCURVE",
"59 -51 OFFCURVE",
"173 -51 CURVE SMOOTH",
"290 -51 OFFCURVE",
"400 24 OFFCURVE",
"455 125 CURVE",
"459 123 LINE",
"436 -48 OFFCURVE",
"329 -155 OFFCURVE",
"192 -155 CURVE SMOOTH",
"103 -155 OFFCURVE",
"28 -123 OFFCURVE",
"-20 -25 CURVE",
"-103 -41 OFFCURVE",
"-161 -118 OFFCURVE",
"-161 -200 CURVE SMOOTH",
"-161 -338 OFFCURVE",
"-9 -414 OFFCURVE",
"187 -408 CURVE SMOOTH",
"452 -400 OFFCURVE",
"646 -242 OFFCURVE",
"718 8 CURVE SMOOTH",
"773 199 OFFCURVE",
"811 419 OFFCURVE",
"919 605 CURVE"
);
}
);
width = 829;
},
{
associatedMasterId = "BE599D47-15C2-4DC8-BE97-05FFE6CA3179";
background = {
paths = (
{
closed = 1;
nodes = (
"343 184 OFFCURVE",
"335 193 OFFCURVE",
"335 221 CURVE SMOOTH",
"335 328 OFFCURVE",
"460 496 OFFCURVE",
"535 496 CURVE SMOOTH",
"552 496 OFFCURVE",
"560 487 OFFCURVE",
"560 464 CURVE SMOOTH",
"560 373 OFFCURVE",
"422 184 OFFCURVE",
"357 184 CURVE SMOOTH"
);
},
{
closed = 1;
nodes = (
"917 610 OFFCURVE",
"911 616 OFFCURVE",
"905 618 CURVE",
"856 601 OFFCURVE",
"805 590 OFFCURVE",
"753 590 CURVE SMOOTH",
"660 590 OFFCURVE",
"597 626 OFFCURVE",
"500 626 CURVE SMOOTH",
"231 626 OFFCURVE",
"-1 349 OFFCURVE",
"-1 146 CURVE SMOOTH",
"-1 28 OFFCURVE",
"59 -51 OFFCURVE",
"173 -51 CURVE SMOOTH",
"290 -51 OFFCURVE",
"400 24 OFFCURVE",
"455 125 CURVE",
"459 123 LINE",
"436 -48 OFFCURVE",
"329 -155 OFFCURVE",
"192 -155 CURVE SMOOTH",
"103 -155 OFFCURVE",
"28 -123 OFFCURVE",
"-20 -25 CURVE",
"-83 -61 OFFCURVE",
"-111 -117 OFFCURVE",
"-111 -178 CURVE SMOOTH",
"-111 -321 OFFCURVE",
"36 -401 OFFCURVE",
"203 -401 CURVE SMOOTH",
"468 -401 OFFCURVE",
"646 -212 OFFCURVE",
"718 8 CURVE SMOOTH",
"779 196 OFFCURVE",
"811 419 OFFCURVE",
"919 605 CURVE"
);
}
);
};
layerId = "AF2BBEAE-096E-4968-98F4-3CD59FBF5AC5";
name = "Regular Italic Mar 24 16, 00:46";
paths = (
{
closed = 1;
nodes = (
"343 184 OFFCURVE",
"335 193 OFFCURVE",
"335 221 CURVE SMOOTH",
"335 328 OFFCURVE",
"460 496 OFFCURVE",
"535 496 CURVE SMOOTH",
"552 496 OFFCURVE",
"560 487 OFFCURVE",
"560 464 CURVE SMOOTH",
"560 373 OFFCURVE",
"422 184 OFFCURVE",
"357 184 CURVE SMOOTH"
);
},
{
closed = 1;
nodes = (
"917 610 OFFCURVE",
"911 616 OFFCURVE",
"905 618 CURVE",
"856 601 OFFCURVE",
"805 590 OFFCURVE",
"753 590 CURVE SMOOTH",
"660 590 OFFCURVE",
"597 626 OFFCURVE",
"500 626 CURVE SMOOTH",
"231 626 OFFCURVE",
"-1 349 OFFCURVE",
"-1 146 CURVE SMOOTH",
"-1 28 OFFCURVE",
"59 -51 OFFCURVE",
"173 -51 CURVE SMOOTH",
"290 -51 OFFCURVE",
"400 24 OFFCURVE",
"455 125 CURVE",
"459 123 LINE",
"439 -24 OFFCURVE",
"345 -94 OFFCURVE",
"231 -116 CURVE SMOOTH",
"126 -136 OFFCURVE",
"37 -94 OFFCURVE",
"-20 -25 CURVE",
"-103 -41 OFFCURVE",
"-161 -118 OFFCURVE",
"-161 -200 CURVE SMOOTH",
"-161 -338 OFFCURVE",
"-9 -414 OFFCURVE",
"187 -408 CURVE SMOOTH",
"452 -400 OFFCURVE",
"646 -242 OFFCURVE",
"718 8 CURVE SMOOTH",
"773 199 OFFCURVE",
"811 419 OFFCURVE",
"919 605 CURVE"
);
}
);
width = 829;
},
{
associatedMasterId = "BE599D47-15C2-4DC8-BE97-05FFE6CA3179";
background = {
paths = (
{
closed = 1;
nodes = (
"343 184 OFFCURVE",
"335 193 OFFCURVE",
"335 221 CURVE SMOOTH",
"335 328 OFFCURVE",
"460 496 OFFCURVE",
"535 496 CURVE SMOOTH",
"552 496 OFFCURVE",
"560 487 OFFCURVE",
"560 464 CURVE SMOOTH",
"560 373 OFFCURVE",
"422 184 OFFCURVE",
"357 184 CURVE SMOOTH"
);
},
{
closed = 1;
nodes = (
"917 610 OFFCURVE",
"911 616 OFFCURVE",
"905 618 CURVE",
"856 601 OFFCURVE",
"805 590 OFFCURVE",
"753 590 CURVE SMOOTH",
"660 590 OFFCURVE",
"597 626 OFFCURVE",
"500 626 CURVE SMOOTH",
"231 626 OFFCURVE",
"-1 349 OFFCURVE",
"-1 146 CURVE SMOOTH",
"-1 28 OFFCURVE",
"59 -51 OFFCURVE",
"173 -51 CURVE SMOOTH",
"290 -51 OFFCURVE",
"400 24 OFFCURVE",
"455 125 CURVE",
"459 123 LINE",
"436 -48 OFFCURVE",
"329 -155 OFFCURVE",
"192 -155 CURVE SMOOTH",
"103 -155 OFFCURVE",
"28 -123 OFFCURVE",
"-20 -25 CURVE",
"-83 -61 OFFCURVE",
"-111 -117 OFFCURVE",
"-111 -178 CURVE SMOOTH",
"-111 -321 OFFCURVE",
"36 -401 OFFCURVE",
"203 -401 CURVE SMOOTH",
"468 -401 OFFCURVE",
"646 -212 OFFCURVE",
"718 8 CURVE SMOOTH",
"779 196 OFFCURVE",
"811 419 OFFCURVE",
"919 605 CURVE"
);
}
);
};
layerId = "D1D65BF1-46D1-4E3D-B227-34F552981DC1";
name = "Regular Italic Mar 24 16, 00:47";
paths = (
{
closed = 1;
nodes = (
"343 184 OFFCURVE",
"335 193 OFFCURVE",
"335 221 CURVE SMOOTH",
"335 328 OFFCURVE",
"460 496 OFFCURVE",
"535 496 CURVE SMOOTH",
"552 496 OFFCURVE",
"560 487 OFFCURVE",
"560 464 CURVE SMOOTH",
"560 373 OFFCURVE",
"422 184 OFFCURVE",
"357 184 CURVE SMOOTH"
);
},
{
closed = 1;
nodes = (
"917 610 OFFCURVE",
"911 616 OFFCURVE",
"905 618 CURVE",
"856 601 OFFCURVE",
"805 590 OFFCURVE",
"753 590 CURVE SMOOTH",
"660 590 OFFCURVE",
"597 626 OFFCURVE",
"500 626 CURVE SMOOTH",
"231 626 OFFCURVE",
"-1 354 OFFCURVE",
"-1 154 CURVE SMOOTH",
"-1 36 OFFCURVE",
"59 -43 OFFCURVE",
"173 -43 CURVE SMOOTH",
"290 -43 OFFCURVE",
"400 32 OFFCURVE",
"455 133 CURVE",
"459 131 LINE",
"441 -27 OFFCURVE",
"339 -136 OFFCURVE",
"192 -136 CURVE SMOOTH",
"109 -136 OFFCURVE",
"29 -91 OFFCURVE",
"-20 -17 CURVE",
"-86 -33 OFFCURVE",
"-132 -110 OFFCURVE",
"-132 -192 CURVE SMOOTH",
"-132 -325 OFFCURVE",
"-11 -400 OFFCURVE",
"157 -400 CURVE SMOOTH",
"432 -400 OFFCURVE",
"653 -216 OFFCURVE",
"718 8 CURVE SMOOTH",
"773 199 OFFCURVE",
"811 419 OFFCURVE",
"919 605 CURVE"
);
}
);
width = 829;
}
);
unicode = 0067;
},
{
glyphname = h;
lastChange = "2016-03-19 04:33:06 +0000";
layers = (
{
background = {
paths = (
{
closed = 1;
nodes = (
"210 -78 OFFCURVE",
"293 -38 OFFCURVE",
"350 10 CURVE",
"343 33 OFFCURVE",
"339 57 OFFCURVE",
"339 90 CURVE SMOOTH",
"339 366 OFFCURVE",
"607 699 OFFCURVE",
"607 870 CURVE SMOOTH",
"607 948 OFFCURVE",
"552 967 OFFCURVE",
"477 967 CURVE SMOOTH",
"384 967 OFFCURVE",
"282 939 OFFCURVE",
"187 882 CURVE",
"211 838 OFFCURVE",
"216 793 OFFCURVE",
"216 755 CURVE SMOOTH",
"216 494 OFFCURVE",
"-20 306 OFFCURVE",
"-20 92 CURVE SMOOTH",
"-20 -19 OFFCURVE",
"46 -78 OFFCURVE",
"136 -78 CURVE SMOOTH"
);
},
{
closed = 1;
nodes = (
"671 -77 OFFCURVE",
"755 -45 OFFCURVE",
"824 15 CURVE",
"799 44 OFFCURVE",
"792 64 OFFCURVE",
"792 95 CURVE SMOOTH",
"792 230 OFFCURVE",
"906 368 OFFCURVE",
"906 461 CURVE SMOOTH",
"906 532 OFFCURVE",
"836 584 OFFCURVE",
"749 584 CURVE SMOOTH",
"568 584 OFFCURVE",
"347 351 OFFCURVE",
"254 244 CURVE",
"341 66 LINE",
"331 142 OFFCURVE",
"417 318 OFFCURVE",
"468 318 CURVE SMOOTH",
"499 318 OFFCURVE",
"506 298 OFFCURVE",
"506 274 CURVE SMOOTH",
"506 197 OFFCURVE",
"437 103 OFFCURVE",
"437 22 CURVE SMOOTH",
"437 -32 OFFCURVE",
"488 -77 OFFCURVE",
"587 -77 CURVE SMOOTH"
);
}
);
};
layerId = "BE599D47-15C2-4DC8-BE97-05FFE6CA3179";
paths = (
{
closed = 1;
nodes = (
"213 -78 OFFCURVE",
"296 -38 OFFCURVE",
"353 10 CURVE",
"346 33 OFFCURVE",
"342 57 OFFCURVE",
"342 90 CURVE SMOOTH",
"342 366 OFFCURVE",
"610 699 OFFCURVE",
"610 870 CURVE SMOOTH",
"610 948 OFFCURVE",
"555 967 OFFCURVE",
"480 967 CURVE SMOOTH",
"387 967 OFFCURVE",
"283 939 OFFCURVE",
"188 882 CURVE",
"212 838 OFFCURVE",
"217 793 OFFCURVE",
"217 755 CURVE SMOOTH",
"217 482 OFFCURVE",
"-7 286 OFFCURVE",
"-7 62 CURVE SMOOTH",
"-7 -29 OFFCURVE",
"55 -78 OFFCURVE",
"139 -78 CURVE SMOOTH"
);
},
{
closed = 1;
nodes = (
"674 -77 OFFCURVE",
"758 -45 OFFCURVE",
"827 15 CURVE",
"802 44 OFFCURVE",
"795 64 OFFCURVE",
"795 95 CURVE SMOOTH",
"795 246 OFFCURVE",
"909 406 OFFCURVE",
"909 505 CURVE SMOOTH",
"909 576 OFFCURVE",
"839 628 OFFCURVE",
"752 628 CURVE SMOOTH",
"571 628 OFFCURVE",
"350 379 OFFCURVE",
"257 244 CURVE",
"342 84 LINE",
"342 197 OFFCURVE",
"420 350 OFFCURVE",
"471 350 CURVE SMOOTH",
"502 350 OFFCURVE",
"509 330 OFFCURVE",
"509 306 CURVE SMOOTH",
"509 219 OFFCURVE",
"440 113 OFFCURVE",
"440 22 CURVE SMOOTH",
"440 -32 OFFCURVE",
"491 -77 OFFCURVE",
"590 -77 CURVE SMOOTH"
);
}
);
width = 900;
}
);
unicode = 0068;
},
{
glyphname = i;
lastChange = "2016-03-19 04:33:06 +0000";
layers = (
{
background = {
paths = (
{
closed = 1;
nodes = (
"465 674 OFFCURVE",
"574 765 OFFCURVE",
"574 859 CURVE SMOOTH",
"574 906 OFFCURVE",
"547 965 OFFCURVE",
"448 965 CURVE SMOOTH",
"319 965 OFFCURVE",
"196 865 OFFCURVE",
"196 766 CURVE SMOOTH",
"196 708 OFFCURVE",
"238 674 OFFCURVE",
"323 674 CURVE SMOOTH"
);
},
{
closed = 1;
nodes = (
"214 -78 OFFCURVE",
"297 -38 OFFCURVE",
"354 10 CURVE",
"341 36 OFFCURVE",
"333 61 OFFCURVE",
"333 95 CURVE SMOOTH",
"333 247 OFFCURVE",
"494 421 OFFCURVE",
"494 521 CURVE SMOOTH",
"494 590 OFFCURVE",
"418 607 OFFCURVE",
"336 607 CURVE SMOOTH",
"260 607 OFFCURVE",
"193 592 OFFCURVE",
"124 562 CURVE",
"133 537 OFFCURVE",
"138 512 OFFCURVE",
"138 485 CURVE SMOOTH",
"138 328 OFFCURVE",
"-28 211 OFFCURVE",
"-28 69 CURVE SMOOTH",
"-28 -23 OFFCURVE",
"43 -78 OFFCURVE",
"135 -78 CURVE SMOOTH"
);
}
);
};
layerId = "BE599D47-15C2-4DC8-BE97-05FFE6CA3179";
paths = (
{
closed = 1;
nodes = (
"218 -78 OFFCURVE",
"301 -38 OFFCURVE",
"358 10 CURVE",
"345 36 OFFCURVE",
"337 61 OFFCURVE",
"337 95 CURVE SMOOTH",
"337 254 OFFCURVE",
"498 441 OFFCURVE",
"498 541 CURVE SMOOTH",
"498 610 OFFCURVE",
"422 627 OFFCURVE",
"340 627 CURVE SMOOTH",
"260 627 OFFCURVE",
"190 612 OFFCURVE",
"118 582 CURVE",
"127 557 OFFCURVE",
"132 532 OFFCURVE",
"132 505 CURVE SMOOTH",
"132 340 OFFCURVE",
"-14 218 OFFCURVE",
"-14 69 CURVE SMOOTH",
"-14 -23 OFFCURVE",
"53 -78 OFFCURVE",
"139 -78 CURVE SMOOTH"
);
},
{
closed = 1;
nodes = (
"464 674 OFFCURVE",
"573 765 OFFCURVE",
"573 859 CURVE SMOOTH",
"573 906 OFFCURVE",
"546 965 OFFCURVE",
"447 965 CURVE SMOOTH",
"318 965 OFFCURVE",
"195 865 OFFCURVE",
"195 766 CURVE SMOOTH",
"195 708 OFFCURVE",
"237 674 OFFCURVE",
"322 674 CURVE SMOOTH"
);
}
);
width = 452;
}
);
unicode = 0069;
},
{
glyphname = j;
lastChange = "2016-03-24 17:16:16 +0000";
layers = (
{
background = {
paths = (
{
closed = 1;
nodes = (
"-335 -160 OFFCURVE",
"-340 -190 OFFCURVE",
"-340 -217 CURVE SMOOTH",
"-340 -336 OFFCURVE",
"-213 -414 OFFCURVE",
"-88 -414 CURVE SMOOTH",
"93 -414 OFFCURVE",
"217 -239 OFFCURVE",
"304 -27 CURVE SMOOTH",
"344 70 OFFCURVE",
"478 490 OFFCURVE",
"479 540 CURVE SMOOTH",
"480 609 OFFCURVE",
"403 626 OFFCURVE",
"321 626 CURVE SMOOTH",
"241 626 OFFCURVE",
"170 611 OFFCURVE",
"99 582 CURVE",
"107 556 OFFCURVE",
"112 531 OFFCURVE",
"112 504 CURVE SMOOTH",
"112 251 OFFCURVE",
"1 -170 OFFCURVE",
"-172 -170 CURVE SMOOTH",
"-211 -170 OFFCURVE",
"-261 -158 OFFCURVE",
"-323 -129 CURVE"
);
},
{
closed = 1;
nodes = (
"444 673 OFFCURVE",
"553 764 OFFCURVE",
"553 858 CURVE SMOOTH",
"553 905 OFFCURVE",
"526 964 OFFCURVE",
"427 964 CURVE SMOOTH",
"298 964 OFFCURVE",
"175 864 OFFCURVE",
"175 765 CURVE SMOOTH",
"175 707 OFFCURVE",
"217 673 OFFCURVE",
"302 673 CURVE SMOOTH"
);
}
);
};
layerId = "BE599D47-15C2-4DC8-BE97-05FFE6CA3179";
paths = (
{
closed = 1;
nodes = (
"-266 -320 OFFCURVE",
"-201 -400 OFFCURVE",
"-88 -400 CURVE SMOOTH",
"93 -400 OFFCURVE",
"217 -225 OFFCURVE",
"304 -13 CURVE SMOOTH",
"344 84 OFFCURVE",
"478 491 OFFCURVE",
"479 540 CURVE SMOOTH",
"480 609 OFFCURVE",
"403 626 OFFCURVE",
"321 626 CURVE SMOOTH",
"241 626 OFFCURVE",
"170 611 OFFCURVE",
"99 582 CURVE",
"107 556 OFFCURVE",
"112 531 OFFCURVE",
"112 504 CURVE SMOOTH",
"112 347 OFFCURVE",
"68 150 OFFCURVE",
"-7 -6 CURVE SMOOTH",
"-57 -110 OFFCURVE",
"-155 -182 OFFCURVE",
"-283 -215 CURVE"
);
},
{
closed = 1;
nodes = (
"444 673 OFFCURVE",
"553 764 OFFCURVE",
"553 858 CURVE SMOOTH",
"553 905 OFFCURVE",
"526 964 OFFCURVE",
"427 964 CURVE SMOOTH",
"298 964 OFFCURVE",
"175 864 OFFCURVE",
"175 765 CURVE SMOOTH",
"175 707 OFFCURVE",
"217 673 OFFCURVE",
"302 673 CURVE SMOOTH"
);
}
);
width = 452;
},
{
associatedMasterId = "BE599D47-15C2-4DC8-BE97-05FFE6CA3179";
background = {
paths = (
{
closed = 1;
nodes = (
"218 -78 OFFCURVE",
"301 -38 OFFCURVE",
"358 10 CURVE",
"345 36 OFFCURVE",
"337 61 OFFCURVE",
"337 95 CURVE SMOOTH",
"337 254 OFFCURVE",
"498 441 OFFCURVE",
"498 541 CURVE SMOOTH",
"498 610 OFFCURVE",
"422 627 OFFCURVE",
"340 627 CURVE SMOOTH",
"260 627 OFFCURVE",
"190 612 OFFCURVE",
"118 582 CURVE",
"127 557 OFFCURVE",
"132 532 OFFCURVE",
"132 505 CURVE SMOOTH",
"132 340 OFFCURVE",
"-14 218 OFFCURVE",
"-14 69 CURVE SMOOTH",
"-14 -23 OFFCURVE",
"53 -78 OFFCURVE",
"139 -78 CURVE SMOOTH"
);
},
{
closed = 1;
nodes = (
"464 674 OFFCURVE",
"573 765 OFFCURVE",
"573 859 CURVE SMOOTH",
"573 906 OFFCURVE",
"546 965 OFFCURVE",
"447 965 CURVE SMOOTH",
"318 965 OFFCURVE",
"195 865 OFFCURVE",
"195 766 CURVE SMOOTH",
"195 708 OFFCURVE",
"237 674 OFFCURVE",
"322 674 CURVE SMOOTH"
);
}
);
};
layerId = "897FA6F8-6354-43E7-A6A4-D9A92ACCA928";
name = "Regular Italic Mar 24 16, 01:33";
paths = (
{
closed = 1;
nodes = (
"218 -78 OFFCURVE",
"301 -38 OFFCURVE",
"358 10 CURVE",
"345 36 OFFCURVE",
"337 61 OFFCURVE",
"337 95 CURVE SMOOTH",
"337 254 OFFCURVE",
"498 441 OFFCURVE",
"498 541 CURVE SMOOTH",
"498 610 OFFCURVE",
"422 627 OFFCURVE",
"340 627 CURVE SMOOTH",
"260 627 OFFCURVE",
"190 612 OFFCURVE",
"118 582 CURVE",
"127 557 OFFCURVE",
"132 532 OFFCURVE",
"132 505 CURVE SMOOTH",
"132 340 OFFCURVE",
"-14 218 OFFCURVE",
"-14 69 CURVE SMOOTH",
"-14 -23 OFFCURVE",
"53 -78 OFFCURVE",
"139 -78 CURVE SMOOTH"
);
},
{
closed = 1;
nodes = (
"464 674 OFFCURVE",
"573 765 OFFCURVE",
"573 859 CURVE SMOOTH",
"573 906 OFFCURVE",
"546 965 OFFCURVE",
"447 965 CURVE SMOOTH",
"318 965 OFFCURVE",
"195 865 OFFCURVE",
"195 766 CURVE SMOOTH",
"195 708 OFFCURVE",
"237 674 OFFCURVE",
"322 674 CURVE SMOOTH"
);
}
);
width = 452;
},
{
associatedMasterId = "BE599D47-15C2-4DC8-BE97-05FFE6CA3179";
background = {
paths = (
{
closed = 1;
nodes = (
"218 -78 OFFCURVE",
"301 -38 OFFCURVE",
"358 10 CURVE",
"345 36 OFFCURVE",
"337 61 OFFCURVE",
"337 95 CURVE SMOOTH",
"337 254 OFFCURVE",
"498 441 OFFCURVE",
"498 541 CURVE SMOOTH",
"498 610 OFFCURVE",
"422 627 OFFCURVE",
"340 627 CURVE SMOOTH",
"260 627 OFFCURVE",
"190 612 OFFCURVE",
"118 582 CURVE",
"127 557 OFFCURVE",
"132 532 OFFCURVE",
"132 505 CURVE SMOOTH",
"132 340 OFFCURVE",
"-14 218 OFFCURVE",
"-14 69 CURVE SMOOTH",
"-14 -23 OFFCURVE",
"53 -78 OFFCURVE",
"139 -78 CURVE SMOOTH"
);
},
{
closed = 1;
nodes = (
"464 674 OFFCURVE",
"573 765 OFFCURVE",
"573 859 CURVE SMOOTH",
"573 906 OFFCURVE",
"546 965 OFFCURVE",
"447 965 CURVE SMOOTH",
"318 965 OFFCURVE",
"195 865 OFFCURVE",
"195 766 CURVE SMOOTH",
"195 708 OFFCURVE",
"237 674 OFFCURVE",
"322 674 CURVE SMOOTH"
);
}
);
};
layerId = "7AB13D9B-0469-416A-B90B-EEADEE2D4CE3";
name = "Regular Italic Mar 24 16, 01:40";
paths = (
{
closed = 1;
nodes = (
"-325 -160 OFFCURVE",
"-330 -190 OFFCURVE",
"-330 -217 CURVE SMOOTH",
"-330 -336 OFFCURVE",
"-203 -414 OFFCURVE",
"-78 -414 CURVE SMOOTH",
"103 -415 OFFCURVE",
"210 -239 OFFCURVE",
"308 -29 CURVE SMOOTH",
"354 70 OFFCURVE",
"498 490 OFFCURVE",
"499 540 CURVE SMOOTH",
"500 609 OFFCURVE",
"423 626 OFFCURVE",
"341 626 CURVE SMOOTH",
"261 626 OFFCURVE",
"190 611 OFFCURVE",
"119 582 CURVE",
"127 556 OFFCURVE",
"132 531 OFFCURVE",
"132 504 CURVE SMOOTH",
"133 251 OFFCURVE",
"11 -172 OFFCURVE",
"-162 -170 CURVE SMOOTH",
"-201 -170 OFFCURVE",
"-251 -158 OFFCURVE",
"-313 -129 CURVE"
);
},
{
closed = 1;
nodes = (
"464 673 OFFCURVE",
"573 764 OFFCURVE",
"573 858 CURVE SMOOTH",
"573 905 OFFCURVE",
"546 964 OFFCURVE",
"447 964 CURVE SMOOTH",
"318 964 OFFCURVE",
"195 864 OFFCURVE",
"195 765 CURVE SMOOTH",
"195 707 OFFCURVE",
"237 673 OFFCURVE",
"322 673 CURVE SMOOTH"
);
}
);
width = 452;
},
{
associatedMasterId = "BE599D47-15C2-4DC8-BE97-05FFE6CA3179";
background = {
paths = (
{
closed = 1;
nodes = (
"-283 -202 OFFCURVE",
"-285 -232 OFFCURVE",
"-284 -259 CURVE SMOOTH",
"-280 -378 OFFCURVE",
"-143 -446 OFFCURVE",
"-18 -438 CURVE SMOOTH",
"163 -426 OFFCURVE",
"255 -243 OFFCURVE",
"340 -27 CURVE SMOOTH",
"380 75 OFFCURVE",
"493 505 OFFCURVE",
"490 555 CURVE SMOOTH",
"486 623 OFFCURVE",
"409 635 OFFCURVE",
"327 629 CURVE SMOOTH",
"247 623 OFFCURVE",
"178 604 OFFCURVE",
"109 569 CURVE",
"119 545 OFFCURVE",
"126 520 OFFCURVE",
"127 493 CURVE SMOOTH",
"136 239 OFFCURVE",
"53 -191 OFFCURVE",
"-120 -200 CURVE SMOOTH",
"-158 -202 OFFCURVE",
"-209 -194 OFFCURVE",
"-273 -170 CURVE"
);
},
{
closed = 1;
nodes = (
"477 685 OFFCURVE",
"579 783 OFFCURVE",
"573 877 CURVE SMOOTH",
"570 924 OFFCURVE",
"538 981 OFFCURVE",
"440 974 CURVE SMOOTH",
"311 965 OFFCURVE",
"195 857 OFFCURVE",
"202 758 CURVE SMOOTH",
"206 700 OFFCURVE",
"250 669 OFFCURVE",
"335 675 CURVE SMOOTH"
);
}
);
};
layerId = "A19F2C2F-036D-4C30-BC5D-82CBCAC2C98F";
name = "Regular Italic Mar 24 16, 01:47";
paths = (
{
closed = 1;
nodes = (
"-345 -160 OFFCURVE",
"-350 -190 OFFCURVE",
"-350 -217 CURVE SMOOTH",
"-350 -336 OFFCURVE",
"-223 -414 OFFCURVE",
"-98 -414 CURVE SMOOTH",
"83 -414 OFFCURVE",
"190 -239 OFFCURVE",
"288 -29 CURVE SMOOTH",
"334 70 OFFCURVE",
"478 490 OFFCURVE",
"479 540 CURVE SMOOTH",
"480 609 OFFCURVE",
"403 626 OFFCURVE",
"321 626 CURVE SMOOTH",
"241 626 OFFCURVE",
"170 611 OFFCURVE",
"99 582 CURVE",
"107 556 OFFCURVE",
"112 531 OFFCURVE",
"112 504 CURVE SMOOTH",
"112 251 OFFCURVE",
"-9 -170 OFFCURVE",
"-182 -170 CURVE SMOOTH",
"-221 -170 OFFCURVE",
"-271 -158 OFFCURVE",
"-333 -129 CURVE"
);
},
{
closed = 1;
nodes = (
"444 673 OFFCURVE",
"553 764 OFFCURVE",
"553 858 CURVE SMOOTH",
"553 905 OFFCURVE",
"526 964 OFFCURVE",
"427 964 CURVE SMOOTH",
"298 964 OFFCURVE",
"175 864 OFFCURVE",
"175 765 CURVE SMOOTH",
"175 707 OFFCURVE",
"217 673 OFFCURVE",
"302 673 CURVE SMOOTH"
);
}
);
width = 452;
},
{
associatedMasterId = "BE599D47-15C2-4DC8-BE97-05FFE6CA3179";
background = {
paths = (
{
closed = 1;
nodes = (
"-283 -202 OFFCURVE",
"-285 -232 OFFCURVE",
"-284 -259 CURVE SMOOTH",
"-280 -378 OFFCURVE",
"-143 -446 OFFCURVE",
"-18 -438 CURVE SMOOTH",
"163 -426 OFFCURVE",
"255 -243 OFFCURVE",
"340 -27 CURVE SMOOTH",
"380 75 OFFCURVE",
"493 505 OFFCURVE",
"490 555 CURVE SMOOTH",
"486 623 OFFCURVE",
"409 635 OFFCURVE",
"327 629 CURVE SMOOTH",
"247 623 OFFCURVE",
"178 604 OFFCURVE",
"109 569 CURVE",
"119 545 OFFCURVE",
"126 520 OFFCURVE",
"127 493 CURVE SMOOTH",
"136 239 OFFCURVE",
"53 -191 OFFCURVE",
"-120 -200 CURVE SMOOTH",
"-158 -202 OFFCURVE",
"-209 -194 OFFCURVE",
"-273 -170 CURVE"
);
},
{
closed = 1;
nodes = (
"477 685 OFFCURVE",
"579 783 OFFCURVE",
"573 877 CURVE SMOOTH",
"570 924 OFFCURVE",
"538 981 OFFCURVE",
"440 974 CURVE SMOOTH",
"311 965 OFFCURVE",
"195 857 OFFCURVE",
"202 758 CURVE SMOOTH",
"206 700 OFFCURVE",
"250 669 OFFCURVE",
"335 675 CURVE SMOOTH"
);
}
);
};
layerId = "A2E17EA7-6041-49D4-9C33-087D93D8DA6C";
name = "Regular Italic Mar 24 16, 01:48";
paths = (
{
closed = 1;
nodes = (
"-345 -160 OFFCURVE",
"-350 -190 OFFCURVE",
"-350 -217 CURVE SMOOTH",
"-350 -336 OFFCURVE",
"-223 -414 OFFCURVE",
"-98 -414 CURVE SMOOTH",
"83 -414 OFFCURVE",
"190 -239 OFFCURVE",
"288 -29 CURVE SMOOTH",
"334 70 OFFCURVE",
"478 490 OFFCURVE",
"479 540 CURVE SMOOTH",
"480 609 OFFCURVE",
"403 626 OFFCURVE",
"321 626 CURVE SMOOTH",
"241 626 OFFCURVE",
"170 611 OFFCURVE",
"99 582 CURVE",
"107 556 OFFCURVE",
"112 531 OFFCURVE",
"112 504 CURVE SMOOTH",
"112 251 OFFCURVE",
"-9 -170 OFFCURVE",
"-182 -170 CURVE SMOOTH",
"-221 -170 OFFCURVE",
"-271 -158 OFFCURVE",
"-333 -129 CURVE"
);
},
{
closed = 1;
nodes = (
"444 673 OFFCURVE",
"553 764 OFFCURVE",
"553 858 CURVE SMOOTH",
"553 905 OFFCURVE",
"526 964 OFFCURVE",
"427 964 CURVE SMOOTH",
"298 964 OFFCURVE",
"175 864 OFFCURVE",
"175 765 CURVE SMOOTH",
"175 707 OFFCURVE",
"217 673 OFFCURVE",
"302 673 CURVE SMOOTH"
);
}
);
width = 452;
},
{
associatedMasterId = "BE599D47-15C2-4DC8-BE97-05FFE6CA3179";
background = {
paths = (
{
closed = 1;
nodes = (
"-335 -160 OFFCURVE",
"-340 -190 OFFCURVE",
"-340 -217 CURVE SMOOTH",
"-340 -336 OFFCURVE",
"-213 -414 OFFCURVE",
"-88 -414 CURVE SMOOTH",
"93 -414 OFFCURVE",
"217 -239 OFFCURVE",
"304 -27 CURVE SMOOTH",
"344 70 OFFCURVE",
"478 490 OFFCURVE",
"479 540 CURVE SMOOTH",
"480 609 OFFCURVE",
"403 626 OFFCURVE",
"321 626 CURVE SMOOTH",
"241 626 OFFCURVE",
"170 611 OFFCURVE",
"99 582 CURVE",
"107 556 OFFCURVE",
"112 531 OFFCURVE",
"112 504 CURVE SMOOTH",
"112 251 OFFCURVE",
"1 -170 OFFCURVE",
"-172 -170 CURVE SMOOTH",
"-211 -170 OFFCURVE",
"-261 -158 OFFCURVE",
"-323 -129 CURVE"
);
},
{
closed = 1;
nodes = (
"444 673 OFFCURVE",
"553 764 OFFCURVE",
"553 858 CURVE SMOOTH",
"553 905 OFFCURVE",
"526 964 OFFCURVE",
"427 964 CURVE SMOOTH",
"298 964 OFFCURVE",
"175 864 OFFCURVE",
"175 765 CURVE SMOOTH",
"175 707 OFFCURVE",
"217 673 OFFCURVE",
"302 673 CURVE SMOOTH"
);
}
);
};
layerId = "A9D66F18-D9AE-4EC9-A8CF-FF9C4326E035";
name = "Regular Italic Mar 24 16, 01:50";
paths = (
{
closed = 1;
nodes = (
"-295 -180 OFFCURVE",
"-300 -210 OFFCURVE",
"-300 -237 CURVE SMOOTH",
"-300 -344 OFFCURVE",
"-193 -414 OFFCURVE",
"-88 -414 CURVE SMOOTH",
"93 -414 OFFCURVE",
"217 -239 OFFCURVE",
"304 -27 CURVE SMOOTH",
"344 70 OFFCURVE",
"478 490 OFFCURVE",
"479 540 CURVE SMOOTH",
"480 609 OFFCURVE",
"403 626 OFFCURVE",
"321 626 CURVE SMOOTH",
"241 626 OFFCURVE",
"170 611 OFFCURVE",
"99 582 CURVE",
"107 556 OFFCURVE",
"112 531 OFFCURVE",
"112 504 CURVE SMOOTH",
"112 251 OFFCURVE",
"1 -170 OFFCURVE",
"-172 -170 CURVE SMOOTH",
"-201 -170 OFFCURVE",
"-237 -164 OFFCURVE",
"-283 -149 CURVE"
);
},
{
closed = 1;
nodes = (
"444 673 OFFCURVE",
"553 764 OFFCURVE",
"553 858 CURVE SMOOTH",
"553 905 OFFCURVE",
"526 964 OFFCURVE",
"427 964 CURVE SMOOTH",
"298 964 OFFCURVE",
"175 864 OFFCURVE",
"175 765 CURVE SMOOTH",
"175 707 OFFCURVE",
"217 673 OFFCURVE",
"302 673 CURVE SMOOTH"
);
}
);
width = 452;
},
{
associatedMasterId = "BE599D47-15C2-4DC8-BE97-05FFE6CA3179";
background = {
paths = (
{
closed = 1;
nodes = (
"-335 -160 OFFCURVE",
"-340 -190 OFFCURVE",
"-340 -217 CURVE SMOOTH",
"-340 -336 OFFCURVE",
"-213 -414 OFFCURVE",
"-88 -414 CURVE SMOOTH",
"93 -414 OFFCURVE",
"217 -239 OFFCURVE",
"304 -27 CURVE SMOOTH",
"344 70 OFFCURVE",
"478 490 OFFCURVE",
"479 540 CURVE SMOOTH",
"480 609 OFFCURVE",
"403 626 OFFCURVE",
"321 626 CURVE SMOOTH",
"241 626 OFFCURVE",
"170 611 OFFCURVE",
"99 582 CURVE",
"107 556 OFFCURVE",
"112 531 OFFCURVE",
"112 504 CURVE SMOOTH",
"112 251 OFFCURVE",
"1 -170 OFFCURVE",
"-172 -170 CURVE SMOOTH",
"-211 -170 OFFCURVE",
"-261 -158 OFFCURVE",
"-323 -129 CURVE"
);
},
{
closed = 1;
nodes = (
"444 673 OFFCURVE",
"553 764 OFFCURVE",
"553 858 CURVE SMOOTH",
"553 905 OFFCURVE",
"526 964 OFFCURVE",
"427 964 CURVE SMOOTH",
"298 964 OFFCURVE",
"175 864 OFFCURVE",
"175 765 CURVE SMOOTH",
"175 707 OFFCURVE",
"217 673 OFFCURVE",
"302 673 CURVE SMOOTH"
);
}
);
};
layerId = "E6B224CC-5B5F-4DEC-A3DE-86C3CB4F3450";
name = "Regular Italic Mar 24 16, 01:50";
paths = (
{
closed = 1;
nodes = (
"-266 -334 OFFCURVE",
"-201 -414 OFFCURVE",
"-88 -414 CURVE SMOOTH",
"93 -414 OFFCURVE",
"217 -239 OFFCURVE",
"304 -27 CURVE SMOOTH",
"344 70 OFFCURVE",
"478 490 OFFCURVE",
"479 540 CURVE SMOOTH",
"480 609 OFFCURVE",
"403 626 OFFCURVE",
"321 626 CURVE SMOOTH",
"241 626 OFFCURVE",
"170 611 OFFCURVE",
"99 582 CURVE",
"107 556 OFFCURVE",
"112 531 OFFCURVE",
"112 504 CURVE SMOOTH",
"112 241 OFFCURVE",
"48 -145 OFFCURVE",
"-283 -229 CURVE"
);
},
{
closed = 1;
nodes = (
"444 673 OFFCURVE",
"553 764 OFFCURVE",
"553 858 CURVE SMOOTH",
"553 905 OFFCURVE",
"526 964 OFFCURVE",
"427 964 CURVE SMOOTH",
"298 964 OFFCURVE",
"175 864 OFFCURVE",
"175 765 CURVE SMOOTH",
"175 707 OFFCURVE",
"217 673 OFFCURVE",
"302 673 CURVE SMOOTH"
);
}
);
width = 452;
}
);
unicode = 006A;
},
{
glyphname = k;
lastChange = "2016-03-23 19:27:24 +0000";
layers = (
{
background = {
paths = (
{
closed = 1;
nodes = (
"203 -78 OFFCURVE",
"287 -38 OFFCURVE",
"344 10 CURVE",
"337 33 OFFCURVE",
"333 57 OFFCURVE",
"333 90 CURVE SMOOTH",
"333 361 OFFCURVE",
"590 688 OFFCURVE",
"590 861 CURVE SMOOTH",
"590 947 OFFCURVE",
"538 967 OFFCURVE",
"460 967 CURVE SMOOTH",
"369 967 OFFCURVE",
"267 939 OFFCURVE",
"174 882 CURVE",
"198 838 OFFCURVE",
"203 793 OFFCURVE",
"203 755 CURVE SMOOTH",
"203 480 OFFCURVE",
"-10 283 OFFCURVE",
"-10 60 CURVE SMOOTH",
"-10 -30 OFFCURVE",
"49 -78 OFFCURVE",
"128 -78 CURVE SMOOTH"
);
},
{
closed = 1;
nodes = (
"466 280 OFFCURVE",
"861 338 OFFCURVE",
"861 488 CURVE SMOOTH",
"861 552 OFFCURVE",
"804 633 OFFCURVE",
"684 656 CURVE",
"600 500 OFFCURVE",
"476 386 OFFCURVE",
"307 351 CURVE",
"343 255 LINE"
);
},
{
closed = 1;
nodes = (
"420 32 OFFCURVE",
"524 -78 OFFCURVE",
"638 -78 CURVE SMOOTH",
"747 -78 OFFCURVE",
"818 19 OFFCURVE",
"826 210 CURVE",
"786 201 OFFCURVE",
"748 195 OFFCURVE",
"713 195 CURVE SMOOTH",
"626 195 OFFCURVE",
"553 228 OFFCURVE",
"486 322 CURVE",
"329 265 LINE"
);
}
);
};
layerId = "BE599D47-15C2-4DC8-BE97-05FFE6CA3179";
paths = (
{
closed = 1;
nodes = (
"203 -78 OFFCURVE",
"287 -38 OFFCURVE",
"344 10 CURVE",
"337 33 OFFCURVE",
"333 57 OFFCURVE",
"333 90 CURVE SMOOTH",
"333 361 OFFCURVE",
"590 688 OFFCURVE",
"590 861 CURVE SMOOTH",
"590 947 OFFCURVE",
"538 967 OFFCURVE",
"460 967 CURVE SMOOTH",
"369 967 OFFCURVE",
"267 939 OFFCURVE",
"174 882 CURVE",
"198 838 OFFCURVE",
"203 793 OFFCURVE",
"203 755 CURVE SMOOTH",
"203 480 OFFCURVE",
"-10 283 OFFCURVE",
"-10 60 CURVE SMOOTH",
"-10 -30 OFFCURVE",
"49 -78 OFFCURVE",
"128 -78 CURVE SMOOTH"
);
},
{
closed = 1;
nodes = (
"356 278 OFFCURVE",
"372 278 OFFCURVE",
"388 278 CURVE SMOOTH",
"593 278 OFFCURVE",
"870 363 OFFCURVE",
"870 525 CURVE SMOOTH",
"870 614 OFFCURVE",
"785 657 OFFCURVE",
"684 656 CURVE",
"613 520 OFFCURVE",
"509 421 OFFCURVE",
"367 391 CURVE",
"340 279 LINE"
);
},
{
closed = 1;
nodes = (
"420 46 OFFCURVE",
"524 -78 OFFCURVE",
"645 -78 CURVE SMOOTH",
"788 -78 OFFCURVE",
"842 93 OFFCURVE",
"826 240 CURVE",
"794 218 OFFCURVE",
"761 208 OFFCURVE",
"728 208 CURVE SMOOTH",
"663 208 OFFCURVE",
"599 246 OFFCURVE",
"566 321 CURVE",
"340 279 LINE"
);
}
);
width = 880;
},
{
associatedMasterId = "BE599D47-15C2-4DC8-BE97-05FFE6CA3179";
background = {
paths = (
{
closed = 1;
nodes = (
"664 -77 OFFCURVE",
"748 -45 OFFCURVE",
"817 15 CURVE",
"792 44 OFFCURVE",
"785 64 OFFCURVE",
"785 95 CURVE SMOOTH",
"785 246 OFFCURVE",
"899 406 OFFCURVE",
"899 505 CURVE SMOOTH",
"899 576 OFFCURVE",
"829 628 OFFCURVE",
"742 628 CURVE SMOOTH",
"561 628 OFFCURVE",
"340 379 OFFCURVE",
"247 244 CURVE",
"332 84 LINE",
"332 197 OFFCURVE",
"410 350 OFFCURVE",
"461 350 CURVE SMOOTH",
"492 350 OFFCURVE",
"499 330 OFFCURVE",
"499 306 CURVE SMOOTH",
"499 219 OFFCURVE",
"430 113 OFFCURVE",
"430 22 CURVE SMOOTH",
"430 -32 OFFCURVE",
"481 -77 OFFCURVE",
"580 -77 CURVE SMOOTH"
);
},
{
closed = 1;
nodes = (
"203 -78 OFFCURVE",
"286 -38 OFFCURVE",
"343 10 CURVE",
"336 33 OFFCURVE",
"332 57 OFFCURVE",
"332 85 CURVE SMOOTH",
"332 255 OFFCURVE",
"463 486 OFFCURVE",
"463 561 CURVE SMOOTH",
"463 614 OFFCURVE",
"397 627 OFFCURVE",
"325 627 CURVE SMOOTH",
"249 627 OFFCURVE",
"182 612 OFFCURVE",
"113 582 CURVE",
"122 557 OFFCURVE",
"127 532 OFFCURVE",
"127 505 CURVE SMOOTH",
"127 344 OFFCURVE",
"-19 211 OFFCURVE",
"-19 59 CURVE SMOOTH",
"-19 -27 OFFCURVE",
"43 -78 OFFCURVE",
"124 -78 CURVE SMOOTH"
);
}
);
};
layerId = "2C34A18A-FFAD-47C2-AB74-0BF93E5A9EBE";
name = "Regular Italic Mar 23 16, 16:23";
paths = (
{
closed = 1;
nodes = (
"203 -78 OFFCURVE",
"287 -38 OFFCURVE",
"344 10 CURVE",
"337 33 OFFCURVE",
"333 57 OFFCURVE",
"333 90 CURVE SMOOTH",
"333 361 OFFCURVE",
"590 688 OFFCURVE",
"590 861 CURVE SMOOTH",
"590 947 OFFCURVE",
"538 967 OFFCURVE",
"460 967 CURVE SMOOTH",
"369 967 OFFCURVE",
"267 939 OFFCURVE",
"174 882 CURVE",
"198 838 OFFCURVE",
"203 793 OFFCURVE",
"203 755 CURVE SMOOTH",
"203 480 OFFCURVE",
"-10 283 OFFCURVE",
"-10 60 CURVE SMOOTH",
"-10 -30 OFFCURVE",
"49 -78 OFFCURVE",
"128 -78 CURVE SMOOTH"
);
},
{
closed = 1;
nodes = (
"466 280 OFFCURVE",
"861 338 OFFCURVE",
"861 488 CURVE SMOOTH",
"861 552 OFFCURVE",
"804 633 OFFCURVE",
"684 656 CURVE",
"600 500 OFFCURVE",
"476 386 OFFCURVE",
"307 351 CURVE",
"343 255 LINE"
);
},
{
closed = 1;
nodes = (
"420 32 OFFCURVE",
"524 -78 OFFCURVE",
"638 -78 CURVE SMOOTH",
"747 -78 OFFCURVE",
"818 19 OFFCURVE",
"826 210 CURVE",
"786 201 OFFCURVE",
"748 195 OFFCURVE",
"713 195 CURVE SMOOTH",
"626 195 OFFCURVE",
"553 228 OFFCURVE",
"486 322 CURVE",
"329 265 LINE"
);
}
);
width = 880;
}
);
unicode = 006B;
},
{
glyphname = l;
lastChange = "2016-03-24 00:40:06 +0000";
layers = (
{
background = {
paths = (
{
closed = 1;
nodes = (
"223 -78 OFFCURVE",
"306 -38 OFFCURVE",
"363 10 CURVE",
"356 33 OFFCURVE",
"352 57 OFFCURVE",
"352 90 CURVE SMOOTH",
"352 366 OFFCURVE",
"588 699 OFFCURVE",
"588 870 CURVE SMOOTH",
"588 948 OFFCURVE",
"533 967 OFFCURVE",
"458 967 CURVE SMOOTH",
"365 967 OFFCURVE",
"263 939 OFFCURVE",
"168 882 CURVE",
"192 838 OFFCURVE",
"197 793 OFFCURVE",
"197 755 CURVE SMOOTH",
"197 482 OFFCURVE",
"-7 286 OFFCURVE",
"-7 62 CURVE SMOOTH",
"-7 -29 OFFCURVE",
"59 -78 OFFCURVE",
"149 -78 CURVE SMOOTH"
);
}
);
};
layerId = "BE599D47-15C2-4DC8-BE97-05FFE6CA3179";
paths = (
{
closed = 1;
nodes = (
"203 -78 OFFCURVE",
"287 -38 OFFCURVE",
"344 10 CURVE",
"337 33 OFFCURVE",
"333 57 OFFCURVE",
"333 90 CURVE SMOOTH",
"333 366 OFFCURVE",
"590 699 OFFCURVE",
"581 870 CURVE SMOOTH",
"577 948 OFFCURVE",
"526 967 OFFCURVE",
"451 967 CURVE SMOOTH",
"360 967 OFFCURVE",
"258 939 OFFCURVE",
"165 882 CURVE",
"189 838 OFFCURVE",
"194 793 OFFCURVE",
"194 755 CURVE SMOOTH",
"194 482 OFFCURVE",
"-8 286 OFFCURVE",
"-10 62 CURVE SMOOTH",
"-11 -29 OFFCURVE",
"48 -78 OFFCURVE",
"128 -78 CURVE SMOOTH"
);
}
);
width = 440;
}
);
unicode = 006C;
},
{
glyphname = m;
lastChange = "2016-03-24 06:20:35 +0000";
layers = (
{
background = {
paths = (
{
closed = 1;
nodes = (
"205 -78 OFFCURVE",
"288 -38 OFFCURVE",
"345 10 CURVE",
"338 33 OFFCURVE",
"334 57 OFFCURVE",
"334 85 CURVE SMOOTH",
"334 255 OFFCURVE",
"465 486 OFFCURVE",
"465 561 CURVE SMOOTH",
"465 614 OFFCURVE",
"399 627 OFFCURVE",
"327 627 CURVE SMOOTH",
"251 627 OFFCURVE",
"184 612 OFFCURVE",
"115 582 CURVE",
"124 557 OFFCURVE",
"129 532 OFFCURVE",
"129 505 CURVE SMOOTH",
"129 344 OFFCURVE",
"-17 211 OFFCURVE",
"-17 59 CURVE SMOOTH",
"-17 -27 OFFCURVE",
"45 -78 OFFCURVE",
"126 -78 CURVE SMOOTH"
);
},
{
closed = 1;
nodes = (
"666 -77 OFFCURVE",
"750 -45 OFFCURVE",
"819 15 CURVE",
"794 44 OFFCURVE",
"787 64 OFFCURVE",
"787 95 CURVE SMOOTH",
"787 246 OFFCURVE",
"901 406 OFFCURVE",
"901 505 CURVE SMOOTH",
"901 576 OFFCURVE",
"831 628 OFFCURVE",
"744 628 CURVE SMOOTH",
"563 628 OFFCURVE",
"342 379 OFFCURVE",
"249 244 CURVE",
"334 84 LINE",
"334 197 OFFCURVE",
"412 350 OFFCURVE",
"463 350 CURVE SMOOTH",
"494 350 OFFCURVE",
"501 330 OFFCURVE",
"501 306 CURVE SMOOTH",
"501 219 OFFCURVE",
"432 113 OFFCURVE",
"432 22 CURVE SMOOTH",
"432 -32 OFFCURVE",
"483 -77 OFFCURVE",
"582 -77 CURVE SMOOTH"
);
}
);
};
layerId = "BE599D47-15C2-4DC8-BE97-05FFE6CA3179";
paths = (
{
closed = 1;
nodes = (
"1082 -77 OFFCURVE",
"1166 -45 OFFCURVE",
"1235 15 CURVE",
"1210 44 OFFCURVE",
"1203 64 OFFCURVE",
"1203 95 CURVE SMOOTH",
"1203 246 OFFCURVE",
"1317 406 OFFCURVE",
"1317 505 CURVE SMOOTH",
"1317 576 OFFCURVE",
"1247 628 OFFCURVE",
"1160 628 CURVE SMOOTH",
"985 628 OFFCURVE",
"771 379 OFFCURVE",
"681 244 CURVE",
"766 84 LINE",
"766 197 OFFCURVE",
"838 350 OFFCURVE",
"885 350 CURVE SMOOTH",
"916 350 OFFCURVE",
"923 330 OFFCURVE",
"923 306 CURVE SMOOTH",
"923 219 OFFCURVE",
"854 113 OFFCURVE",
"854 22 CURVE SMOOTH",
"854 -32 OFFCURVE",
"905 -77 OFFCURVE",
"1004 -77 CURVE SMOOTH"
);
},
{
closed = 1;
nodes = (
"200 -78 OFFCURVE",
"283 -38 OFFCURVE",
"340 10 CURVE",
"333 33 OFFCURVE",
"329 57 OFFCURVE",
"329 85 CURVE SMOOTH",
"329 255 OFFCURVE",
"460 486 OFFCURVE",
"460 561 CURVE SMOOTH",
"460 614 OFFCURVE",
"394 627 OFFCURVE",
"322 627 CURVE SMOOTH",
"248 627 OFFCURVE",
"184 612 OFFCURVE",
"115 582 CURVE",
"124 557 OFFCURVE",
"129 532 OFFCURVE",
"129 505 CURVE SMOOTH",
"124 344 OFFCURVE",
"-22 211 OFFCURVE",
"-17 59 CURVE SMOOTH",
"-17 -27 OFFCURVE",
"43 -78 OFFCURVE",
"121 -78 CURVE SMOOTH"
);
},
{
closed = 1;
nodes = (
"645 -77 OFFCURVE",
"729 -45 OFFCURVE",
"798 15 CURVE",
"773 44 OFFCURVE",
"766 64 OFFCURVE",
"766 95 CURVE SMOOTH",
"766 246 OFFCURVE",
"880 406 OFFCURVE",
"880 505 CURVE SMOOTH",
"880 576 OFFCURVE",
"810 628 OFFCURVE",
"723 628 CURVE SMOOTH",
"548 628 OFFCURVE",
"334 379 OFFCURVE",
"244 244 CURVE",
"329 84 LINE",
"329 197 OFFCURVE",
"401 350 OFFCURVE",
"448 350 CURVE SMOOTH",
"479 350 OFFCURVE",
"486 330 OFFCURVE",
"486 306 CURVE SMOOTH",
"486 219 OFFCURVE",
"417 113 OFFCURVE",
"417 22 CURVE SMOOTH",
"417 -32 OFFCURVE",
"468 -77 OFFCURVE",
"567 -77 CURVE SMOOTH"
);
}
);
width = 1308;
}
);
unicode = 006D;
},
{
glyphname = n;
lastChange = "2016-03-24 06:20:41 +0000";
layers = (
{
background = {
paths = (
{
closed = 1;
nodes = (
"203 -78 OFFCURVE",
"286 -38 OFFCURVE",
"343 10 CURVE",
"336 33 OFFCURVE",
"332 57 OFFCURVE",
"332 85 CURVE SMOOTH",
"332 248 OFFCURVE",
"463 466 OFFCURVE",
"463 541 CURVE SMOOTH",
"463 594 OFFCURVE",
"397 607 OFFCURVE",
"325 607 CURVE SMOOTH",
"249 607 OFFCURVE",
"182 592 OFFCURVE",
"113 562 CURVE",
"122 537 OFFCURVE",
"127 512 OFFCURVE",
"127 485 CURVE SMOOTH",
"127 328 OFFCURVE",
"-39 211 OFFCURVE",
"-39 69 CURVE SMOOTH",
"-39 -23 OFFCURVE",
"32 -78 OFFCURVE",
"124 -78 CURVE SMOOTH"
);
},
{
closed = 1;
nodes = (
"664 -77 OFFCURVE",
"748 -45 OFFCURVE",
"817 15 CURVE",
"792 44 OFFCURVE",
"785 64 OFFCURVE",
"785 95 CURVE SMOOTH",
"785 230 OFFCURVE",
"899 368 OFFCURVE",
"899 461 CURVE SMOOTH",
"899 532 OFFCURVE",
"829 584 OFFCURVE",
"742 584 CURVE SMOOTH",
"561 584 OFFCURVE",
"340 351 OFFCURVE",
"247 244 CURVE",
"334 66 LINE",
"324 142 OFFCURVE",
"410 318 OFFCURVE",
"461 318 CURVE SMOOTH",
"492 318 OFFCURVE",
"499 298 OFFCURVE",
"499 274 CURVE SMOOTH",
"499 197 OFFCURVE",
"430 103 OFFCURVE",
"430 22 CURVE SMOOTH",
"430 -32 OFFCURVE",
"481 -77 OFFCURVE",
"580 -77 CURVE SMOOTH"
);
}
);
};
layerId = "BE599D47-15C2-4DC8-BE97-05FFE6CA3179";
paths = (
{
closed = 1;
nodes = (
"664 -77 OFFCURVE",
"748 -45 OFFCURVE",
"817 15 CURVE",
"792 44 OFFCURVE",
"785 64 OFFCURVE",
"785 95 CURVE SMOOTH",
"785 246 OFFCURVE",
"899 406 OFFCURVE",
"899 505 CURVE SMOOTH",
"899 576 OFFCURVE",
"829 628 OFFCURVE",
"742 628 CURVE SMOOTH",
"561 628 OFFCURVE",
"340 379 OFFCURVE",
"247 244 CURVE",
"332 84 LINE",
"332 197 OFFCURVE",
"410 350 OFFCURVE",
"461 350 CURVE SMOOTH",
"492 350 OFFCURVE",
"499 330 OFFCURVE",
"499 306 CURVE SMOOTH",
"499 219 OFFCURVE",
"430 113 OFFCURVE",
"430 22 CURVE SMOOTH",
"430 -32 OFFCURVE",
"481 -77 OFFCURVE",
"580 -77 CURVE SMOOTH"
);
},
{
closed = 1;
nodes = (
"203 -78 OFFCURVE",
"286 -38 OFFCURVE",
"343 10 CURVE",
"336 33 OFFCURVE",
"332 57 OFFCURVE",
"332 85 CURVE SMOOTH",
"332 255 OFFCURVE",
"463 486 OFFCURVE",
"463 561 CURVE SMOOTH",
"463 614 OFFCURVE",
"397 627 OFFCURVE",
"325 627 CURVE SMOOTH",
"249 627 OFFCURVE",
"182 612 OFFCURVE",
"113 582 CURVE",
"122 557 OFFCURVE",
"127 532 OFFCURVE",
"127 505 CURVE SMOOTH",
"127 344 OFFCURVE",
"-19 211 OFFCURVE",
"-19 59 CURVE SMOOTH",
"-19 -27 OFFCURVE",
"43 -78 OFFCURVE",
"124 -78 CURVE SMOOTH"
);
}
);
width = 888;
}
);
unicode = 006E;
},
{
glyphname = o;
lastChange = "2016-03-24 06:20:16 +0000";
layers = (
{
background = {
paths = (
{
closed = 1;
nodes = (
"13 -4 OFFCURVE",
"159 -80 OFFCURVE",
"357 -80 CURVE SMOOTH",
"630 -80 OFFCURVE",
"832 117 OFFCURVE",
"832 376 CURVE SMOOTH",
"832 551 OFFCURVE",
"686 627 OFFCURVE",
"488 627 CURVE SMOOTH",
"215 627 OFFCURVE",
"13 430 OFFCURVE",
"13 171 CURVE SMOOTH"
);
},
{
closed = 1;
nodes = (
"344 87 OFFCURVE",
"334 94 OFFCURVE",
"329 119 CURVE SMOOTH",
"309 220 OFFCURVE",
"416 455 OFFCURVE",
"486 469 CURVE SMOOTH",
"501 472 OFFCURVE",
"511 465 OFFCURVE",
"517 435 CURVE SMOOTH",
"540 318 OFFCURVE",
"443 104 OFFCURVE",
"362 90 CURVE SMOOTH"
);
}
);
};
layerId = "BE599D47-15C2-4DC8-BE97-05FFE6CA3179";
paths = (
{
closed = 1;
nodes = (
"13 -4 OFFCURVE",
"159 -80 OFFCURVE",
"340 -80 CURVE SMOOTH",
"630 -80 OFFCURVE",
"832 117 OFFCURVE",
"832 352 CURVE SMOOTH",
"832 551 OFFCURVE",
"686 627 OFFCURVE",
"505 627 CURVE SMOOTH",
"215 627 OFFCURVE",
"13 430 OFFCURVE",
"13 196 CURVE SMOOTH"
);
},
{
closed = 1;
nodes = (
"335 90 OFFCURVE",
"326 108 OFFCURVE",
"326 145 CURVE SMOOTH",
"326 262 OFFCURVE",
"425 470 OFFCURVE",
"495 470 CURVE SMOOTH",
"515 470 OFFCURVE",
"520 453 OFFCURVE",
"520 424 CURVE SMOOTH",
"520 293 OFFCURVE",
"422 90 OFFCURVE",
"355 90 CURVE SMOOTH"
);
}
);
width = 840;
},
{
associatedMasterId = "BE599D47-15C2-4DC8-BE97-05FFE6CA3179";
layerId = "6EC963F8-BFCD-4A90-AE60-2B59650D0547";
name = "Regular Italic Mar 20 16, 00:30";
paths = (
{
closed = 1;
nodes = (
"513 -80 OFFCURVE",
"682 -9 OFFCURVE",
"682 135 CURVE SMOOTH",
"682 165 OFFCURVE",
"668 192 OFFCURVE",
"657 211 CURVE",
"605 159 OFFCURVE",
"532 133 OFFCURVE",
"467 133 CURVE SMOOTH",
"378 133 OFFCURVE",
"309 149 OFFCURVE",
"309 252 CURVE SMOOTH",
"309 391 OFFCURVE",
"391 554 OFFCURVE",
"637 554 CURVE",
"582 605 OFFCURVE",
"516 627 OFFCURVE",
"448 627 CURVE SMOOTH",
"240 627 OFFCURVE",
"13 438 OFFCURVE",
"13 171 CURVE SMOOTH",
"13 -4 OFFCURVE",
"159 -80 OFFCURVE",
"357 -80 CURVE SMOOTH"
);
},
{
closed = 1;
nodes = (
"332 627 OFFCURVE",
"163 556 OFFCURVE",
"163 412 CURVE SMOOTH",
"163 382 OFFCURVE",
"177 355 OFFCURVE",
"188 336 CURVE",
"240 388 OFFCURVE",
"313 414 OFFCURVE",
"378 414 CURVE SMOOTH",
"467 414 OFFCURVE",
"536 398 OFFCURVE",
"536 295 CURVE SMOOTH",
"536 156 OFFCURVE",
"454 -7 OFFCURVE",
"208 -7 CURVE",
"263 -58 OFFCURVE",
"329 -80 OFFCURVE",
"397 -80 CURVE SMOOTH",
"605 -80 OFFCURVE",
"832 109 OFFCURVE",
"832 376 CURVE SMOOTH",
"832 551 OFFCURVE",
"686 627 OFFCURVE",
"488 627 CURVE SMOOTH"
);
}
);
width = 840;
},
{
associatedMasterId = "BE599D47-15C2-4DC8-BE97-05FFE6CA3179";
background = {
paths = (
{
closed = 1;
nodes = (
"653 -77 OFFCURVE",
"737 -45 OFFCURVE",
"806 15 CURVE",
"781 44 OFFCURVE",
"774 64 OFFCURVE",
"774 95 CURVE SMOOTH",
"774 246 OFFCURVE",
"888 406 OFFCURVE",
"888 505 CURVE SMOOTH",
"888 576 OFFCURVE",
"818 628 OFFCURVE",
"731 628 CURVE SMOOTH",
"550 628 OFFCURVE",
"329 379 OFFCURVE",
"236 244 CURVE",
"321 84 LINE",
"321 197 OFFCURVE",
"399 350 OFFCURVE",
"450 350 CURVE SMOOTH",
"481 350 OFFCURVE",
"488 330 OFFCURVE",
"488 306 CURVE SMOOTH",
"488 219 OFFCURVE",
"419 113 OFFCURVE",
"419 22 CURVE SMOOTH",
"419 -32 OFFCURVE",
"470 -77 OFFCURVE",
"569 -77 CURVE SMOOTH"
);
},
{
closed = 1;
nodes = (
"192 -78 OFFCURVE",
"275 -38 OFFCURVE",
"332 10 CURVE",
"325 33 OFFCURVE",
"321 57 OFFCURVE",
"321 85 CURVE SMOOTH",
"321 255 OFFCURVE",
"452 486 OFFCURVE",
"452 561 CURVE SMOOTH",
"452 614 OFFCURVE",
"386 627 OFFCURVE",
"314 627 CURVE SMOOTH",
"238 627 OFFCURVE",
"171 612 OFFCURVE",
"102 582 CURVE",
"111 557 OFFCURVE",
"116 532 OFFCURVE",
"116 505 CURVE SMOOTH",
"116 344 OFFCURVE",
"-30 211 OFFCURVE",
"-30 59 CURVE SMOOTH",
"-30 -27 OFFCURVE",
"32 -78 OFFCURVE",
"113 -78 CURVE SMOOTH"
);
}
);
};
layerId = "B08AF343-5DB5-4C53-A385-BA154729BD9E";
name = "Regular Italic Mar 20 16, 09:58";
paths = (
{
closed = 1;
nodes = (
"13 -4 OFFCURVE",
"159 -80 OFFCURVE",
"357 -80 CURVE SMOOTH",
"630 -80 OFFCURVE",
"832 117 OFFCURVE",
"832 376 CURVE SMOOTH",
"832 551 OFFCURVE",
"686 627 OFFCURVE",
"488 627 CURVE SMOOTH",
"215 627 OFFCURVE",
"13 430 OFFCURVE",
"13 171 CURVE SMOOTH"
);
},
{
closed = 1;
nodes = (
"344 87 OFFCURVE",
"334 94 OFFCURVE",
"329 119 CURVE SMOOTH",
"309 220 OFFCURVE",
"416 455 OFFCURVE",
"486 469 CURVE SMOOTH",
"501 472 OFFCURVE",
"511 465 OFFCURVE",
"517 435 CURVE SMOOTH",
"540 318 OFFCURVE",
"443 104 OFFCURVE",
"362 90 CURVE SMOOTH"
);
}
);
width = 840;
}
);
unicode = 006F;
},
{
glyphname = p;
lastChange = "2016-03-24 03:54:36 +0000";
layers = (
{
background = {
paths = (
{
closed = 1;
nodes = (
"205 -78 OFFCURVE",
"288 -38 OFFCURVE",
"345 10 CURVE",
"338 33 OFFCURVE",
"334 57 OFFCURVE",
"334 85 CURVE SMOOTH",
"334 255 OFFCURVE",
"465 486 OFFCURVE",
"465 561 CURVE SMOOTH",
"465 614 OFFCURVE",
"399 627 OFFCURVE",
"327 627 CURVE SMOOTH",
"251 627 OFFCURVE",
"184 612 OFFCURVE",
"115 582 CURVE",
"124 557 OFFCURVE",
"129 532 OFFCURVE",
"129 505 CURVE SMOOTH",
"129 344 OFFCURVE",
"-17 211 OFFCURVE",
"-17 59 CURVE SMOOTH",
"-17 -27 OFFCURVE",
"45 -78 OFFCURVE",
"126 -78 CURVE SMOOTH"
);
}
);
};
layerId = "BE599D47-15C2-4DC8-BE97-05FFE6CA3179";
paths = (
{
closed = 1;
nodes = (
"-116 -370 OFFCURVE",
"-62 -400 OFFCURVE",
"-18 -400 CURVE SMOOTH",
"106 -400 OFFCURVE",
"154 -381 OFFCURVE",
"253 -324 CURVE",
"219 -255 OFFCURVE",
"223.907 -176.389 OFFCURVE",
"253.515 -63.168 CURVE",
"285.74 -72.941 OFFCURVE",
"319.584 -78 OFFCURVE",
"357 -78 CURVE SMOOTH",
"626 -78 OFFCURVE",
"858 197 OFFCURVE",
"858 429 CURVE SMOOTH",
"858 540 OFFCURVE",
"798 619 OFFCURVE",
"684 626 CURVE",
"569 626 OFFCURVE",
"461 543 OFFCURVE",
"407 432 CURVE",
"403 434 LINE",
"416 478 OFFCURVE",
"422 513 OFFCURVE",
"422 540 CURVE SMOOTH",
"422 608 OFFCURVE",
"381 626 OFFCURVE",
"311 626 CURVE SMOOTH",
"231 626 OFFCURVE",
"164 607 OFFCURVE",
"113 577 CURVE",
"128 564 OFFCURVE",
"128 531 OFFCURVE",
"128 482 CURVE SMOOTH",
"128 381 OFFCURVE",
"-116 -102 OFFCURVE",
"-116 -272 CURVE SMOOTH"
);
},
{
closed = 1;
nodes = (
"332 240 OFFCURVE",
"470 436 OFFCURVE",
"535 436 CURVE SMOOTH",
"549 436 OFFCURVE",
"557 427 OFFCURVE",
"557 399 CURVE SMOOTH",
"557 288 OFFCURVE",
"432 113 OFFCURVE",
"357 113 CURVE SMOOTH",
"340 113 OFFCURVE",
"332 122 OFFCURVE",
"332 145 CURVE SMOOTH"
);
}
);
width = 844;
},
{
associatedMasterId = "BE599D47-15C2-4DC8-BE97-05FFE6CA3179";
background = {
paths = (
{
closed = 1;
nodes = (
"635 -78 OFFCURVE",
"867 193 OFFCURVE",
"867 422 CURVE SMOOTH",
"867 540 OFFCURVE",
"807 619 OFFCURVE",
"693 619 CURVE SMOOTH",
"573 619 OFFCURVE",
"460 555 OFFCURVE",
"404 470 CURVE",
"400 472 LINE",
"413 516 OFFCURVE",
"569 709 OFFCURVE",
"569 841 CURVE SMOOTH",
"569 932 OFFCURVE",
"511 964 OFFCURVE",
"424 964 CURVE SMOOTH",
"343 964 OFFCURVE",
"241 936 OFFCURVE",
"156 882 CURVE",
"170 854 OFFCURVE",
"185 811 OFFCURVE",
"185 744 CURVE SMOOTH",
"185 526 OFFCURVE",
"24 299 OFFCURVE",
"24 125 CURVE SMOOTH",
"24 -37 OFFCURVE",
"162 -78 OFFCURVE",
"293 -78 CURVE SMOOTH"
);
},
{
closed = 1;
nodes = (
"338 111 OFFCURVE",
"330 120 OFFCURVE",
"330 143 CURVE SMOOTH",
"330 238 OFFCURVE",
"471 435 OFFCURVE",
"538 435 CURVE SMOOTH",
"552 435 OFFCURVE",
"560 426 OFFCURVE",
"560 398 CURVE SMOOTH",
"560 287 OFFCURVE",
"433 111 OFFCURVE",
"355 111 CURVE SMOOTH"
);
}
);
};
layerId = "F7E22523-EFB4-4C60-B556-2CC9B062E061";
name = "Regular Italic Mar 23 16, 22:28";
paths = (
{
closed = 1;
nodes = (
"514 375 OFFCURVE",
"522 366 OFFCURVE",
"522 338 CURVE SMOOTH",
"522 227 OFFCURVE",
"397 52 OFFCURVE",
"322 52 CURVE SMOOTH",
"305 52 OFFCURVE",
"297 61 OFFCURVE",
"297 84 CURVE SMOOTH",
"297 179 OFFCURVE",
"435 375 OFFCURVE",
"500 375 CURVE SMOOTH"
);
},
{
closed = 1;
nodes = (
"106 174 OFFCURVE",
"-156 -142 OFFCURVE",
"-156 -312 CURVE SMOOTH",
"-156 -410 OFFCURVE",
"-82 -420 OFFCURVE",
"-38 -420 CURVE SMOOTH",
"86 -420 OFFCURVE",
"154 -391 OFFCURVE",
"253 -334 CURVE",
"213 -252 OFFCURVE",
"227 -142 OFFCURVE",
"273 4 CURVE",
"104 18 LINE",
"187 -44 OFFCURVE",
"260 -78 OFFCURVE",
"357 -78 CURVE SMOOTH",
"626 -78 OFFCURVE",
"858 197 OFFCURVE",
"858 429 CURVE SMOOTH",
"858 540 OFFCURVE",
"798 619 OFFCURVE",
"684 626 CURVE SMOOTH",
"569 626 OFFCURVE",
"461 543 OFFCURVE",
"407 432 CURVE",
"403 434 LINE",
"416 478 OFFCURVE",
"422 513 OFFCURVE",
"422 540 CURVE SMOOTH",
"422 608 OFFCURVE",
"381 626 OFFCURVE",
"311 626 CURVE SMOOTH",
"211 626 OFFCURVE",
"127 590 OFFCURVE",
"66 530 CURVE",
"89 516 OFFCURVE",
"106 486 OFFCURVE",
"106 425 CURVE SMOOTH"
);
}
);
width = 838;
}
);
unicode = 0070;
},
{
glyphname = q;
lastChange = "2016-03-24 04:31:35 +0000";
layers = (
{
background = {
paths = (
{
closed = 1;
nodes = (
"343 184 OFFCURVE",
"335 193 OFFCURVE",
"335 221 CURVE SMOOTH",
"335 328 OFFCURVE",
"460 496 OFFCURVE",
"535 496 CURVE SMOOTH",
"552 496 OFFCURVE",
"560 487 OFFCURVE",
"560 464 CURVE SMOOTH",
"560 373 OFFCURVE",
"422 184 OFFCURVE",
"357 184 CURVE SMOOTH"
);
},
{
closed = 1;
nodes = (
"917 610 OFFCURVE",
"911 616 OFFCURVE",
"905 618 CURVE",
"856 601 OFFCURVE",
"805 590 OFFCURVE",
"753 590 CURVE SMOOTH",
"660 590 OFFCURVE",
"597 626 OFFCURVE",
"500 626 CURVE SMOOTH",
"231 626 OFFCURVE",
"-1 354 OFFCURVE",
"-1 145 CURVE SMOOTH",
"-1 36 OFFCURVE",
"59 -43 OFFCURVE",
"173 -43 CURVE SMOOTH",
"290 -43 OFFCURVE",
"400 32 OFFCURVE",
"455 133 CURVE",
"459 131 LINE",
"374 -42 OFFCURVE",
"340 -183 OFFCURVE",
"340 -281 CURVE SMOOTH",
"340 -357 OFFCURVE",
"375 -400 OFFCURVE",
"496 -400 CURVE SMOOTH",
"554 -400 OFFCURVE",
"633 -372 OFFCURVE",
"718 -323 CURVE",
"677 -287 OFFCURVE",
"673 -229 OFFCURVE",
"677 -182 CURVE SMOOTH",
"697 29 OFFCURVE",
"822 383 OFFCURVE",
"919 605 CURVE"
);
}
);
};
layerId = "BE599D47-15C2-4DC8-BE97-05FFE6CA3179";
paths = (
{
closed = 1;
nodes = (
"343 184 OFFCURVE",
"335 193 OFFCURVE",
"335 221 CURVE SMOOTH",
"335 328 OFFCURVE",
"460 496 OFFCURVE",
"535 496 CURVE SMOOTH",
"552 496 OFFCURVE",
"560 487 OFFCURVE",
"560 464 CURVE SMOOTH",
"560 373 OFFCURVE",
"422 184 OFFCURVE",
"357 184 CURVE SMOOTH"
);
},
{
closed = 1;
nodes = (
"917 610 OFFCURVE",
"911 616 OFFCURVE",
"905 618 CURVE",
"856 601 OFFCURVE",
"805 590 OFFCURVE",
"753 590 CURVE SMOOTH",
"660 590 OFFCURVE",
"597 626 OFFCURVE",
"500 626 CURVE SMOOTH",
"231 626 OFFCURVE",
"-1 354 OFFCURVE",
"-1 145 CURVE SMOOTH",
"-1 36 OFFCURVE",
"59 -43 OFFCURVE",
"173 -43 CURVE SMOOTH",
"290 -43 OFFCURVE",
"400 32 OFFCURVE",
"455 133 CURVE",
"459 131 LINE",
"374 -42 OFFCURVE",
"340 -173 OFFCURVE",
"340 -254 CURVE SMOOTH",
"340 -357 OFFCURVE",
"395 -400 OFFCURVE",
"498 -400 CURVE SMOOTH",
"570 -400 OFFCURVE",
"650 -379 OFFCURVE",
"718 -323 CURVE",
"690 -299 OFFCURVE",
"679 -253 OFFCURVE",
"679 -195 CURVE SMOOTH",
"679 12 OFFCURVE",
"822 385 OFFCURVE",
"919 605 CURVE"
);
}
);
width = 834;
}
);
unicode = 0071;
},
{
glyphname = r;
lastChange = "2016-03-24 06:20:47 +0000";
layers = (
{
background = {
paths = (
{
closed = 1;
nodes = (
"205 -78 OFFCURVE",
"288 -38 OFFCURVE",
"345 10 CURVE",
"338 33 OFFCURVE",
"334 57 OFFCURVE",
"334 85 CURVE SMOOTH",
"334 255 OFFCURVE",
"465 486 OFFCURVE",
"465 561 CURVE SMOOTH",
"465 614 OFFCURVE",
"399 627 OFFCURVE",
"327 627 CURVE SMOOTH",
"251 627 OFFCURVE",
"184 612 OFFCURVE",
"115 582 CURVE",
"124 557 OFFCURVE",
"129 532 OFFCURVE",
"129 505 CURVE SMOOTH",
"129 344 OFFCURVE",
"-17 211 OFFCURVE",
"-17 59 CURVE SMOOTH",
"-17 -27 OFFCURVE",
"45 -78 OFFCURVE",
"126 -78 CURVE SMOOTH"
);
},
{
closed = 1;
nodes = (
"334 218 OFFCURVE",
"392 335 OFFCURVE",
"520 335 CURVE SMOOTH",
"631 335 OFFCURVE",
"709 387 OFFCURVE",
"709 498 CURVE SMOOTH",
"709 536 OFFCURVE",
"703 580 OFFCURVE",
"692 626 CURVE",
"548 626 OFFCURVE",
"323 379 OFFCURVE",
"249 244 CURVE",
"334 84 LINE"
);
}
);
};
layerId = "BE599D47-15C2-4DC8-BE97-05FFE6CA3179";
paths = (
{
closed = 1;
nodes = (
"205 -78 OFFCURVE",
"288 -38 OFFCURVE",
"345 10 CURVE",
"338 33 OFFCURVE",
"334 57 OFFCURVE",
"334 85 CURVE SMOOTH",
"334 255 OFFCURVE",
"465 486 OFFCURVE",
"465 561 CURVE SMOOTH",
"465 614 OFFCURVE",
"399 627 OFFCURVE",
"327 627 CURVE SMOOTH",
"251 627 OFFCURVE",
"184 612 OFFCURVE",
"115 582 CURVE",
"124 557 OFFCURVE",
"129 532 OFFCURVE",
"129 505 CURVE SMOOTH",
"129 344 OFFCURVE",
"-17 211 OFFCURVE",
"-17 59 CURVE SMOOTH",
"-17 -27 OFFCURVE",
"45 -78 OFFCURVE",
"126 -78 CURVE SMOOTH"
);
},
{
closed = 1;
nodes = (
"334 218 OFFCURVE",
"392 335 OFFCURVE",
"520 335 CURVE SMOOTH",
"631 335 OFFCURVE",
"709 387 OFFCURVE",
"709 498 CURVE SMOOTH",
"709 536 OFFCURVE",
"703 580 OFFCURVE",
"692 626 CURVE",
"548 626 OFFCURVE",
"323 379 OFFCURVE",
"249 244 CURVE",
"334 84 LINE"
);
}
);
width = 647;
},
{
associatedMasterId = "BE599D47-15C2-4DC8-BE97-05FFE6CA3179";
background = {
paths = (
{
closed = 1;
nodes = (
"205 -78 OFFCURVE",
"288 -38 OFFCURVE",
"345 10 CURVE",
"338 33 OFFCURVE",
"334 57 OFFCURVE",
"334 85 CURVE SMOOTH",
"334 255 OFFCURVE",
"465 486 OFFCURVE",
"465 561 CURVE SMOOTH",
"465 614 OFFCURVE",
"399 627 OFFCURVE",
"327 627 CURVE SMOOTH",
"251 627 OFFCURVE",
"184 612 OFFCURVE",
"115 582 CURVE",
"124 557 OFFCURVE",
"129 532 OFFCURVE",
"129 505 CURVE SMOOTH",
"129 344 OFFCURVE",
"-17 211 OFFCURVE",
"-17 59 CURVE SMOOTH",
"-17 -27 OFFCURVE",
"45 -78 OFFCURVE",
"126 -78 CURVE SMOOTH"
);
},
{
closed = 1;
nodes = (
"666 -77 OFFCURVE",
"750 -45 OFFCURVE",
"819 15 CURVE",
"794 44 OFFCURVE",
"787 64 OFFCURVE",
"787 95 CURVE SMOOTH",
"787 246 OFFCURVE",
"901 406 OFFCURVE",
"901 505 CURVE SMOOTH",
"901 576 OFFCURVE",
"831 628 OFFCURVE",
"744 628 CURVE SMOOTH",
"563 628 OFFCURVE",
"342 379 OFFCURVE",
"249 244 CURVE",
"334 84 LINE",
"334 197 OFFCURVE",
"412 350 OFFCURVE",
"463 350 CURVE SMOOTH",
"494 350 OFFCURVE",
"501 330 OFFCURVE",
"501 306 CURVE SMOOTH",
"501 219 OFFCURVE",
"432 113 OFFCURVE",
"432 22 CURVE SMOOTH",
"432 -32 OFFCURVE",
"483 -77 OFFCURVE",
"582 -77 CURVE SMOOTH"
);
}
);
};
layerId = "91255AB2-E7B0-4927-AD27-4A798CD8A957";
name = "Regular Italic Mar 20 16, 00:17";
paths = (
{
closed = 1;
nodes = (
"205 -78 OFFCURVE",
"288 -38 OFFCURVE",
"345 10 CURVE",
"338 33 OFFCURVE",
"334 57 OFFCURVE",
"334 85 CURVE SMOOTH",
"334 255 OFFCURVE",
"465 486 OFFCURVE",
"465 561 CURVE SMOOTH",
"465 614 OFFCURVE",
"399 627 OFFCURVE",
"327 627 CURVE SMOOTH",
"251 627 OFFCURVE",
"184 612 OFFCURVE",
"115 582 CURVE",
"124 557 OFFCURVE",
"129 532 OFFCURVE",
"129 505 CURVE SMOOTH",
"129 344 OFFCURVE",
"-17 211 OFFCURVE",
"-17 59 CURVE SMOOTH",
"-17 -27 OFFCURVE",
"45 -78 OFFCURVE",
"126 -78 CURVE SMOOTH"
);
},
{
closed = 1;
nodes = (
"334 197 OFFCURVE",
"392 295 OFFCURVE",
"520 295 CURVE SMOOTH",
"631 295 OFFCURVE",
"709 360 OFFCURVE",
"709 498 CURVE SMOOTH",
"709 536 OFFCURVE",
"703 580 OFFCURVE",
"692 626 CURVE",
"548 626 OFFCURVE",
"323 379 OFFCURVE",
"249 244 CURVE",
"334 84 LINE"
);
}
);
width = 666;
},
{
associatedMasterId = "BE599D47-15C2-4DC8-BE97-05FFE6CA3179";
background = {
paths = (
{
closed = 1;
nodes = (
"205 -78 OFFCURVE",
"288 -38 OFFCURVE",
"345 10 CURVE",
"338 33 OFFCURVE",
"334 57 OFFCURVE",
"334 85 CURVE SMOOTH",
"334 255 OFFCURVE",
"465 486 OFFCURVE",
"465 561 CURVE SMOOTH",
"465 614 OFFCURVE",
"399 627 OFFCURVE",
"327 627 CURVE SMOOTH",
"251 627 OFFCURVE",
"184 612 OFFCURVE",
"115 582 CURVE",
"124 557 OFFCURVE",
"129 532 OFFCURVE",
"129 505 CURVE SMOOTH",
"129 344 OFFCURVE",
"-17 211 OFFCURVE",
"-17 59 CURVE SMOOTH",
"-17 -27 OFFCURVE",
"45 -78 OFFCURVE",
"126 -78 CURVE SMOOTH"
);
},
{
closed = 1;
nodes = (
"666 -77 OFFCURVE",
"750 -45 OFFCURVE",
"819 15 CURVE",
"794 44 OFFCURVE",
"787 64 OFFCURVE",
"787 95 CURVE SMOOTH",
"787 246 OFFCURVE",
"901 406 OFFCURVE",
"901 505 CURVE SMOOTH",
"901 576 OFFCURVE",
"831 628 OFFCURVE",
"744 628 CURVE SMOOTH",
"563 628 OFFCURVE",
"342 379 OFFCURVE",
"249 244 CURVE",
"334 84 LINE",
"334 197 OFFCURVE",
"412 350 OFFCURVE",
"463 350 CURVE SMOOTH",
"494 350 OFFCURVE",
"501 330 OFFCURVE",
"501 306 CURVE SMOOTH",
"501 219 OFFCURVE",
"432 113 OFFCURVE",
"432 22 CURVE SMOOTH",
"432 -32 OFFCURVE",
"483 -77 OFFCURVE",
"582 -77 CURVE SMOOTH"
);
}
);
};
layerId = "F559F4D5-11C1-46D1-BBEE-5F2C6E9A522B";
name = "Regular Italic Mar 20 16, 00:18";
paths = (
{
closed = 1;
nodes = (
"205 -78 OFFCURVE",
"288 -38 OFFCURVE",
"345 10 CURVE",
"338 33 OFFCURVE",
"334 57 OFFCURVE",
"334 85 CURVE SMOOTH",
"334 255 OFFCURVE",
"465 486 OFFCURVE",
"465 561 CURVE SMOOTH",
"465 614 OFFCURVE",
"399 627 OFFCURVE",
"327 627 CURVE SMOOTH",
"251 627 OFFCURVE",
"184 612 OFFCURVE",
"115 582 CURVE",
"124 555 OFFCURVE",
"129 527 OFFCURVE",
"129 498 CURVE SMOOTH",
"129 340 OFFCURVE",
"-17 209 OFFCURVE",
"-17 59 CURVE SMOOTH",
"-17 -27 OFFCURVE",
"45 -78 OFFCURVE",
"130 -78 CURVE SMOOTH"
);
},
{
closed = 1;
nodes = (
"334 218 OFFCURVE",
"392 315 OFFCURVE",
"520 335 CURVE SMOOTH",
"630 353 OFFCURVE",
"709 389 OFFCURVE",
"709 515 CURVE SMOOTH",
"709 540 OFFCURVE",
"706 576 OFFCURVE",
"692 626 CURVE",
"548 626 OFFCURVE",
"323 379 OFFCURVE",
"249 244 CURVE",
"334 84 LINE"
);
}
);
width = 647;
},
{
associatedMasterId = "BE599D47-15C2-4DC8-BE97-05FFE6CA3179";
background = {
paths = (
{
closed = 1;
nodes = (
"205 -78 OFFCURVE",
"288 -38 OFFCURVE",
"345 10 CURVE",
"338 33 OFFCURVE",
"334 57 OFFCURVE",
"334 85 CURVE SMOOTH",
"334 255 OFFCURVE",
"465 486 OFFCURVE",
"465 561 CURVE SMOOTH",
"465 614 OFFCURVE",
"399 627 OFFCURVE",
"327 627 CURVE SMOOTH",
"251 627 OFFCURVE",
"184 612 OFFCURVE",
"115 582 CURVE",
"124 557 OFFCURVE",
"129 532 OFFCURVE",
"129 505 CURVE SMOOTH",
"129 344 OFFCURVE",
"-17 211 OFFCURVE",
"-17 59 CURVE SMOOTH",
"-17 -27 OFFCURVE",
"45 -78 OFFCURVE",
"126 -78 CURVE SMOOTH"
);
},
{
closed = 1;
nodes = (
"334 218 OFFCURVE",
"392 335 OFFCURVE",
"520 335 CURVE SMOOTH",
"631 335 OFFCURVE",
"709 387 OFFCURVE",
"709 498 CURVE SMOOTH",
"709 536 OFFCURVE",
"703 580 OFFCURVE",
"692 626 CURVE",
"548 626 OFFCURVE",
"323 379 OFFCURVE",
"249 244 CURVE",
"334 84 LINE"
);
}
);
};
layerId = "74CAD171-5EE7-4B6C-8509-A9529EDBB426";
name = "Regular Italic Mar 20 16, 00:21";
paths = (
{
closed = 1;
nodes = (
"205 -78 OFFCURVE",
"288 -38 OFFCURVE",
"345 10 CURVE",
"338 33 OFFCURVE",
"334 57 OFFCURVE",
"334 85 CURVE SMOOTH",
"334 255 OFFCURVE",
"465 486 OFFCURVE",
"465 561 CURVE SMOOTH",
"465 614 OFFCURVE",
"399 627 OFFCURVE",
"327 627 CURVE SMOOTH",
"251 627 OFFCURVE",
"184 612 OFFCURVE",
"115 582 CURVE",
"124 557 OFFCURVE",
"129 532 OFFCURVE",
"129 505 CURVE SMOOTH",
"129 344 OFFCURVE",
"-17 211 OFFCURVE",
"-17 59 CURVE SMOOTH",
"-17 -27 OFFCURVE",
"45 -78 OFFCURVE",
"126 -78 CURVE SMOOTH"
);
},
{
closed = 1;
nodes = (
"334 218 OFFCURVE",
"392 325 OFFCURVE",
"520 325 CURVE SMOOTH",
"613 325 OFFCURVE",
"727 460 OFFCURVE",
"727 583 CURVE SMOOTH",
"727 597 OFFCURVE",
"726 612 OFFCURVE",
"722 626 CURVE",
"562 626 OFFCURVE",
"303 379 OFFCURVE",
"229 244 CURVE",
"334 84 LINE"
);
}
);
width = 627;
}
);
unicode = 0072;
},
{
glyphname = s;
lastChange = "2016-03-24 06:20:55 +0000";
layers = (
{
background = {
paths = (
{
closed = 1;
nodes = (
"-6 160 OFFCURVE",
"-6 123 CURVE SMOOTH",
"-6 -13 OFFCURVE",
"125 -80 OFFCURVE",
"310 -80 CURVE SMOOTH",
"520 -80 OFFCURVE",
"684 -2 OFFCURVE",
"684 173 CURVE SMOOTH",
"684 355 OFFCURVE",
"456 362 OFFCURVE",
"456 405 CURVE SMOOTH",
"456 427 OFFCURVE",
"485 438 OFFCURVE",
"528 438 CURVE SMOOTH",
"589 438 OFFCURVE",
"658 410 OFFCURVE",
"707 366 CURVE",
"745 412 OFFCURVE",
"762 453 OFFCURVE",
"762 489 CURVE SMOOTH",
"762 587 OFFCURVE",
"591 628 OFFCURVE",
"456 628 CURVE SMOOTH",
"250 628 OFFCURVE",
"74 542 OFFCURVE",
"74 376 CURVE SMOOTH",
"74 236 OFFCURVE",
"289 220 OFFCURVE",
"289 172 CURVE SMOOTH",
"289 157 OFFCURVE",
"271 150 OFFCURVE",
"237 150 CURVE SMOOTH",
"186 150 OFFCURVE",
"78 182 OFFCURVE",
"17 251 CURVE",
"1 203 OFFCURVE"
);
}
);
};
layerId = "BE599D47-15C2-4DC8-BE97-05FFE6CA3179";
paths = (
{
closed = 1;
nodes = (
"-6 156 OFFCURVE",
"-6 93 CURVE SMOOTH",
"-6 -13 OFFCURVE",
"125 -80 OFFCURVE",
"310 -80 CURVE SMOOTH",
"520 -80 OFFCURVE",
"684 -2 OFFCURVE",
"684 173 CURVE SMOOTH",
"684 355 OFFCURVE",
"456 362 OFFCURVE",
"456 405 CURVE SMOOTH",
"456 427 OFFCURVE",
"485 438 OFFCURVE",
"528 438 CURVE SMOOTH",
"584 438 OFFCURVE",
"646 415 OFFCURVE",
"691 379 CURVE",
"740 400 OFFCURVE",
"762 457 OFFCURVE",
"762 489 CURVE SMOOTH",
"762 587 OFFCURVE",
"591 628 OFFCURVE",
"456 628 CURVE SMOOTH",
"250 628 OFFCURVE",
"74 542 OFFCURVE",
"74 376 CURVE SMOOTH",
"74 236 OFFCURVE",
"289 220 OFFCURVE",
"289 172 CURVE SMOOTH",
"289 157 OFFCURVE",
"271 150 OFFCURVE",
"237 150 CURVE SMOOTH",
"193 150 OFFCURVE",
"99 177 OFFCURVE",
"46 236 CURVE",
"10 194 OFFCURVE"
);
}
);
width = 730;
},
{
associatedMasterId = "BE599D47-15C2-4DC8-BE97-05FFE6CA3179";
background = {
paths = (
{
closed = 1;
nodes = (
"3 -4 OFFCURVE",
"149 -80 OFFCURVE",
"330 -80 CURVE SMOOTH",
"620 -80 OFFCURVE",
"822 117 OFFCURVE",
"822 352 CURVE SMOOTH",
"822 551 OFFCURVE",
"676 627 OFFCURVE",
"495 627 CURVE SMOOTH",
"205 627 OFFCURVE",
"3 430 OFFCURVE",
"3 196 CURVE SMOOTH"
);
},
{
closed = 1;
nodes = (
"325 90 OFFCURVE",
"316 108 OFFCURVE",
"316 145 CURVE SMOOTH",
"316 262 OFFCURVE",
"415 470 OFFCURVE",
"485 470 CURVE SMOOTH",
"505 470 OFFCURVE",
"510 453 OFFCURVE",
"510 424 CURVE SMOOTH",
"510 293 OFFCURVE",
"412 90 OFFCURVE",
"345 90 CURVE SMOOTH"
);
}
);
};
layerId = "F620D428-6E60-4475-A0D4-3B8A8C90D234";
name = "Regular Italic Mar 23 16, 16:37";
paths = (
{
closed = 1;
nodes = (
"12 -9 OFFCURVE",
"181 -80 OFFCURVE",
"337 -80 CURVE SMOOTH",
"535 -80 OFFCURVE",
"681 -4 OFFCURVE",
"681 171 CURVE SMOOTH",
"681 252 OFFCURVE",
"530 224 OFFCURVE",
"454 251 CURVE",
"431 368 OFFCURVE",
"493 384 OFFCURVE",
"577 384 CURVE SMOOTH",
"642 384 OFFCURVE",
"715 358 OFFCURVE",
"767 306 CURVE",
"778 325 OFFCURVE",
"792 370 OFFCURVE",
"792 412 CURVE SMOOTH",
"792 556 OFFCURVE",
"623 627 OFFCURVE",
"467 627 CURVE SMOOTH",
"269 627 OFFCURVE",
"123 551 OFFCURVE",
"123 376 CURVE SMOOTH",
"123 295 OFFCURVE",
"274 323 OFFCURVE",
"350 296 CURVE",
"373 179 OFFCURVE",
"311 163 OFFCURVE",
"227 163 CURVE SMOOTH",
"162 163 OFFCURVE",
"89 189 OFFCURVE",
"37 241 CURVE",
"26 222 OFFCURVE",
"12 177 OFFCURVE",
"12 135 CURVE SMOOTH"
);
}
);
width = 800;
},
{
associatedMasterId = "BE599D47-15C2-4DC8-BE97-05FFE6CA3179";
background = {
paths = (
{
closed = 1;
nodes = (
"-27 -4 OFFCURVE",
"119 -80 OFFCURVE",
"300 -80 CURVE SMOOTH",
"590 -80 OFFCURVE",
"792 117 OFFCURVE",
"792 352 CURVE SMOOTH",
"792 551 OFFCURVE",
"646 627 OFFCURVE",
"465 627 CURVE SMOOTH",
"175 627 OFFCURVE",
"-27 430 OFFCURVE",
"-27 196 CURVE SMOOTH"
);
},
{
closed = 1;
nodes = (
"295 90 OFFCURVE",
"286 108 OFFCURVE",
"286 145 CURVE SMOOTH",
"286 262 OFFCURVE",
"385 470 OFFCURVE",
"455 470 CURVE SMOOTH",
"475 470 OFFCURVE",
"480 453 OFFCURVE",
"480 424 CURVE SMOOTH",
"480 293 OFFCURVE",
"382 90 OFFCURVE",
"315 90 CURVE SMOOTH"
);
}
);
};
layerId = "3F1EC2FC-027A-4658-8F96-37A67D2D4C57";
name = "Regular Italic Mar 23 16, 16:42";
paths = (
{
closed = 1;
nodes = (
"-6 160 OFFCURVE",
"-6 123 CURVE SMOOTH",
"-6 -13 OFFCURVE",
"125 -80 OFFCURVE",
"310 -80 CURVE SMOOTH",
"520 -80 OFFCURVE",
"684 -2 OFFCURVE",
"684 173 CURVE SMOOTH",
"684 234 OFFCURVE",
"656 292 OFFCURVE",
"601 320 CURVE SMOOTH",
"531 355 OFFCURVE",
"456 386 OFFCURVE",
"456 405 CURVE SMOOTH",
"456 427 OFFCURVE",
"485 438 OFFCURVE",
"528 438 CURVE SMOOTH",
"589 438 OFFCURVE",
"658 410 OFFCURVE",
"707 366 CURVE",
"745 412 OFFCURVE",
"762 453 OFFCURVE",
"762 489 CURVE SMOOTH",
"762 571 OFFCURVE",
"632 620 OFFCURVE",
"467 627 CURVE SMOOTH",
"457 628 OFFCURVE",
"446 628 OFFCURVE",
"436 628 CURVE SMOOTH",
"241 628 OFFCURVE",
"74 542 OFFCURVE",
"74 376 CURVE SMOOTH",
"74 236 OFFCURVE",
"289 220 OFFCURVE",
"289 172 CURVE SMOOTH",
"289 157 OFFCURVE",
"271 150 OFFCURVE",
"237 150 CURVE SMOOTH",
"186 150 OFFCURVE",
"78 182 OFFCURVE",
"17 251 CURVE",
"1 203 OFFCURVE"
);
}
);
width = 730;
},
{
associatedMasterId = "BE599D47-15C2-4DC8-BE97-05FFE6CA3179";
background = {
paths = (
{
closed = 1;
nodes = (
"-6 160 OFFCURVE",
"-6 123 CURVE SMOOTH",
"-6 -13 OFFCURVE",
"125 -80 OFFCURVE",
"310 -80 CURVE SMOOTH",
"520 -80 OFFCURVE",
"684 -2 OFFCURVE",
"684 173 CURVE SMOOTH",
"684 234 OFFCURVE",
"656 292 OFFCURVE",
"601 320 CURVE SMOOTH",
"531 355 OFFCURVE",
"456 386 OFFCURVE",
"456 405 CURVE SMOOTH",
"456 427 OFFCURVE",
"485 438 OFFCURVE",
"528 438 CURVE SMOOTH",
"589 438 OFFCURVE",
"658 410 OFFCURVE",
"707 366 CURVE",
"745 412 OFFCURVE",
"762 453 OFFCURVE",
"762 489 CURVE SMOOTH",
"762 571 OFFCURVE",
"632 620 OFFCURVE",
"467 627 CURVE SMOOTH",
"457 628 OFFCURVE",
"446 628 OFFCURVE",
"436 628 CURVE SMOOTH",
"241 628 OFFCURVE",
"74 542 OFFCURVE",
"74 376 CURVE SMOOTH",
"74 236 OFFCURVE",
"289 220 OFFCURVE",
"289 172 CURVE SMOOTH",
"289 157 OFFCURVE",
"271 150 OFFCURVE",
"237 150 CURVE SMOOTH",
"186 150 OFFCURVE",
"78 182 OFFCURVE",
"17 251 CURVE",
"1 203 OFFCURVE"
);
}
);
};
layerId = "7874F17B-BBCF-4316-BEE1-0855168321AE";
name = "Regular Italic Mar 23 16, 16:44";
paths = (
{
closed = 1;
nodes = (
"-6 160 OFFCURVE",
"-6 123 CURVE SMOOTH",
"-6 -13 OFFCURVE",
"125 -80 OFFCURVE",
"310 -80 CURVE SMOOTH",
"520 -80 OFFCURVE",
"684 -2 OFFCURVE",
"684 173 CURVE SMOOTH",
"684 355 OFFCURVE",
"456 362 OFFCURVE",
"456 405 CURVE SMOOTH",
"456 427 OFFCURVE",
"485 438 OFFCURVE",
"528 438 CURVE SMOOTH",
"589 438 OFFCURVE",
"658 410 OFFCURVE",
"707 366 CURVE",
"745 412 OFFCURVE",
"762 453 OFFCURVE",
"762 489 CURVE SMOOTH",
"762 587 OFFCURVE",
"591 628 OFFCURVE",
"456 628 CURVE SMOOTH",
"250 628 OFFCURVE",
"74 542 OFFCURVE",
"74 376 CURVE SMOOTH",
"74 236 OFFCURVE",
"289 220 OFFCURVE",
"289 172 CURVE SMOOTH",
"289 157 OFFCURVE",
"271 150 OFFCURVE",
"237 150 CURVE SMOOTH",
"186 150 OFFCURVE",
"78 182 OFFCURVE",
"17 251 CURVE",
"1 203 OFFCURVE"
);
}
);
width = 730;
}
);
unicode = 0073;
},
{
glyphname = t;
lastChange = "2016-03-24 17:29:14 +0000";
layers = (
{
background = {
paths = (
{
closed = 1;
nodes = (
"319 -81 OFFCURVE",
"454 -22 OFFCURVE",
"534 108 CURVE",
"437 94 OFFCURVE",
"420 151 OFFCURVE",
"420 192 CURVE SMOOTH",
"420 331 OFFCURVE",
"614 728 OFFCURVE",
"668 797 CURVE",
"618 809 OFFCURVE",
"571 814 OFFCURVE",
"527 814 CURVE SMOOTH",
"393 814 OFFCURVE",
"334 768 OFFCURVE",
"272 655 CURVE SMOOTH",
"181 489 OFFCURVE",
"69 231 OFFCURVE",
"69 79 CURVE SMOOTH",
"69 -11 OFFCURVE",
"108 -81 OFFCURVE",
"212 -81 CURVE SMOOTH"
);
},
{
closed = 1;
nodes = (
"611 391 OFFCURVE",
"684 441 OFFCURVE",
"708 649 CURVE",
"653 626 OFFCURVE",
"604 620 OFFCURVE",
"560 620 CURVE SMOOTH",
"469 620 OFFCURVE",
"370 646 OFFCURVE",
"287 646 CURVE SMOOTH",
"115 646 OFFCURVE",
"71 516 OFFCURVE",
"72 398 CURVE",
"111 410 OFFCURVE",
"145 413 OFFCURVE",
"190 413 CURVE SMOOTH",
"311 413 OFFCURVE",
"379 391 OFFCURVE",
"477 391 CURVE SMOOTH"
);
}
);
};
layerId = "BE599D47-15C2-4DC8-BE97-05FFE6CA3179";
paths = (
{
closed = 1;
nodes = (
"319 -81 OFFCURVE",
"454 -22 OFFCURVE",
"534 108 CURVE",
"437 94 OFFCURVE",
"420 151 OFFCURVE",
"420 192 CURVE SMOOTH",
"420 346 OFFCURVE",
"614 728 OFFCURVE",
"668 797 CURVE",
"618 809 OFFCURVE",
"571 814 OFFCURVE",
"527 814 CURVE SMOOTH",
"393 814 OFFCURVE",
"334 768 OFFCURVE",
"272 655 CURVE SMOOTH",
"181 489 OFFCURVE",
"69 231 OFFCURVE",
"69 79 CURVE SMOOTH",
"69 -11 OFFCURVE",
"108 -81 OFFCURVE",
"212 -81 CURVE SMOOTH"
);
},
{
closed = 1;
nodes = (
"601 376 OFFCURVE",
"684 452 OFFCURVE",
"708 649 CURVE",
"653 626 OFFCURVE",
"604 620 OFFCURVE",
"560 620 CURVE SMOOTH",
"469 620 OFFCURVE",
"370 646 OFFCURVE",
"287 646 CURVE SMOOTH",
"115 646 OFFCURVE",
"61 495 OFFCURVE",
"62 383 CURVE",
"101 395 OFFCURVE",
"135 398 OFFCURVE",
"180 398 CURVE SMOOTH",
"301 398 OFFCURVE",
"369 376 OFFCURVE",
"467 376 CURVE SMOOTH"
);
}
);
width = 612;
},
{
associatedMasterId = "BE599D47-15C2-4DC8-BE97-05FFE6CA3179";
background = {
paths = (
{
closed = 1;
nodes = (
"273 -78 OFFCURVE",
"357 -38 OFFCURVE",
"414 10 CURVE",
"407 33 OFFCURVE",
"403 57 OFFCURVE",
"403 90 CURVE SMOOTH",
"403 366 OFFCURVE",
"660 699 OFFCURVE",
"651 870 CURVE SMOOTH",
"647 948 OFFCURVE",
"596 967 OFFCURVE",
"521 967 CURVE SMOOTH",
"430 967 OFFCURVE",
"328 939 OFFCURVE",
"235 882 CURVE",
"259 838 OFFCURVE",
"264 793 OFFCURVE",
"264 755 CURVE SMOOTH",
"264 482 OFFCURVE",
"62 286 OFFCURVE",
"60 62 CURVE SMOOTH",
"59 -29 OFFCURVE",
"118 -78 OFFCURVE",
"198 -78 CURVE SMOOTH"
);
}
);
};
layerId = "70ADC7A4-CEDF-41FE-B3B5-2A70413146D7";
name = "Regular Italic Mar 24 16, 02:48";
paths = (
{
closed = 1;
nodes = (
"316 -78 OFFCURVE",
"448 0 OFFCURVE",
"538 94 CURVE",
"452 93 OFFCURVE",
"419 130 OFFCURVE",
"419 212 CURVE SMOOTH",
"419 330 OFFCURVE",
"627 665 OFFCURVE",
"621 770 CURVE SMOOTH",
"617 848 OFFCURVE",
"526 867 OFFCURVE",
"451 867 CURVE SMOOTH",
"360 867 OFFCURVE",
"298 839 OFFCURVE",
"205 782 CURVE",
"229 738 OFFCURVE",
"234 693 OFFCURVE",
"234 655 CURVE SMOOTH",
"234 421 OFFCURVE",
"62 254 OFFCURVE",
"60 62 CURVE SMOOTH",
"59 -29 OFFCURVE",
"118 -78 OFFCURVE",
"198 -78 CURVE SMOOTH"
);
},
{
closed = 1;
nodes = (
"716 491 OFFCURVE",
"670 669 CURVE",
"636 627 OFFCURVE",
"597 620 OFFCURVE",
"542 620 CURVE SMOOTH",
"461 620 OFFCURVE",
"342 676 OFFCURVE",
"240 676 CURVE SMOOTH",
"87 676 OFFCURVE",
"63 567 OFFCURVE",
"64 468 CURVE",
"103 480 OFFCURVE",
"137 483 OFFCURVE",
"162 483 CURVE SMOOTH",
"321 483 OFFCURVE",
"370 432 OFFCURVE",
"498 431 CURVE SMOOTH",
"622 430 OFFCURVE"
);
}
);
width = 600;
},
{
associatedMasterId = "BE599D47-15C2-4DC8-BE97-05FFE6CA3179";
background = {
paths = (
{
closed = 1;
nodes = (
"273 -78 OFFCURVE",
"357 -38 OFFCURVE",
"414 10 CURVE",
"407 33 OFFCURVE",
"403 57 OFFCURVE",
"403 90 CURVE SMOOTH",
"403 366 OFFCURVE",
"660 699 OFFCURVE",
"651 870 CURVE SMOOTH",
"647 948 OFFCURVE",
"596 967 OFFCURVE",
"521 967 CURVE SMOOTH",
"430 967 OFFCURVE",
"328 939 OFFCURVE",
"235 882 CURVE",
"259 838 OFFCURVE",
"264 793 OFFCURVE",
"264 755 CURVE SMOOTH",
"264 482 OFFCURVE",
"62 286 OFFCURVE",
"60 62 CURVE SMOOTH",
"59 -29 OFFCURVE",
"118 -78 OFFCURVE",
"198 -78 CURVE SMOOTH"
);
}
);
};
layerId = "05EF678D-A202-4962-B3CF-17A35AAC6CE2";
name = "Regular Italic Mar 24 16, 02:49";
paths = (
{
closed = 1;
nodes = (
"316 -78 OFFCURVE",
"448 0 OFFCURVE",
"538 94 CURVE",
"452 93 OFFCURVE",
"419 130 OFFCURVE",
"419 212 CURVE SMOOTH",
"419 330 OFFCURVE",
"627 665 OFFCURVE",
"621 770 CURVE SMOOTH",
"617 848 OFFCURVE",
"375 865 OFFCURVE",
"300 865 CURVE",
"300 793 OFFCURVE",
"294 741 OFFCURVE",
"264 655 CURVE SMOOTH",
"187 435 OFFCURVE",
"62 254 OFFCURVE",
"60 62 CURVE SMOOTH",
"59 -29 OFFCURVE",
"118 -78 OFFCURVE",
"198 -78 CURVE SMOOTH"
);
},
{
closed = 1;
nodes = (
"666 471 OFFCURVE",
"700 649 CURVE",
"654 626 OFFCURVE",
"597 620 OFFCURVE",
"542 620 CURVE SMOOTH",
"461 620 OFFCURVE",
"372 646 OFFCURVE",
"270 646 CURVE SMOOTH",
"117 646 OFFCURVE",
"83 537 OFFCURVE",
"64 438 CURVE",
"103 450 OFFCURVE",
"137 453 OFFCURVE",
"162 453 CURVE SMOOTH",
"321 453 OFFCURVE",
"370 432 OFFCURVE",
"498 431 CURVE SMOOTH",
"622 430 OFFCURVE"
);
}
);
width = 600;
},
{
associatedMasterId = "BE599D47-15C2-4DC8-BE97-05FFE6CA3179";
background = {
paths = (
{
closed = 1;
nodes = (
"273 -78 OFFCURVE",
"357 -38 OFFCURVE",
"414 10 CURVE",
"407 33 OFFCURVE",
"403 57 OFFCURVE",
"403 90 CURVE SMOOTH",
"403 366 OFFCURVE",
"660 699 OFFCURVE",
"651 870 CURVE SMOOTH",
"647 948 OFFCURVE",
"596 967 OFFCURVE",
"521 967 CURVE SMOOTH",
"430 967 OFFCURVE",
"328 939 OFFCURVE",
"235 882 CURVE",
"259 838 OFFCURVE",
"264 793 OFFCURVE",
"264 755 CURVE SMOOTH",
"264 482 OFFCURVE",
"62 286 OFFCURVE",
"60 62 CURVE SMOOTH",
"59 -29 OFFCURVE",
"118 -78 OFFCURVE",
"198 -78 CURVE SMOOTH"
);
}
);
};
layerId = "6A1EADDB-2DAE-4747-B1C1-6665936E47DD";
name = "Regular Italic Mar 24 16, 02:50";
paths = (
{
closed = 1;
nodes = (
"316 -78 OFFCURVE",
"448 0 OFFCURVE",
"538 94 CURVE",
"452 93 OFFCURVE",
"419 130 OFFCURVE",
"419 212 CURVE SMOOTH",
"419 330 OFFCURVE",
"647 692 OFFCURVE",
"641 797 CURVE",
"540 828 OFFCURVE",
"442 812 OFFCURVE",
"371 783 CURVE SMOOTH",
"312 759 OFFCURVE",
"294 741 OFFCURVE",
"264 655 CURVE SMOOTH",
"187 435 OFFCURVE",
"62 254 OFFCURVE",
"60 62 CURVE SMOOTH",
"59 -29 OFFCURVE",
"118 -78 OFFCURVE",
"198 -78 CURVE SMOOTH"
);
},
{
closed = 1;
nodes = (
"666 471 OFFCURVE",
"700 649 CURVE",
"654 626 OFFCURVE",
"597 620 OFFCURVE",
"542 620 CURVE SMOOTH",
"461 620 OFFCURVE",
"372 646 OFFCURVE",
"270 646 CURVE SMOOTH",
"117 646 OFFCURVE",
"83 537 OFFCURVE",
"64 438 CURVE",
"103 450 OFFCURVE",
"137 453 OFFCURVE",
"162 453 CURVE SMOOTH",
"321 453 OFFCURVE",
"370 432 OFFCURVE",
"498 431 CURVE SMOOTH",
"622 430 OFFCURVE"
);
}
);
width = 600;
},
{
associatedMasterId = "BE599D47-15C2-4DC8-BE97-05FFE6CA3179";
background = {
paths = (
{
closed = 1;
nodes = (
"316 -78 OFFCURVE",
"448 0 OFFCURVE",
"538 94 CURVE",
"452 93 OFFCURVE",
"419 130 OFFCURVE",
"419 212 CURVE SMOOTH",
"419 330 OFFCURVE",
"627 665 OFFCURVE",
"621 770 CURVE SMOOTH",
"617 848 OFFCURVE",
"375 865 OFFCURVE",
"300 865 CURVE",
"300 793 OFFCURVE",
"294 741 OFFCURVE",
"264 655 CURVE SMOOTH",
"187 435 OFFCURVE",
"62 254 OFFCURVE",
"60 62 CURVE SMOOTH",
"59 -29 OFFCURVE",
"118 -78 OFFCURVE",
"198 -78 CURVE SMOOTH"
);
},
{
closed = 1;
nodes = (
"666 471 OFFCURVE",
"700 649 CURVE",
"654 626 OFFCURVE",
"597 620 OFFCURVE",
"542 620 CURVE SMOOTH",
"461 620 OFFCURVE",
"372 646 OFFCURVE",
"270 646 CURVE SMOOTH",
"117 646 OFFCURVE",
"83 537 OFFCURVE",
"64 438 CURVE",
"103 450 OFFCURVE",
"137 453 OFFCURVE",
"162 453 CURVE SMOOTH",
"321 453 OFFCURVE",
"370 432 OFFCURVE",
"498 431 CURVE SMOOTH",
"622 430 OFFCURVE"
);
}
);
};
layerId = "3802941C-F150-4907-8F48-7E10459D8AA6";
name = "Regular Italic Mar 24 16, 02:51";
paths = (
{
closed = 1;
nodes = (
"316 -79 OFFCURVE",
"448 -1 OFFCURVE",
"538 93 CURVE",
"452 92 OFFCURVE",
"419 129 OFFCURVE",
"419 211 CURVE SMOOTH",
"419 329 OFFCURVE",
"647 691 OFFCURVE",
"641 796 CURVE",
"540 827 OFFCURVE",
"442 811 OFFCURVE",
"371 782 CURVE SMOOTH",
"312 758 OFFCURVE",
"294 740 OFFCURVE",
"264 654 CURVE SMOOTH",
"187 434 OFFCURVE",
"62 253 OFFCURVE",
"60 61 CURVE SMOOTH",
"59 -30 OFFCURVE",
"118 -79 OFFCURVE",
"198 -79 CURVE SMOOTH"
);
},
{
closed = 1;
nodes = (
"622 429 OFFCURVE",
"666 470 OFFCURVE",
"700 648 CURVE",
"654 625 OFFCURVE",
"597 619 OFFCURVE",
"542 619 CURVE SMOOTH",
"461 619 OFFCURVE",
"372 645 OFFCURVE",
"270 645 CURVE SMOOTH",
"117 645 OFFCURVE",
"83 536 OFFCURVE",
"64 437 CURVE",
"103 449 OFFCURVE",
"137 452 OFFCURVE",
"162 452 CURVE SMOOTH",
"321 452 OFFCURVE",
"370 431 OFFCURVE",
"498 430 CURVE SMOOTH"
);
}
);
width = 600;
},
{
associatedMasterId = "BE599D47-15C2-4DC8-BE97-05FFE6CA3179";
background = {
paths = (
{
closed = 1;
nodes = (
"316 -78 OFFCURVE",
"448 0 OFFCURVE",
"538 94 CURVE",
"452 93 OFFCURVE",
"419 130 OFFCURVE",
"419 212 CURVE SMOOTH",
"419 330 OFFCURVE",
"647 692 OFFCURVE",
"641 797 CURVE",
"540 828 OFFCURVE",
"442 812 OFFCURVE",
"371 783 CURVE SMOOTH",
"312 759 OFFCURVE",
"294 741 OFFCURVE",
"264 655 CURVE SMOOTH",
"187 435 OFFCURVE",
"62 254 OFFCURVE",
"60 62 CURVE SMOOTH",
"59 -29 OFFCURVE",
"118 -78 OFFCURVE",
"198 -78 CURVE SMOOTH"
);
},
{
closed = 1;
nodes = (
"622 430 OFFCURVE",
"666 471 OFFCURVE",
"700 649 CURVE",
"654 626 OFFCURVE",
"597 620 OFFCURVE",
"542 620 CURVE SMOOTH",
"461 620 OFFCURVE",
"372 646 OFFCURVE",
"270 646 CURVE SMOOTH",
"117 646 OFFCURVE",
"83 537 OFFCURVE",
"64 438 CURVE",
"103 450 OFFCURVE",
"137 453 OFFCURVE",
"162 453 CURVE SMOOTH",
"321 453 OFFCURVE",
"370 432 OFFCURVE",
"498 431 CURVE SMOOTH"
);
}
);
};
layerId = "E1B56453-BC19-4330-AFBD-53A7C38B52C7";
name = "Regular Italic Mar 24 16, 02:54";
paths = (
{
closed = 1;
nodes = (
"127 -81 OFFCURVE",
"214 -81 CURVE SMOOTH",
"300 -81 OFFCURVE",
"472 -32 OFFCURVE",
"525 108 CURVE",
"428 94 OFFCURVE",
"411 151 OFFCURVE",
"411 192 CURVE SMOOTH",
"411 311 OFFCURVE",
"606 728 OFFCURVE",
"660 797 CURVE",
"621 809 OFFCURVE",
"564 814 OFFCURVE",
"528 814 CURVE SMOOTH",
"385 814 OFFCURVE",
"315 768 OFFCURVE",
"264 655 CURVE SMOOTH",
"186 483 OFFCURVE",
"60 191 OFFCURVE",
"60 60 CURVE SMOOTH",
"60 -11 OFFCURVE"
);
},
{
closed = 1;
nodes = (
"623 431 OFFCURVE",
"666 473 OFFCURVE",
"700 649 CURVE",
"654 626 OFFCURVE",
"597 620 OFFCURVE",
"542 620 CURVE SMOOTH",
"461 620 OFFCURVE",
"372 646 OFFCURVE",
"270 646 CURVE SMOOTH",
"117 646 OFFCURVE",
"83 537 OFFCURVE",
"64 438 CURVE",
"103 450 OFFCURVE",
"137 453 OFFCURVE",
"162 453 CURVE SMOOTH",
"323 453 OFFCURVE",
"371 431 OFFCURVE",
"502 431 CURVE SMOOTH"
);
}
);
width = 600;
},
{
associatedMasterId = "BE599D47-15C2-4DC8-BE97-05FFE6CA3179";
background = {
paths = (
{
closed = 1;
nodes = (
"316 -78 OFFCURVE",
"448 0 OFFCURVE",
"538 94 CURVE",
"452 93 OFFCURVE",
"419 130 OFFCURVE",
"419 212 CURVE SMOOTH",
"419 330 OFFCURVE",
"647 692 OFFCURVE",
"641 797 CURVE",
"540 828 OFFCURVE",
"442 812 OFFCURVE",
"371 783 CURVE SMOOTH",
"312 759 OFFCURVE",
"294 741 OFFCURVE",
"264 655 CURVE SMOOTH",
"187 435 OFFCURVE",
"62 254 OFFCURVE",
"60 62 CURVE SMOOTH",
"59 -29 OFFCURVE",
"118 -78 OFFCURVE",
"198 -78 CURVE SMOOTH"
);
},
{
closed = 1;
nodes = (
"622 430 OFFCURVE",
"666 471 OFFCURVE",
"700 649 CURVE",
"654 626 OFFCURVE",
"597 620 OFFCURVE",
"542 620 CURVE SMOOTH",
"461 620 OFFCURVE",
"372 646 OFFCURVE",
"270 646 CURVE SMOOTH",
"117 646 OFFCURVE",
"83 537 OFFCURVE",
"64 438 CURVE",
"103 450 OFFCURVE",
"137 453 OFFCURVE",
"162 453 CURVE SMOOTH",
"321 453 OFFCURVE",
"370 432 OFFCURVE",
"498 431 CURVE SMOOTH"
);
}
);
};
layerId = "D45E4E49-68F0-4256-A8BF-BE87C75A091E";
name = "Regular Italic Mar 24 16, 02:57";
paths = (
{
closed = 1;
nodes = (
"593 431 OFFCURVE",
"666 473 OFFCURVE",
"690 649 CURVE",
"635 626 OFFCURVE",
"586 620 OFFCURVE",
"542 620 CURVE SMOOTH",
"451 620 OFFCURVE",
"352 646 OFFCURVE",
"269 646 CURVE SMOOTH",
"97 646 OFFCURVE",
"53 537 OFFCURVE",
"54 438 CURVE",
"93 450 OFFCURVE",
"127 453 OFFCURVE",
"172 453 CURVE SMOOTH",
"293 453 OFFCURVE",
"361 431 OFFCURVE",
"459 431 CURVE SMOOTH"
);
},
{
closed = 1;
nodes = (
"330 -81 OFFCURVE",
"452 -22 OFFCURVE",
"525 108 CURVE",
"428 94 OFFCURVE",
"411 151 OFFCURVE",
"411 192 CURVE SMOOTH",
"411 331 OFFCURVE",
"606 728 OFFCURVE",
"660 797 CURVE",
"610 809 OFFCURVE",
"563 814 OFFCURVE",
"519 814 CURVE SMOOTH",
"385 814 OFFCURVE",
"326 768 OFFCURVE",
"264 655 CURVE SMOOTH",
"173 489 OFFCURVE",
"60 231 OFFCURVE",
"60 95 CURVE SMOOTH",
"60 -11 OFFCURVE",
"127 -81 OFFCURVE",
"233 -81 CURVE SMOOTH"
);
}
);
width = 600;
},
{
associatedMasterId = "BE599D47-15C2-4DC8-BE97-05FFE6CA3179";
background = {
paths = (
{
closed = 1;
nodes = (
"611 431 OFFCURVE",
"684 473 OFFCURVE",
"708 649 CURVE",
"653 626 OFFCURVE",
"604 620 OFFCURVE",
"560 620 CURVE SMOOTH",
"469 620 OFFCURVE",
"370 646 OFFCURVE",
"287 646 CURVE SMOOTH",
"115 646 OFFCURVE",
"71 537 OFFCURVE",
"72 438 CURVE",
"111 450 OFFCURVE",
"145 453 OFFCURVE",
"190 453 CURVE SMOOTH",
"311 453 OFFCURVE",
"379 431 OFFCURVE",
"477 431 CURVE SMOOTH"
);
},
{
closed = 1;
nodes = (
"319 -81 OFFCURVE",
"454 -22 OFFCURVE",
"534 108 CURVE",
"437 94 OFFCURVE",
"420 151 OFFCURVE",
"420 192 CURVE SMOOTH",
"420 331 OFFCURVE",
"614 728 OFFCURVE",
"668 797 CURVE",
"618 809 OFFCURVE",
"571 814 OFFCURVE",
"527 814 CURVE SMOOTH",
"393 814 OFFCURVE",
"334 768 OFFCURVE",
"272 655 CURVE SMOOTH",
"181 489 OFFCURVE",
"69 231 OFFCURVE",
"69 79 CURVE SMOOTH",
"69 -11 OFFCURVE",
"108 -81 OFFCURVE",
"212 -81 CURVE SMOOTH"
);
}
);
};
layerId = "5B3E17BD-58CB-427A-90D4-51AACCBD5397";
name = "Regular Italic Mar 24 16, 14:20";
paths = (
{
closed = 1;
nodes = (
"611 431 OFFCURVE",
"684 473 OFFCURVE",
"708 649 CURVE",
"653 626 OFFCURVE",
"604 620 OFFCURVE",
"560 620 CURVE SMOOTH",
"469 620 OFFCURVE",
"370 646 OFFCURVE",
"287 646 CURVE SMOOTH",
"115 646 OFFCURVE",
"71 537 OFFCURVE",
"72 438 CURVE",
"111 450 OFFCURVE",
"145 453 OFFCURVE",
"190 453 CURVE SMOOTH",
"311 453 OFFCURVE",
"379 431 OFFCURVE",
"477 431 CURVE SMOOTH"
);
},
{
closed = 1;
nodes = (
"319 -81 OFFCURVE",
"454 -22 OFFCURVE",
"534 108 CURVE",
"437 94 OFFCURVE",
"420 151 OFFCURVE",
"420 192 CURVE SMOOTH",
"420 331 OFFCURVE",
"614 728 OFFCURVE",
"668 797 CURVE",
"618 809 OFFCURVE",
"571 814 OFFCURVE",
"527 814 CURVE SMOOTH",
"393 814 OFFCURVE",
"334 768 OFFCURVE",
"272 655 CURVE SMOOTH",
"181 489 OFFCURVE",
"69 231 OFFCURVE",
"69 79 CURVE SMOOTH",
"69 -11 OFFCURVE",
"108 -81 OFFCURVE",
"212 -81 CURVE SMOOTH"
);
}
);
width = 612;
}
);
unicode = 0074;
},
{
glyphname = u;
lastChange = "2016-03-24 06:21:04 +0000";
layers = (
{
background = {
paths = (
{
closed = 1;
nodes = (
"233 627 OFFCURVE",
"149 595 OFFCURVE",
"80 535 CURVE",
"105 506 OFFCURVE",
"112 486 OFFCURVE",
"112 455 CURVE SMOOTH",
"112 304 OFFCURVE",
"-2 144 OFFCURVE",
"-2 45 CURVE SMOOTH",
"-2 -26 OFFCURVE",
"68 -78 OFFCURVE",
"155 -78 CURVE SMOOTH",
"336 -78 OFFCURVE",
"557 171 OFFCURVE",
"650 306 CURVE",
"569 504 LINE",
"569 375 OFFCURVE",
"489 200 OFFCURVE",
"436 200 CURVE SMOOTH",
"405 200 OFFCURVE",
"398 220 OFFCURVE",
"398 244 CURVE SMOOTH",
"398 331 OFFCURVE",
"467 437 OFFCURVE",
"467 528 CURVE SMOOTH",
"467 582 OFFCURVE",
"416 627 OFFCURVE",
"317 627 CURVE SMOOTH"
);
},
{
closed = 1;
nodes = (
"675 -78 OFFCURVE",
"751 -30 OFFCURVE",
"808 18 CURVE",
"785 32 OFFCURVE",
"774 61 OFFCURVE",
"774 95 CURVE SMOOTH",
"774 254 OFFCURVE",
"935 441 OFFCURVE",
"935 541 CURVE SMOOTH",
"935 610 OFFCURVE",
"859 627 OFFCURVE",
"777 627 CURVE SMOOTH",
"697 627 OFFCURVE",
"627 612 OFFCURVE",
"555 582 CURVE",
"564 557 OFFCURVE",
"569 532 OFFCURVE",
"569 505 CURVE SMOOTH",
"569 340 OFFCURVE",
"462 118 OFFCURVE",
"452 29 CURVE SMOOTH",
"443 -52 OFFCURVE",
"510 -78 OFFCURVE",
"596 -78 CURVE SMOOTH"
);
},
{
closed = 1;
nodes = (
"335 173 OFFCURVE",
"327 182 OFFCURVE",
"327 210 CURVE SMOOTH",
"327 321 OFFCURVE",
"452 496 OFFCURVE",
"527 496 CURVE SMOOTH",
"544 496 OFFCURVE",
"552 487 OFFCURVE",
"552 464 CURVE SMOOTH",
"552 369 OFFCURVE",
"414 173 OFFCURVE",
"349 173 CURVE SMOOTH"
);
},
{
closed = 1;
nodes = (
"909 610 OFFCURVE",
"903 616 OFFCURVE",
"897 618 CURVE",
"848 601 OFFCURVE",
"797 590 OFFCURVE",
"745 590 CURVE SMOOTH",
"652 590 OFFCURVE",
"589 626 OFFCURVE",
"492 626 CURVE SMOOTH",
"223 626 OFFCURVE",
"-9 355 OFFCURVE",
"-9 126 CURVE SMOOTH",
"-9 8 OFFCURVE",
"51 -71 OFFCURVE",
"165 -71 CURVE SMOOTH",
"280 -71 OFFCURVE",
"388 9 OFFCURVE",
"442 116 CURVE",
"446 114 LINE",
"433 70 OFFCURVE",
"427 35 OFFCURVE",
"427 8 CURVE SMOOTH",
"427 -60 OFFCURVE",
"468 -78 OFFCURVE",
"538 -78 CURVE SMOOTH",
"638 -78 OFFCURVE",
"722 -42 OFFCURVE",
"783 18 CURVE",
"760 32 OFFCURVE",
"743 62 OFFCURVE",
"743 123 CURVE SMOOTH",
"743 283 OFFCURVE",
"863 510 OFFCURVE",
"911 605 CURVE"
);
}
);
};
layerId = "BE599D47-15C2-4DC8-BE97-05FFE6CA3179";
paths = (
{
closed = 1;
nodes = (
"33 -16 OFFCURVE",
"95 -78 OFFCURVE",
"179 -78 CURVE SMOOTH",
"272 -78 OFFCURVE",
"373 1 OFFCURVE",
"457 87 CURVE",
"463 87 LINE",
"434 -26 OFFCURVE",
"469 -78 OFFCURVE",
"566 -78 CURVE SMOOTH",
"665 -78 OFFCURVE",
"751 -30 OFFCURVE",
"808 18 CURVE",
"792 34 OFFCURVE",
"787 67 OFFCURVE",
"787 105 CURVE SMOOTH",
"787 260 OFFCURVE",
"935 443 OFFCURVE",
"935 541 CURVE SMOOTH",
"935 610 OFFCURVE",
"859 627 OFFCURVE",
"777 627 CURVE SMOOTH",
"697 627 OFFCURVE",
"627 612 OFFCURVE",
"555 582 CURVE",
"564 557 OFFCURVE",
"569 532 OFFCURVE",
"569 505 CURVE SMOOTH",
"569 492 OFFCURVE",
"568 479 OFFCURVE",
"567 465 CURVE SMOOTH",
"554 343 OFFCURVE",
"484 200 OFFCURVE",
"436 200 CURVE SMOOTH",
"405 200 OFFCURVE",
"398 220 OFFCURVE",
"398 244 CURVE SMOOTH",
"398 331 OFFCURVE",
"467 437 OFFCURVE",
"467 528 CURVE SMOOTH",
"467 582 OFFCURVE",
"416 627 OFFCURVE",
"317 627 CURVE SMOOTH",
"235 627 OFFCURVE",
"153 606 OFFCURVE",
"86 566 CURVE",
"111 537 OFFCURVE",
"118 517 OFFCURVE",
"118 486 CURVE SMOOTH",
"118 323 OFFCURVE",
"33 171 OFFCURVE",
"33 75 CURVE SMOOTH"
);
}
);
width = 880;
},
{
associatedMasterId = "BE599D47-15C2-4DC8-BE97-05FFE6CA3179";
layerId = "07C98D60-F433-4FAC-BD5C-9D806A811491";
name = "Regular Italic Mar 20 16, 10:03";
paths = (
{
closed = 1;
nodes = (
"241 627 OFFCURVE",
"157 595 OFFCURVE",
"88 535 CURVE",
"113 506 OFFCURVE",
"120 486 OFFCURVE",
"120 455 CURVE SMOOTH",
"120 304 OFFCURVE",
"6 144 OFFCURVE",
"6 45 CURVE SMOOTH",
"6 -26 OFFCURVE",
"76 -78 OFFCURVE",
"163 -78 CURVE SMOOTH",
"344 -78 OFFCURVE",
"565 171 OFFCURVE",
"658 306 CURVE",
"573 466 LINE",
"573 353 OFFCURVE",
"495 200 OFFCURVE",
"444 200 CURVE SMOOTH",
"413 200 OFFCURVE",
"406 220 OFFCURVE",
"406 244 CURVE SMOOTH",
"406 331 OFFCURVE",
"475 437 OFFCURVE",
"475 528 CURVE SMOOTH",
"475 582 OFFCURVE",
"424 627 OFFCURVE",
"325 627 CURVE SMOOTH"
);
},
{
closed = 1;
nodes = (
"702 628 OFFCURVE",
"619 588 OFFCURVE",
"562 540 CURVE",
"569 517 OFFCURVE",
"573 493 OFFCURVE",
"573 465 CURVE SMOOTH",
"573 295 OFFCURVE",
"442 64 OFFCURVE",
"442 -11 CURVE SMOOTH",
"442 -64 OFFCURVE",
"508 -77 OFFCURVE",
"580 -77 CURVE SMOOTH",
"656 -77 OFFCURVE",
"723 -62 OFFCURVE",
"792 -32 CURVE",
"783 -7 OFFCURVE",
"778 18 OFFCURVE",
"778 45 CURVE SMOOTH",
"778 206 OFFCURVE",
"924 339 OFFCURVE",
"924 491 CURVE SMOOTH",
"924 577 OFFCURVE",
"862 628 OFFCURVE",
"781 628 CURVE SMOOTH"
);
}
);
width = 888;
}
);
unicode = 0075;
},
{
glyphname = y;
lastChange = "2016-03-24 06:21:13 +0000";
layers = (
{
background = {
paths = (
{
closed = 1;
nodes = (
"364 184 OFFCURVE",
"356 193 OFFCURVE",
"356 221 CURVE SMOOTH",
"356 328 OFFCURVE",
"481 496 OFFCURVE",
"556 496 CURVE SMOOTH",
"573 496 OFFCURVE",
"581 487 OFFCURVE",
"581 464 CURVE SMOOTH",
"581 373 OFFCURVE",
"443 184 OFFCURVE",
"378 184 CURVE SMOOTH"
);
},
{
closed = 1;
nodes = (
"938 610 OFFCURVE",
"932 616 OFFCURVE",
"926 618 CURVE",
"877 601 OFFCURVE",
"826 590 OFFCURVE",
"774 590 CURVE SMOOTH",
"681 590 OFFCURVE",
"618 626 OFFCURVE",
"521 626 CURVE SMOOTH",
"252 626 OFFCURVE",
"20 354 OFFCURVE",
"20 145 CURVE SMOOTH",
"20 36 OFFCURVE",
"80 -43 OFFCURVE",
"194 -43 CURVE SMOOTH",
"311 -43 OFFCURVE",
"421 32 OFFCURVE",
"476 133 CURVE",
"480 131 LINE",
"462 -27 OFFCURVE",
"360 -136 OFFCURVE",
"220 -136 CURVE SMOOTH",
"130 -136 OFFCURVE",
"50 -91 OFFCURVE",
"1 -17 CURVE",
"-68 -34 OFFCURVE",
"-111 -111 OFFCURVE",
"-111 -192 CURVE SMOOTH",
"-111 -331 OFFCURVE",
"17 -400 OFFCURVE",
"185 -400 CURVE SMOOTH",
"453 -400 OFFCURVE",
"671 -216 OFFCURVE",
"757 70 CURVE SMOOTH",
"796 199 OFFCURVE",
"832 419 OFFCURVE",
"940 605 CURVE"
);
}
);
};
layerId = "BE599D47-15C2-4DC8-BE97-05FFE6CA3179";
paths = (
{
closed = 1;
nodes = (
"463 -43 OFFCURVE",
"359 -140 OFFCURVE",
"218 -140 CURVE SMOOTH",
"128 -140 OFFCURVE",
"48 -95 OFFCURVE",
"-1 -21 CURVE",
"-70 -38 OFFCURVE",
"-113 -115 OFFCURVE",
"-113 -196 CURVE SMOOTH",
"-113 -335 OFFCURVE",
"15 -404 OFFCURVE",
"183 -404 CURVE SMOOTH",
"381 -404 OFFCURVE",
"546 -300 OFFCURVE",
"640 -167 CURVE SMOOTH",
"744 -18 OFFCURVE",
"866 431 OFFCURVE",
"866 541 CURVE SMOOTH",
"866 611 OFFCURVE",
"804 627 OFFCURVE",
"738 627 CURVE SMOOTH",
"665 627 OFFCURVE",
"602 612 OFFCURVE",
"536 582 CURVE",
"545 557 OFFCURVE",
"550 532 OFFCURVE",
"550 505 CURVE SMOOTH",
"550 492 OFFCURVE",
"549 479 OFFCURVE",
"548 465 CURVE SMOOTH",
"535 343 OFFCURVE",
"465 200 OFFCURVE",
"417 200 CURVE SMOOTH",
"386 200 OFFCURVE",
"379 220 OFFCURVE",
"379 244 CURVE SMOOTH",
"379 331 OFFCURVE",
"448 437 OFFCURVE",
"448 528 CURVE SMOOTH",
"448 582 OFFCURVE",
"397 627 OFFCURVE",
"298 627 CURVE SMOOTH",
"216 627 OFFCURVE",
"134 606 OFFCURVE",
"67 566 CURVE",
"92 537 OFFCURVE",
"99 517 OFFCURVE",
"99 486 CURVE SMOOTH",
"99 339 OFFCURVE",
"34 214 OFFCURVE",
"34 118 CURVE SMOOTH",
"34 27 OFFCURVE",
"102 -35 OFFCURVE",
"193 -35 CURVE SMOOTH",
"286 -35 OFFCURVE",
"400 24 OFFCURVE",
"471 110 CURVE",
"477 110 LINE"
);
}
);
width = 844;
},
{
associatedMasterId = "BE599D47-15C2-4DC8-BE97-05FFE6CA3179";
background = {
paths = (
{
closed = 1;
nodes = (
"383 184 OFFCURVE",
"375 193 OFFCURVE",
"375 221 CURVE SMOOTH",
"375 328 OFFCURVE",
"500 496 OFFCURVE",
"575 496 CURVE SMOOTH",
"592 496 OFFCURVE",
"600 487 OFFCURVE",
"600 464 CURVE SMOOTH",
"600 373 OFFCURVE",
"462 184 OFFCURVE",
"397 184 CURVE SMOOTH"
);
},
{
closed = 1;
nodes = (
"957 610 OFFCURVE",
"951 616 OFFCURVE",
"945 618 CURVE",
"896 601 OFFCURVE",
"845 590 OFFCURVE",
"793 590 CURVE SMOOTH",
"700 590 OFFCURVE",
"637 626 OFFCURVE",
"540 626 CURVE SMOOTH",
"271 626 OFFCURVE",
"39 354 OFFCURVE",
"39 145 CURVE SMOOTH",
"39 36 OFFCURVE",
"99 -43 OFFCURVE",
"213 -43 CURVE SMOOTH",
"330 -43 OFFCURVE",
"440 32 OFFCURVE",
"495 133 CURVE",
"499 131 LINE",
"481 -27 OFFCURVE",
"379 -136 OFFCURVE",
"239 -136 CURVE SMOOTH",
"149 -136 OFFCURVE",
"69 -91 OFFCURVE",
"20 -17 CURVE",
"-49 -34 OFFCURVE",
"-92 -111 OFFCURVE",
"-92 -192 CURVE SMOOTH",
"-92 -331 OFFCURVE",
"36 -400 OFFCURVE",
"204 -400 CURVE SMOOTH",
"472 -400 OFFCURVE",
"690 -216 OFFCURVE",
"776 70 CURVE SMOOTH",
"815 199 OFFCURVE",
"851 419 OFFCURVE",
"959 605 CURVE"
);
}
);
};
layerId = "B6294D3F-8872-4C6B-B0CF-A89DE01BCD08";
name = "Regular Italic Mar 24 16, 02:12";
paths = (
{
closed = 1;
nodes = (
"33 -16 OFFCURVE",
"95 -78 OFFCURVE",
"179 -78 CURVE SMOOTH",
"272 -78 OFFCURVE",
"373 1 OFFCURVE",
"457 87 CURVE",
"463 87 LINE",
"434 -26 OFFCURVE",
"469 -78 OFFCURVE",
"566 -78 CURVE SMOOTH",
"665 -78 OFFCURVE",
"751 -30 OFFCURVE",
"808 18 CURVE",
"792 34 OFFCURVE",
"787 67 OFFCURVE",
"787 105 CURVE SMOOTH",
"787 260 OFFCURVE",
"935 443 OFFCURVE",
"935 541 CURVE SMOOTH",
"935 610 OFFCURVE",
"859 627 OFFCURVE",
"777 627 CURVE SMOOTH",
"697 627 OFFCURVE",
"627 612 OFFCURVE",
"555 582 CURVE",
"564 557 OFFCURVE",
"569 532 OFFCURVE",
"569 505 CURVE SMOOTH",
"569 492 OFFCURVE",
"568 479 OFFCURVE",
"567 465 CURVE SMOOTH",
"554 343 OFFCURVE",
"484 200 OFFCURVE",
"436 200 CURVE SMOOTH",
"405 200 OFFCURVE",
"398 220 OFFCURVE",
"398 244 CURVE SMOOTH",
"398 331 OFFCURVE",
"467 437 OFFCURVE",
"467 528 CURVE SMOOTH",
"467 582 OFFCURVE",
"416 627 OFFCURVE",
"317 627 CURVE SMOOTH",
"235 627 OFFCURVE",
"153 606 OFFCURVE",
"86 566 CURVE",
"111 537 OFFCURVE",
"118 517 OFFCURVE",
"118 486 CURVE SMOOTH",
"118 323 OFFCURVE",
"33 171 OFFCURVE",
"33 75 CURVE SMOOTH"
);
},
{
closed = 1;
nodes = (
"383 184 OFFCURVE",
"375 193 OFFCURVE",
"375 221 CURVE SMOOTH",
"375 328 OFFCURVE",
"500 496 OFFCURVE",
"575 496 CURVE SMOOTH",
"592 496 OFFCURVE",
"600 487 OFFCURVE",
"600 464 CURVE SMOOTH",
"600 373 OFFCURVE",
"462 184 OFFCURVE",
"397 184 CURVE SMOOTH"
);
},
{
closed = 1;
nodes = (
"957 610 OFFCURVE",
"951 616 OFFCURVE",
"945 618 CURVE",
"896 601 OFFCURVE",
"845 590 OFFCURVE",
"793 590 CURVE SMOOTH",
"700 590 OFFCURVE",
"637 626 OFFCURVE",
"540 626 CURVE SMOOTH",
"271 626 OFFCURVE",
"39 354 OFFCURVE",
"39 145 CURVE SMOOTH",
"39 36 OFFCURVE",
"99 -43 OFFCURVE",
"213 -43 CURVE SMOOTH",
"330 -43 OFFCURVE",
"440 32 OFFCURVE",
"495 133 CURVE",
"499 131 LINE",
"481 -27 OFFCURVE",
"379 -136 OFFCURVE",
"239 -136 CURVE SMOOTH",
"149 -136 OFFCURVE",
"69 -91 OFFCURVE",
"20 -17 CURVE",
"-49 -34 OFFCURVE",
"-92 -111 OFFCURVE",
"-92 -192 CURVE SMOOTH",
"-92 -331 OFFCURVE",
"36 -400 OFFCURVE",
"204 -400 CURVE SMOOTH",
"472 -400 OFFCURVE",
"690 -216 OFFCURVE",
"776 70 CURVE SMOOTH",
"815 199 OFFCURVE",
"851 419 OFFCURVE",
"959 605 CURVE"
);
}
);
width = 880;
}
);
unicode = 0079;
},
{
glyphname = espaciador;
lastChange = "2016-03-19 04:33:06 +0000";
layers = (
{
layerId = "BE599D47-15C2-4DC8-BE97-05FFE6CA3179";
paths = (
{
closed = 1;
nodes = (
"190 -200 LINE",
"549 1050 LINE",
"226 1050 LINE",
"-133 -200 LINE"
);
}
